<svg width="16" height="18" viewBox="0 0 16 18" fill="none" xmlns="http://www.w3.org/2000/svg">
<path d="M15.6838 0H4.13606C3.96142 0 3.81938 0.139888 3.81938 0.311787V5.40934C3.81938 5.58128 3.96142 5.72112 4.13606 5.72112H4.98054C5.15513 5.72112 5.29722 5.58128 5.29722 5.40934V1.45501H14.5226V16.545H5.29717V12.5907C5.29717 12.4187 5.15513 12.2789 4.98049 12.2789H4.13602C3.96142 12.2789 3.81934 12.4187 3.81934 12.5907V17.6882C3.81934 17.8601 3.96142 18 4.13602 18H15.6838C15.8583 18 16.0004 17.8601 16.0004 17.6882V0.311787C16.0004 0.139888 15.8584 0 15.6838 0Z" fill="#00A7B5"/>
<path d="M0 8.58556V9.41699C0 9.58893 0.142041 9.72878 0.316679 9.72878H8.6797L7.24611 11.1402C7.18628 11.1991 7.15334 11.2774 7.15334 11.3607C7.15334 11.4439 7.18628 11.5223 7.24611 11.5811L7.84324 12.1691C7.90303 12.2279 7.98258 12.2604 8.06715 12.2604C8.15173 12.2604 8.23124 12.228 8.29111 12.1691L11.2847 9.22173C11.3445 9.16286 11.3775 9.08454 11.3775 9.00128C11.3775 8.91801 11.3445 8.83973 11.2847 8.78082L8.29115 5.83352C8.23132 5.77465 8.15181 5.74219 8.06724 5.74219C7.98262 5.74219 7.90311 5.77461 7.84328 5.83352L7.24611 6.42147C7.12269 6.54302 7.12269 6.74082 7.24615 6.86238L8.67974 8.27381H0.316679C0.142041 8.27377 0 8.41362 0 8.58556Z" fill="#00A7B5"/>
</svg>
