<svg width="48" height="48" viewBox="0 0 48 48" fill="none" xmlns="http://www.w3.org/2000/svg">
<path fill-rule="evenodd" clip-rule="evenodd" d="M12 7.05469V8.10938H13.0517H14.1033L14.1276 13.1543C14.1541 18.6484 14.1392 18.4353 14.5643 19.3965C14.9633 20.2987 15.7768 21.2067 16.6728 21.75C16.9598 21.924 18.0825 22.509 19.1677 23.0498C20.2528 23.5906 21.1406 24.0497 21.1406 24.0699C21.1406 24.0901 20.2626 24.5447 19.1895 25.0801C18.1163 25.6154 16.9965 26.1966 16.7009 26.3716C15.7969 26.9067 14.9715 27.8233 14.5643 28.7441C14.1398 29.7042 14.1542 29.4998 14.1276 34.916L14.1032 39.8906H13.0516H12V40.9453V42H23.6016H35.2031V40.9453V39.8906H34.1515H33.0999L33.0755 34.916C33.0535 30.4205 33.0393 29.9018 32.9277 29.5299C32.5404 28.2379 31.7794 27.1999 30.7031 26.4955C30.4518 26.3309 29.3048 25.7261 28.1543 25.1514C27.0038 24.5768 26.0625 24.0903 26.0625 24.0703C26.0625 24.0503 26.9722 23.5806 28.084 23.0264C30.5514 21.7964 30.953 21.5521 31.5876 20.8946C32.382 20.0716 32.8448 19.1648 33.0193 18.0892C33.0651 17.8069 33.0929 15.8443 33.0932 12.873L33.0938 8.10938H34.1484H35.2031V7.05469V6H23.6016H12V7.05469ZM30.9823 10.166L30.9803 12.2227L30.5553 12.5312C28.8306 13.7835 26.1309 14.5781 23.6016 14.5781C21.0841 14.5781 18.3643 13.7775 16.6478 12.5312L16.2228 12.2227L16.2208 10.166L16.2188 8.10938H23.6016H30.9844L30.9823 10.166ZM18.7396 15.9135C22.4803 17.1418 26.8037 16.879 30.1511 15.2199L30.9844 14.807L30.9835 16.2218C30.9824 18.1048 30.8457 18.6096 30.123 19.4005C29.7882 19.7667 29.5989 19.8731 26.6851 21.3324L23.6016 22.8768L20.518 21.3324C17.6042 19.8731 17.4149 19.7667 17.0801 19.4005C16.3571 18.6093 16.2207 18.1051 16.2196 16.2187L16.2188 14.8005L17.0499 15.2161C17.507 15.4446 18.2674 15.7584 18.7396 15.9135ZM26.6869 26.8091C29.5989 28.2675 29.7882 28.3739 30.123 28.7401C30.3178 28.9533 30.5467 29.2715 30.6318 29.4471C30.9813 30.169 30.9826 30.1916 30.9835 35.1973L30.9844 39.8906H30.6821H30.3798L28.1629 37.6582C26.6038 36.0881 25.8686 35.2967 25.6854 34.9908C25.0991 34.0118 24.767 33.0237 24.6821 32.0054L24.636 31.4531H23.6018H22.5675L22.5226 31.984C22.4328 33.0475 22.043 34.176 21.4508 35.0877C21.3009 35.3184 20.236 36.4523 19.0035 37.6934L16.8215 39.8906H16.5201H16.2188L16.2196 35.1973C16.2205 30.1916 16.2218 30.169 16.5714 29.4471C16.6564 29.2715 16.8853 28.9533 17.0801 28.7402C17.4143 28.3746 17.6081 28.2654 20.5004 26.8126C22.1867 25.9657 23.5751 25.271 23.5857 25.2691C23.5964 25.2672 24.9919 25.9602 26.6869 26.8091ZM22.5469 28.2891V29.3438H23.6016H24.6562V28.2891V27.2344H23.6016H22.5469V28.2891ZM23.8726 36.0625C24.2393 36.6754 24.7191 37.2264 26.089 38.6074L27.3619 39.8906H23.6016H19.8413L21.1141 38.6074C22.484 37.2264 22.9638 36.6754 23.3305 36.0625C23.459 35.8477 23.581 35.6719 23.6016 35.6719C23.6222 35.6719 23.7442 35.8477 23.8726 36.0625Z" fill="#00A7B5" stroke="#00A7B5" stroke-width="0.2"/>
</svg>
