<svg width="158" height="30" viewBox="0 0 158 30" fill="none" xmlns="http://www.w3.org/2000/svg">
<path fill-rule="evenodd" clip-rule="evenodd" d="M21.5092 16.5951V19.4882C25.852 19.4882 30.2019 19.4882 34.5447 19.4882C36.1265 19.4882 38.3508 19.4882 39.5372 18.1937C39.9726 17.8057 40.3084 17.3184 40.5161 16.773C40.7238 16.2275 40.7974 15.64 40.7305 15.0601C40.7729 12.7328 40.8435 11.1837 38.1602 10.2641V10.1863C40.2009 9.54254 40.1374 7.9368 40.1374 6.14007C40.1776 5.58976 40.0886 5.03767 39.8777 4.52793C39.6668 4.0182 39.3398 3.56496 38.9228 3.20447C37.8636 2.12218 35.5192 1.97363 34.2057 1.97363H21.4951V16.5951H21.5092ZM25.6896 16.206V12.2447H34.8695C35.9782 12.2447 36.5572 12.747 36.5855 14.2678C36.5855 16.0079 35.3356 16.1848 34.8978 16.1848L25.6896 16.206ZM25.6896 9.04031V5.33366H34.2905C35.3921 5.33366 35.9217 6.133 35.9217 7.29309C35.9247 7.73459 35.76 8.16071 35.461 8.48513C35.1621 8.80955 34.7512 9.00801 34.3117 9.04031H25.6896Z" fill="#FEFEFE"/>
<path fill-rule="evenodd" clip-rule="evenodd" d="M47.8977 19.4883V14.3033H57.3813C58.483 14.1337 59.5099 13.6415 60.333 12.8885C61.6958 11.7143 61.8088 8.84236 61.7453 7.4842C61.6393 5.15694 61.0391 4.16662 60.333 3.35314C59.2686 2.41213 57.8896 1.90705 56.4703 1.93839C52.1982 1.93839 47.9189 1.93839 43.6467 1.93839V19.4883C45.059 19.4883 46.4854 19.4883 47.926 19.4883H47.8977ZM47.8977 10.8937V5.5177H51.6827C52.2829 5.5177 55.1569 5.46819 55.7218 5.5177C56.2867 5.56722 57.5861 6.16141 57.5507 8.29061C57.5154 10.4198 56.2303 10.6532 55.5947 10.7523C54.9592 10.8513 52.2829 10.8655 51.6332 10.8655H47.8836L47.8977 10.8937Z" fill="#FEFEFE"/>
<path fill-rule="evenodd" clip-rule="evenodd" d="M138.157 19.5379H150.727C153.481 19.5379 155.133 19.5379 156.856 17.6634C158.007 16.4042 157.958 14.0487 157.958 10.5896C157.958 7.5479 158.05 5.09331 156.722 3.60783C155.119 1.8111 152.485 1.95257 150.247 1.95257H138.172L138.157 19.5379ZM142.394 5.51774H144.259C147.083 5.51774 151.744 5.19235 152.81 6.13315C153.876 7.07396 153.799 8.83532 153.763 11.4455C153.763 13.9355 153.657 14.5226 152.994 15.2937C152.005 16.4396 146.045 16.0576 144.598 16.0576H142.387V5.51774H142.394Z" fill="#FEFEFE"/>
<path fill-rule="evenodd" clip-rule="evenodd" d="M134.937 19.4812C135.27 19.3567 135.549 19.1212 135.727 18.8145C135.906 18.5077 135.974 18.1485 135.919 17.7976C135.953 17.4464 135.877 17.0931 135.701 16.7874C135.525 16.4817 135.258 16.2388 134.937 16.0928H121.457V12.1669H132.529C132.849 12.06 133.123 11.8482 133.308 11.5658C133.492 11.2834 133.576 10.9469 133.546 10.6107C133.591 10.2712 133.511 9.92714 133.321 9.64227C133.131 9.35741 132.845 9.15107 132.515 9.06153H121.457V5.20634H134.874C135.213 5.09742 135.506 4.87676 135.705 4.58015C135.904 4.28354 135.997 3.92838 135.968 3.5723C135.993 3.22109 135.899 2.87177 135.7 2.5814C135.501 2.29103 135.21 2.07677 134.874 1.97363H117.22V19.4882L134.937 19.4812Z" fill="#FEFEFE"/>
<path fill-rule="evenodd" clip-rule="evenodd" d="M75.5575 2.04461e-05C77.3568 -0.00355581 79.1261 0.46207 80.6912 1.35111L81.1644 1.66235C78.5445 3.81984 69.2022 11.4878 65.848 14.2465C65.3782 13.0405 65.1387 11.7567 65.1419 10.4621C65.1419 7.69227 66.2383 5.03548 68.1908 3.07428C70.1433 1.11307 72.7925 0.0075115 75.5575 2.04461e-05ZM82.0682 2.28484C82.2942 2.46876 82.5202 2.65975 82.732 2.85781C82.9438 3.05588 83.078 3.20443 83.2475 3.38835L74.4348 20.8959C74.3853 20.8959 73.6227 20.7402 73.5803 20.7332C72.0259 20.4266 70.5612 19.7708 69.2965 18.8151C68.0317 17.8594 66.9999 16.6287 66.2788 15.2157L82.0965 2.28484H82.0682ZM84.0313 4.28671C85.1747 5.84868 85.8625 7.69814 86.018 9.62881C86.1734 11.5595 85.7904 13.4955 84.9117 15.2208C84.0329 16.9462 82.693 18.3931 81.0413 19.4001C79.3896 20.4072 77.4911 20.9348 75.5575 20.9242L84.0313 4.28671Z" fill="#FEFEFE"/>
<path fill-rule="evenodd" clip-rule="evenodd" d="M17.689 19.4812C18.0224 19.358 18.3031 19.123 18.4833 18.8162C18.6635 18.5093 18.7321 18.1494 18.6776 17.7976C18.7104 17.4457 18.6328 17.0923 18.4556 16.7867C18.2784 16.4811 18.0104 16.2386 17.689 16.0928H4.23688V12.1669H15.2669C15.5897 12.0627 15.8679 11.8523 16.0564 11.5698C16.2448 11.2873 16.3324 10.9493 16.3049 10.6107C16.349 10.2703 16.2679 9.92541 16.077 9.6404C15.886 9.35538 15.5981 9.14965 15.2669 9.06153H4.23688V5.20634H17.6537C17.9919 5.09524 18.2833 4.87408 18.4816 4.578C18.68 4.28192 18.7738 3.92793 18.7482 3.5723C18.7711 3.21951 18.6739 2.86937 18.4726 2.57902C18.2712 2.28868 17.9776 2.07527 17.6395 1.97363H0V19.4812H17.689Z" fill="#FEFEFE"/>
<path d="M0 28.9036V24.9706H0.776761L1.70887 27.7577C1.79361 28.0123 1.85716 28.2104 1.89247 28.3377C1.93484 28.1962 2.00546 27.984 2.10432 27.7081L3.05055 24.9706H3.7567V28.9036H3.24121V25.6143L2.11844 28.9036H1.6312L0.501364 25.5577V28.9036H0ZM4.59701 28.9036V24.9706H5.11956V26.5905H7.1462V24.9706H7.66875V28.9036H7.1462V27.0574H5.11956V28.9036H4.59701ZM8.3749 26.9937C8.34503 26.4358 8.53235 25.8881 8.89744 25.4658C9.07229 25.2839 9.28332 25.1407 9.51687 25.0457C9.75042 24.9507 10.0013 24.9058 10.2532 24.914C10.5983 24.9082 10.9382 24.9988 11.2348 25.1757C11.5206 25.3411 11.7514 25.5871 11.8986 25.8831C12.0552 26.2119 12.1326 26.5729 12.1245 26.9371C12.1321 27.3074 12.0497 27.674 11.8844 28.0052C11.7295 28.3098 11.4823 28.5574 11.1783 28.7126C10.8863 28.8731 10.5581 28.9559 10.225 28.9531C9.87534 28.9597 9.5307 28.8691 9.22933 28.6914C8.94817 28.5224 8.72049 28.2772 8.57262 27.984C8.42058 27.6814 8.3431 27.3466 8.34665 27.0078L8.3749 26.9937ZM8.91157 26.9937C8.88939 27.4017 9.02609 27.8023 9.29288 28.1114C9.41632 28.2424 9.56517 28.3468 9.73031 28.4181C9.89545 28.4894 10.0734 28.5262 10.2532 28.5262C10.4331 28.5262 10.611 28.4894 10.7762 28.4181C10.9413 28.3468 11.0902 28.2424 11.2136 28.1114C11.4842 27.7853 11.6183 27.3671 11.5879 26.9442C11.597 26.6573 11.5415 26.3719 11.4254 26.1095C11.3306 25.8818 11.1679 25.6891 10.9594 25.5577C10.7482 25.4244 10.5028 25.3556 10.2532 25.3597C9.90107 25.3561 9.56146 25.4906 9.30701 25.7346C9.16064 25.9089 9.05031 26.1105 8.98242 26.3279C8.91454 26.5453 8.89045 26.774 8.91157 27.0008V26.9937ZM12.8095 24.9635H15.3446V25.4658H13.325V28.9319H12.8095V24.9635ZM15.2951 26.9866C15.2671 26.4312 15.4543 25.8863 15.8177 25.4658C15.9925 25.2839 16.2036 25.1407 16.4371 25.0457C16.6707 24.9507 16.9215 24.9058 17.1735 24.914C17.5187 24.9071 17.8589 24.9978 18.155 25.1757C18.4424 25.3391 18.6738 25.5857 18.8188 25.8831C18.9836 26.2123 19.0683 26.5759 19.066 26.9442C19.07 27.3141 18.9878 27.6798 18.8259 28.0123C18.6701 28.3163 18.4231 28.5636 18.1197 28.7197C17.8277 28.8801 17.4995 28.9629 17.1664 28.9602C16.8189 28.9677 16.4763 28.877 16.1778 28.6985C15.893 28.5318 15.6625 28.2861 15.514 27.9911C15.3655 27.6872 15.2882 27.3533 15.2881 27.0149L15.2951 26.9866ZM15.8318 26.9866C15.8136 27.4033 15.9609 27.8102 16.2414 28.1184C16.3633 28.251 16.512 28.3562 16.6776 28.4269C16.8431 28.4976 17.0218 28.5323 17.2017 28.5287C17.3824 28.5328 17.5618 28.4976 17.7276 28.4256C17.8934 28.3535 18.0416 28.2463 18.1621 28.1114C18.4345 27.786 18.5711 27.3679 18.5434 26.9442C18.5425 26.656 18.4799 26.3714 18.3598 26.1095C18.2601 25.8827 18.0954 25.6907 17.8867 25.5577C17.6757 25.424 17.4302 25.3552 17.1805 25.3597C16.8262 25.3557 16.4843 25.4902 16.2272 25.7346C16.0809 25.9089 15.9705 26.1105 15.9027 26.3279C15.8348 26.5453 15.8107 26.774 15.8318 27.0008V26.9866ZM19.7227 24.9565H22.8015V28.8895H22.2789V25.4658H20.2452V28.9319H19.7227V24.9706V24.9565ZM23.6559 28.8895V24.9706H25.1388C25.3374 24.9656 25.5361 24.9798 25.732 25.013C25.9069 25.0336 26.0742 25.0968 26.2192 25.197C26.3569 25.291 26.4667 25.4205 26.537 25.5719C26.6173 25.7396 26.6583 25.9235 26.657 26.1095C26.6618 26.2644 26.6355 26.4187 26.5797 26.5633C26.5239 26.7079 26.4397 26.8398 26.3322 26.9513C26.174 27.0845 25.9903 27.1839 25.7924 27.2435C25.5945 27.3031 25.3865 27.3216 25.1812 27.2979H24.1784V28.9036L23.6559 28.8895ZM24.1784 26.8239H25.1882C25.4378 26.8471 25.6877 26.782 25.8944 26.64C25.9633 26.5706 26.0171 26.4876 26.0524 26.3963C26.0876 26.3049 26.1035 26.2073 26.0992 26.1095C26.1053 25.9588 26.0633 25.8101 25.9791 25.6851C25.899 25.5724 25.7813 25.4921 25.6472 25.4587C25.4878 25.4382 25.3265 25.4382 25.1671 25.4587H24.1784V26.8734V26.8239ZM27.003 26.9795C26.9807 26.4246 27.173 25.8823 27.5397 25.4658C27.7146 25.2839 27.9256 25.1407 28.1591 25.0457C28.3927 24.9507 28.6436 24.9058 28.8955 24.914C29.2407 24.9071 29.5809 24.9978 29.8771 25.1757C30.1645 25.3391 30.3958 25.5857 30.5408 25.8831C30.6996 26.2114 30.7795 26.5724 30.7739 26.9371C30.7779 27.307 30.6957 27.6728 30.5338 28.0052C30.378 28.3092 30.131 28.5566 29.8276 28.7126C29.5356 28.8731 29.2074 28.9559 28.8743 28.9531C28.5268 28.9607 28.1842 28.8699 27.8857 28.6914C27.601 28.5247 27.3704 28.279 27.2219 27.984C27.0734 27.6801 26.9961 27.3462 26.996 27.0078L27.003 26.9795ZM27.5397 26.9795C27.5175 27.3875 27.6542 27.7882 27.921 28.0972C28.0445 28.2282 28.1933 28.3326 28.3585 28.404C28.5236 28.4753 28.7015 28.5121 28.8814 28.5121C29.0612 28.5121 29.2392 28.4753 29.4043 28.404C29.5695 28.3326 29.7183 28.2282 29.8417 28.0972C30.1142 27.7719 30.2508 27.3538 30.2231 26.93C30.2288 26.6434 30.1734 26.3588 30.0606 26.0953C29.9609 25.8686 29.7963 25.6765 29.5875 25.5436C29.3765 25.4099 29.131 25.341 28.8814 25.3455C28.527 25.3416 28.1851 25.4761 27.9281 25.7204C27.7812 25.897 27.6711 26.1013 27.6044 26.3212C27.5377 26.5411 27.5157 26.7722 27.5397 27.0008V26.9795ZM32.8711 25.4658V24.9706H33.3584V25.4658C33.7948 25.4712 34.2152 25.6316 34.5447 25.9185C34.6843 26.0496 34.7949 26.2087 34.8691 26.3854C34.9433 26.5621 34.9795 26.7525 34.9754 26.9442C34.9775 27.1332 34.9416 27.3208 34.8701 27.4957C34.7985 27.6707 34.6927 27.8295 34.5588 27.9628C34.232 28.2649 33.803 28.4317 33.3584 28.4297V28.9319H32.8711V28.4297C32.4468 28.4248 32.0374 28.2722 31.713 27.9982C31.5628 27.8654 31.4424 27.7021 31.36 27.5192C31.2775 27.3362 31.2349 27.1378 31.2349 26.9371C31.2349 26.7364 31.2775 26.538 31.36 26.355C31.4424 26.1721 31.5628 26.0088 31.713 25.876C32.0411 25.6112 32.4497 25.4664 32.8711 25.4658ZM33.3584 25.9114V27.984C33.6498 27.9876 33.932 27.8816 34.1492 27.6869C34.2446 27.5962 34.3197 27.4862 34.3696 27.3643C34.4195 27.2424 34.4431 27.1112 34.4388 26.9795C34.4427 26.8485 34.4196 26.7181 34.371 26.5964C34.3224 26.4747 34.2493 26.3644 34.1563 26.2722C33.9493 26.0457 33.664 25.9066 33.3584 25.8831V25.9114ZM32.8711 25.9114C32.5839 25.9128 32.3064 26.0155 32.0873 26.2014C31.9866 26.2922 31.9068 26.4036 31.8531 26.5281C31.7995 26.6527 31.7734 26.7874 31.7766 26.923C31.774 27.0544 31.7984 27.185 31.8482 27.3067C31.898 27.4284 31.9721 27.5385 32.0661 27.6303C32.2877 27.8168 32.5676 27.9194 32.857 27.9204L32.8711 25.9114ZM35.6321 24.9918H36.1053V28.1043L38.1884 24.9918H38.7039V28.9248H38.2308V25.7982L36.1123 28.9036H35.5968V24.9706L35.6321 24.9918ZM39.869 24.9918H42.2982V28.9248H41.7756V25.4658H40.3633V27.4889C40.3697 27.7917 40.3508 28.0946 40.3068 28.3943C40.2773 28.5666 40.1901 28.7238 40.0597 28.8399C39.9279 28.946 39.7626 29.0012 39.5936 28.9956C39.4521 28.9923 39.3117 28.9685 39.177 28.9248L39.2688 28.465C39.3366 28.5011 39.4111 28.5228 39.4877 28.5287C39.5395 28.5316 39.5912 28.5215 39.638 28.4992C39.6849 28.477 39.7255 28.4433 39.756 28.4014C39.8316 28.2007 39.8605 27.9854 39.8408 27.7718V24.9706L39.869 24.9918ZM43.195 24.9918H43.7175V26.6683H44.6567C44.9798 26.647 45.3035 26.7003 45.6029 26.8239C45.7858 26.913 45.9346 27.0596 46.0266 27.2413C46.1101 27.4082 46.1536 27.5922 46.1537 27.7789C46.1559 28.0753 46.0447 28.3613 45.843 28.5782C45.6842 28.7127 45.4993 28.8129 45.3001 28.8726C45.1008 28.9322 44.8914 28.95 44.6849 28.9248H43.1738V24.9706L43.195 24.9918ZM43.7175 28.4792H44.6638C44.797 28.4983 44.9328 28.49 45.0627 28.4547C45.1926 28.4194 45.314 28.358 45.4193 28.274C45.5365 28.1361 45.5993 27.96 45.5959 27.7789C45.6007 27.6361 45.5558 27.496 45.4688 27.3828C45.3868 27.2715 45.2656 27.1956 45.1298 27.1705C44.8968 27.1294 44.6601 27.1128 44.4237 27.121H43.7175V28.4792ZM46.7963 28.9248V24.9706H47.3118V26.5905H49.3384V24.9706H49.8539V28.9036H49.3384V27.0574H47.3118V28.9036L46.7963 28.9248ZM50.7578 24.9918H51.2803V26.6683H52.2125C52.4262 26.6394 52.6436 26.6547 52.8512 26.7131C53.0589 26.7715 53.2524 26.8718 53.42 27.0078C53.6126 27.2253 53.7189 27.5059 53.7189 27.7966C53.7189 28.0873 53.6126 28.3679 53.42 28.5853C53.261 28.7169 53.077 28.8148 52.8792 28.8732C52.6814 28.9316 52.4738 28.9491 52.2689 28.9248H50.7366V24.9706L50.7578 24.9918ZM51.2803 28.4792H52.2266C52.473 28.4977 52.7192 28.441 52.9327 28.3165C53.0095 28.2525 53.0696 28.1708 53.1077 28.0784C53.1459 27.9859 53.1609 27.8855 53.1516 27.786C53.1572 27.6375 53.1096 27.492 53.0175 27.3757C52.9306 27.2664 52.8081 27.1913 52.6715 27.1635C52.4378 27.1282 52.2015 27.114 51.9653 27.121H51.2592L51.2803 28.4792ZM54.1614 24.9706H54.684V28.9036H54.1614V24.9706ZM55.5737 24.9706H56.0398V28.0831L58.1582 24.9706H58.6737V28.9036H58.2006V25.7982L56.1174 28.9036H55.5737V24.9706ZM57.5297 24.051H57.8546C57.8443 24.2498 57.7584 24.4372 57.6145 24.5745C57.4585 24.6986 57.2626 24.7614 57.0637 24.7513C56.9641 24.7634 56.8631 24.754 56.7674 24.7239C56.6717 24.6938 56.5835 24.6436 56.5086 24.5767C56.4338 24.5098 56.3741 24.4277 56.3334 24.3358C56.2927 24.2439 56.2721 24.1444 56.2728 24.0439H56.6047C56.6172 24.1515 56.6702 24.2502 56.753 24.3198C56.8367 24.387 56.9426 24.4198 57.0496 24.4118C57.1676 24.4213 57.2851 24.3888 57.3815 24.3198C57.4597 24.2495 57.512 24.1548 57.5297 24.051ZM61.0605 24.9918H61.583V28.465H63.6238V24.9706H64.1393V28.4438H64.4994V30H64.0404V28.9036H61.0322V24.9706L61.0605 24.9918ZM65.1137 28.9248V24.9706H67.9383V25.4658H65.6081V26.6683H67.79V27.1352H65.6081V28.4721H68.016V28.9319L65.1137 28.9248ZM68.7786 28.9248V24.9706H69.3012V26.5905H71.3208V24.9706H71.8433V28.9036H71.3208V27.0574H69.2729V28.9036L68.7786 28.9248ZM73.7217 28.9248V25.4658H72.4294V24.9706H75.5365V25.4658H74.2442V28.9319L73.7217 28.9248ZM76.0731 28.9248V24.9706H77.549C77.7499 24.966 77.9509 24.9802 78.1492 25.013C78.3235 25.0363 78.4902 25.0992 78.6365 25.197C78.7718 25.2917 78.8791 25.4212 78.9472 25.5719C79.0308 25.7384 79.072 25.9231 79.0672 26.1095C79.0755 26.421 78.9614 26.7232 78.7494 26.9513C78.591 27.0841 78.4073 27.1833 78.2094 27.2429C78.0116 27.3025 77.8037 27.3212 77.5984 27.2979H76.5886V28.9036L76.0731 28.9248ZM76.5886 26.8593H77.6055C77.8551 26.8831 78.1052 26.818 78.3116 26.6754C78.3818 26.6066 78.4369 26.5238 78.4734 26.4325C78.5099 26.3411 78.5269 26.2432 78.5235 26.1448C78.5276 25.9934 78.483 25.8446 78.3964 25.7204C78.3189 25.6082 78.2035 25.5278 78.0715 25.4941C77.9098 25.4733 77.746 25.4733 77.5843 25.4941H76.5816V26.9088L76.5886 26.8593ZM84.0455 27.5667L84.561 27.7011C84.48 28.0829 84.2737 28.4266 83.9749 28.6772C83.6788 28.902 83.3153 29.0192 82.9439 29.0097C82.5829 29.0263 82.2249 28.9379 81.913 28.7551C81.6404 28.5715 81.4288 28.3103 81.3057 28.0052C81.1473 27.6515 81.0654 27.2682 81.0656 26.8805C81.0567 26.5109 81.1366 26.1446 81.2986 25.8124C81.4421 25.5139 81.6739 25.2669 81.9624 25.105C82.2538 24.943 82.5824 24.8601 82.9157 24.8645C83.2699 24.8521 83.6181 24.9592 83.9043 25.1687C84.1789 25.3789 84.3753 25.6753 84.4622 26.0104L83.9537 26.1307C83.8882 25.8878 83.7502 25.6706 83.5583 25.5082C83.3681 25.3696 83.1366 25.2997 82.9016 25.3101C82.6349 25.2994 82.3719 25.3764 82.1531 25.5294C81.9508 25.6712 81.7997 25.8746 81.7223 26.1095C81.5483 26.6378 81.5483 27.2081 81.7223 27.7364C81.806 27.9683 81.9652 28.1652 82.1742 28.2953C82.3754 28.421 82.608 28.4873 82.8451 28.4863C83.1029 28.4862 83.3526 28.3961 83.5512 28.2316C83.7652 28.0326 83.9089 27.7695 83.9608 27.4818L84.0455 27.5667ZM84.9282 27.0361C84.9049 26.7532 84.9385 26.4683 85.027 26.1986C85.1156 25.9289 85.2573 25.6797 85.4437 25.4658C85.618 25.2831 85.8289 25.1395 86.0626 25.0444C86.2963 24.9494 86.5474 24.9049 86.7995 24.914C87.1445 24.9089 87.4842 24.9995 87.781 25.1757C88.0668 25.3411 88.2977 25.5871 88.4448 25.8831C88.5981 26.213 88.6753 26.5732 88.6708 26.9371C88.6784 27.3074 88.596 27.674 88.4307 28.0052C88.2749 28.3092 88.028 28.5566 87.7246 28.7126C87.4331 28.8746 87.1045 28.9575 86.7713 28.9531C86.4238 28.9599 86.0814 28.8692 85.7827 28.6914C85.501 28.5208 85.2714 28.2762 85.1189 27.984C84.9725 27.6796 84.8976 27.3457 84.9 27.0078L84.9282 27.0361ZM85.4649 27.0361C85.4427 27.4441 85.5794 27.8448 85.8462 28.1538C85.9696 28.2848 86.1185 28.3892 86.2836 28.4605C86.4488 28.5319 86.6267 28.5687 86.8066 28.5687C86.9864 28.5687 87.1644 28.5319 87.3295 28.4605C87.4946 28.3892 87.6435 28.2848 87.7669 28.1538C88.0343 27.826 88.168 27.4091 88.1412 26.9866C88.1504 26.6997 88.0948 26.4144 87.9788 26.1519C87.8833 25.9225 87.7177 25.7293 87.5056 25.6002C87.2955 25.4645 87.0494 25.3955 86.7995 25.4021C86.447 25.397 86.1069 25.5318 85.8533 25.777C85.7055 25.9504 85.5943 26.152 85.5264 26.3696C85.4584 26.5872 85.4351 26.8164 85.4578 27.0432L85.4649 27.0361ZM89.3275 28.939V24.9706H90.7963C91.0373 24.9633 91.2774 25.0042 91.5024 25.0909C91.6778 25.1674 91.8256 25.2957 91.9261 25.4587C92.0273 25.6145 92.0813 25.7963 92.0815 25.9822C92.0821 26.1496 92.0356 26.3139 91.9473 26.4561C91.8471 26.6106 91.7051 26.7333 91.5378 26.8098C91.7532 26.8679 91.944 26.9945 92.0815 27.1705C92.2092 27.3419 92.2763 27.5509 92.2721 27.7647C92.2741 27.9432 92.2355 28.1198 92.1591 28.2811C92.092 28.4223 91.9929 28.5458 91.8696 28.6419C91.7412 28.7369 91.5946 28.8044 91.4389 28.8399C91.2327 28.8862 91.0217 28.9076 90.8104 28.9036L89.3275 28.939ZM89.843 26.6612H90.6974C90.8633 26.6673 91.0293 26.653 91.1917 26.6188C91.3083 26.5844 91.4118 26.5153 91.4883 26.4207C91.5563 26.3182 91.5908 26.1971 91.5872 26.0741C91.5904 25.9521 91.5585 25.8318 91.4954 25.7275C91.4311 25.6313 91.3367 25.5591 91.227 25.5224C91.0298 25.4807 90.8282 25.464 90.6268 25.4728H89.843V26.6612ZM89.843 28.4792H90.8245C90.942 28.4896 91.0601 28.4896 91.1776 28.4792C91.2824 28.4635 91.3832 28.4275 91.4742 28.3731C91.5606 28.3215 91.6295 28.2451 91.6719 28.1538C91.7272 28.052 91.754 27.9371 91.7496 27.8213C91.7542 27.6851 91.7146 27.5511 91.6366 27.4393C91.5645 27.3281 91.4538 27.2474 91.3259 27.213C91.1405 27.1577 90.9472 27.1338 90.7539 27.1422H89.843V28.5004V28.4792ZM92.9995 28.939V24.9706H94.4824C94.6833 24.966 94.8843 24.9802 95.0826 25.013C95.255 25.035 95.4197 25.0981 95.5628 25.197C95.7022 25.289 95.8125 25.4191 95.8805 25.5719C95.9608 25.7396 96.0019 25.9235 96.0006 26.1095C96.0089 26.421 95.8948 26.7232 95.6828 26.9513C95.5244 27.0841 95.3407 27.1833 95.1428 27.2429C94.945 27.3025 94.7371 27.3212 94.5318 27.2979H93.522V28.9036L92.9995 28.939ZM93.522 26.8734H94.5389C94.7885 26.8972 95.0386 26.8321 95.245 26.6895C95.3152 26.6207 95.3703 26.538 95.4068 26.4466C95.4433 26.3553 95.4603 26.2573 95.4568 26.159C95.461 26.0075 95.4164 25.8588 95.3298 25.7346C95.2509 25.6237 95.1361 25.5437 95.0049 25.5082C94.8431 25.4882 94.6795 25.4882 94.5177 25.5082H93.5149V26.923L93.522 26.8734ZM96.6714 28.939V24.9706H99.496V25.4658H97.1798V26.6683H99.3477V27.1352H97.1798V28.4721H99.5666V28.9319L96.6714 28.939ZM100.301 28.939V24.9706H101.078L102.01 27.7577C102.095 28.0123 102.158 28.2104 102.193 28.3377C102.236 28.1962 102.306 27.984 102.405 27.7081L103.352 24.9706H104.058V28.9036H103.556V25.6143L102.391 28.9036H101.925L100.795 25.5577V28.9036L100.301 28.939ZM104.891 28.939V24.9706H107.716V25.4658H105.399V26.6683H107.567V27.1352H105.399V28.4721H107.807V28.9319L104.891 28.939ZM108.556 28.939V24.9706H109.071V26.5905H111.105V24.9706H111.571V28.9036H111.056V27.0574H109.022V28.9036L108.556 28.939ZM112.51 28.939V24.9706H112.983V26.5905H115.01V24.9706H115.533V28.9036H115.01V27.0574H112.983V28.9036L112.51 28.939ZM116.288 27.0291C116.256 26.4688 116.444 25.9182 116.811 25.4941C116.986 25.3121 117.197 25.169 117.43 25.074C117.664 24.9789 117.915 24.9341 118.167 24.9423C118.512 24.9365 118.852 25.0271 119.148 25.204C119.434 25.3694 119.665 25.6154 119.812 25.9114C119.968 26.2402 120.046 26.6012 120.038 26.9654C120.045 27.3357 119.963 27.7022 119.798 28.0335C119.643 28.3381 119.396 28.5857 119.092 28.7409C118.8 28.9014 118.471 28.9842 118.138 28.9814C117.789 28.988 117.444 28.8974 117.143 28.7197C116.861 28.5507 116.634 28.3055 116.486 28.0123C116.337 27.7084 116.26 27.3745 116.26 27.0361L116.288 27.0291ZM116.825 27.0291C116.803 27.437 116.939 27.8377 117.206 28.1467C117.33 28.2777 117.478 28.3821 117.644 28.4535C117.809 28.5248 117.987 28.5616 118.167 28.5616C118.346 28.5616 118.524 28.5248 118.689 28.4535C118.855 28.3821 119.003 28.2777 119.127 28.1467C119.397 27.8207 119.532 27.4024 119.501 26.9795C119.509 26.6934 119.456 26.4089 119.346 26.1448C119.246 25.9181 119.081 25.7261 118.873 25.5931C118.661 25.4598 118.416 25.391 118.167 25.395C117.814 25.3914 117.475 25.526 117.22 25.7699C117.074 25.9442 116.964 26.1459 116.896 26.3633C116.828 26.5806 116.804 26.8094 116.825 27.0361V27.0291ZM120.723 24.9989H121.189V28.1114L123.307 24.9989H123.823V28.9319H123.35V25.7982L121.231 28.9036H120.716L120.723 24.9989ZM122.643 24.051H122.968C122.968 24.2611 122.885 24.4627 122.737 24.6112C122.588 24.7598 122.387 24.8433 122.177 24.8433C121.968 24.8433 121.767 24.7598 121.618 24.6112C121.47 24.4627 121.387 24.2611 121.387 24.051H121.711C121.729 24.1585 121.784 24.2563 121.867 24.3269C121.95 24.394 122.056 24.4269 122.163 24.4189C122.281 24.4284 122.399 24.3958 122.495 24.3269C122.575 24.2548 122.627 24.1573 122.643 24.051ZM126.125 28.9248V24.9706H126.902L127.812 27.7577C127.904 28.0123 127.961 28.2104 128.003 28.3377C128.046 28.1962 128.116 27.984 128.215 27.7081L129.154 24.9706H129.86V28.9036H129.359V25.6143L128.215 28.9036H127.749L126.619 25.5577V28.9036L126.125 28.9248ZM130.708 28.9248V24.9706H133.532V25.4658H131.216V26.6683H133.384V27.1352H131.216V28.4721H133.624V28.9319L130.708 28.9248ZM134.712 24.9918H137.098V28.465H137.451V29.8444H136.992V28.9248H134.394V29.8444H133.935V28.4438H134.231C134.635 27.5361 134.8 26.5403 134.712 25.5507V24.9706V24.9918ZM136.583 25.4587H135.213V25.6568C135.213 25.9892 135.213 26.449 135.121 27.0291C135.08 27.5166 134.961 27.9944 134.768 28.4438H136.583V25.4658V25.4587ZM138.08 24.9918H138.546V28.1043L140.664 24.9918H141.18V28.9248H140.707V25.7982L138.624 28.9036H138.108L138.08 24.9918ZM142.013 24.9918H142.536V28.465H144.576V24.9706H145.092V28.4438H145.466V30H145.007V28.9036H142.027V24.9706L142.013 24.9918ZM146.066 24.9918H146.539V28.1043L148.658 24.9918H149.173V28.9248H148.7V25.7982L146.617 28.9036H146.095L146.066 24.9918ZM150.021 28.9248V24.9706H150.536V26.5905H152.57V24.9706H153.085V28.9036H152.57V27.0574H150.536V28.9036L150.021 28.9248ZM153.982 24.9918H154.505V26.6683H155.437C155.651 26.6394 155.868 26.6547 156.076 26.7131C156.283 26.7715 156.477 26.8718 156.644 27.0078C156.832 27.2236 156.935 27.5 156.934 27.786C156.938 28.0828 156.827 28.3696 156.623 28.5853C156.464 28.7169 156.28 28.8148 156.082 28.8732C155.885 28.9316 155.677 28.9491 155.472 28.9248H153.982V24.9706V24.9918ZM154.505 28.4792H155.451C155.697 28.4977 155.944 28.441 156.157 28.3165C156.234 28.2525 156.294 28.1708 156.332 28.0784C156.37 27.9859 156.385 27.8855 156.376 27.786C156.382 27.6375 156.334 27.492 156.242 27.3757C156.155 27.2664 156.033 27.1913 155.896 27.1635C155.662 27.1282 155.426 27.114 155.19 27.121H154.484L154.505 28.4792ZM157.407 24.9918H157.93V28.9248H157.407V24.9918Z" fill="#FEFEFE"/>
<path fill-rule="evenodd" clip-rule="evenodd" d="M113.569 19.4315C113.569 18.3351 113.569 15.3146 113.569 13.5108C113.569 10.0305 113.633 6.11164 113.569 3.88341C113.527 2.46866 113.181 2.01594 111.832 1.98765C111.361 1.97897 110.889 1.99786 110.42 2.04424C110.229 2.03812 110.04 2.08108 109.871 2.169C109.701 2.25693 109.557 2.38689 109.452 2.54647L105.823 7.11611L101.897 11.9404C99.2557 8.69356 96.8901 5.85698 94.2986 2.59599C94.1955 2.43835 94.0537 2.30998 93.8867 2.22325C93.7197 2.13651 93.5332 2.09435 93.3453 2.10083C92.8762 2.05126 92.4045 2.03236 91.933 2.04424C90.8808 2.04424 90.2241 2.42622 90.217 4.25124C90.217 6.47947 90.217 10.0871 90.217 13.5603C90.217 15.3712 90.217 18.3351 90.217 19.4315H94.4186V8.95529L97.2926 12.3648L100.428 16.0927C100.816 16.5949 102.751 16.8567 103.373 16.0927C105.322 13.7018 107.447 11.1411 109.354 8.85625V19.4669L113.569 19.4315Z" fill="#FEFEFE"/>
</svg>
