<svg width="44" height="44" viewBox="0 0 44 44" fill="none" xmlns="http://www.w3.org/2000/svg">
<circle cx="22" cy="22" r="22" fill="#FEFEFE"/>
<path fill-rule="evenodd" clip-rule="evenodd" d="M19.9274 0.0891637C15.7382 0.461488 11.4104 2.23439 8.08268 4.94117C7.10454 5.73684 5.55583 7.29764 4.77572 8.27418C2.80318 10.7432 1.18674 14.0829 0.516349 17.0742C0.0953525 18.9531 0 19.8665 0 22.0219C0 24.1773 0.0953525 25.0906 0.516349 26.9696C1.20137 30.026 2.85997 33.4135 4.89809 35.9184C5.69387 36.8964 7.25488 38.4449 8.23156 39.2249C10.7009 41.1972 14.0411 42.8134 17.0327 43.4837C18.9119 43.9047 19.8254 44 21.9811 44C24.1368 44 25.0503 43.9047 26.9294 43.4837C29.1787 42.9797 32.1198 41.7231 34.0525 40.4402C37.4044 38.2152 39.9789 35.2876 41.7366 31.7021C43.1598 28.7987 43.8579 26.0367 43.9836 22.8109C44.184 17.6703 42.5438 12.6385 39.2947 8.42649C38.5688 7.48548 36.5194 5.43636 35.5783 4.71056C31.0318 1.20441 25.5596 -0.41137 19.9274 0.0891637ZM24.2959 17.5C29.3287 20.0163 30.9537 20.8662 31.0823 21.0495C31.5577 21.7267 31.5094 22.5289 30.9592 23.0954C30.7294 23.3319 29.1172 24.1758 24.2077 26.6292C18.0633 29.6996 17.7355 29.8521 17.2835 29.8521C17.0226 29.8521 16.7045 29.7975 16.5766 29.7307C16.2647 29.5677 15.9025 29.1753 15.7904 28.8785C15.6629 28.5414 15.6629 15.5024 15.7904 15.1652C16.0109 14.5816 16.5919 14.2006 17.2697 14.195C17.6387 14.192 18.3243 14.5145 24.2959 17.5Z" fill="#2E8899"/>
</svg>
