<svg width="35" height="26" viewBox="0 0 35 26" fill="none" xmlns="http://www.w3.org/2000/svg">
<path fill-rule="evenodd" clip-rule="evenodd" d="M12.6292 0.092595C12.292 0.239446 12.0829 0.548311 12.0289 0.979352C11.9497 1.61172 12.0497 3.74351 12.1996 4.61943L12.336 5.4156L6.95333 10.8047C1.32957 16.4352 1.21131 16.5646 0.802687 17.5362C0.42851 18.426 0.33174 18.917 0.33327 19.9183C0.334467 20.6734 0.363199 20.9552 0.485308 21.4086C1.08136 23.6221 2.74972 25.2377 5.0015 25.7819C5.69465 25.9494 6.9659 25.9347 7.70268 25.7507C8.42602 25.5701 9.2361 25.1945 9.78945 24.7832C10.0182 24.6132 10.2211 24.4741 10.2403 24.4741C10.2596 24.4741 10.4269 24.594 10.6123 24.7404C11.2952 25.2803 12.2142 25.69 13.1646 25.8783C13.8321 26.0106 28.6922 26.015 29.3896 25.8831C32.1856 25.3545 34.1852 23.0597 34.3262 20.2176C34.4441 17.8424 33.0705 15.5947 30.8716 14.5642C30.005 14.1582 29.3855 14.0328 28.0138 13.9861L26.8345 13.9459L27.2822 13.6291C28.7629 12.5814 30.0103 11.096 30.9112 9.30794C31.9807 7.18513 32.3263 5.34211 32.2741 2.04036C32.2504 0.542458 32.24 0.501755 31.7944 0.169412C31.6176 0.0375259 31.5281 0.0322717 29.4707 0.0322717C27.1599 0.0322717 26.653 0.082286 25.3024 0.443427C24.1825 0.742848 22.8076 1.34262 21.9075 1.92444C21.6804 2.07122 21.461 2.17165 21.4199 2.14771C21.3788 2.12376 21.1683 1.98536 20.9523 1.84017C19.6705 0.978754 17.8659 0.32737 16.1284 0.0989796C15.1484 -0.0298473 12.9195 -0.0339041 12.6292 0.092595ZM16.603 2.19253C17.4497 2.37058 18.2719 2.66368 19.0506 3.06506C19.3981 3.24423 19.7256 3.41862 19.7784 3.45267C19.8548 3.50182 19.778 3.61615 19.4043 4.00955C19.1457 4.28176 18.8657 4.59715 18.7819 4.71035L18.6298 4.91626L18.1775 4.4896C17.6746 4.01513 17.4169 3.91989 16.9859 4.04905C16.6777 4.14143 16.354 4.50849 16.3028 4.82394C16.2378 5.22439 16.3589 5.4579 16.9209 6.01664C17.2143 6.30835 17.4544 6.58136 17.4544 6.6234C17.4544 6.66536 17.346 6.93545 17.2136 7.2235C17.0811 7.51155 16.8632 8.0524 16.7291 8.42531L16.4855 9.10336L16.1824 8.7246C15.2341 7.53928 14.638 6.33408 14.299 4.91705C14.1493 4.29114 13.9959 2.9367 13.9959 2.24055V1.97405L14.9769 2.01549C15.5474 2.03956 16.2278 2.11365 16.603 2.19253ZM30.2904 2.77575C30.2901 3.88591 30.1761 5.23776 30.0262 5.9087C29.1585 9.791 26.4506 12.616 22.6584 13.5953C21.8575 13.8022 20.7454 13.9658 20.1407 13.9658H19.685L21.9616 11.6856L24.2382 9.40551V9.05528C24.2382 8.64885 24.1176 8.37782 23.8527 8.18921C23.6015 8.0103 23.358 7.95583 23.0572 8.01136C22.8413 8.0512 22.4924 8.37137 20.4228 10.4296L18.0373 12.8019L18.0757 11.904C18.1845 9.36494 19.3218 6.86702 21.206 5.02919C22.7752 3.49856 24.7212 2.50805 26.8321 2.16573C27.7614 2.01496 27.7602 2.01502 29.0767 2.00425L30.2905 1.99427L30.2904 2.77575ZM13.3666 8.09643C13.894 9.07417 14.4584 9.83815 15.2744 10.6788L16.054 11.4819L16.052 12.5474C16.0509 13.1334 16.07 13.6922 16.0943 13.7894L16.1386 13.9658L15.1836 13.9663C14.0208 13.967 13.1905 14.0544 12.5442 14.2442L12.0567 14.3873L10.5824 12.913L9.10813 11.4387L11.0694 9.47661C12.1481 8.39744 13.0357 7.51448 13.0417 7.51448C13.0478 7.51448 13.1939 7.77639 13.3666 8.09643ZM8.98516 14.176L10.2608 15.4503L9.85044 15.906C9.09383 16.7462 8.54541 17.8349 8.33684 18.9108C8.23667 19.4272 8.25649 20.6514 8.37388 21.2075C8.43095 21.4777 8.55392 21.8817 8.64716 22.1054C8.99454 22.9389 8.98895 22.8805 8.74114 23.0873C8.3798 23.389 7.59846 23.7384 7.03759 23.8492C5.32048 24.1882 3.5032 23.2892 2.72605 21.7164C2.14443 20.5393 2.1576 19.3261 2.76535 18.0893C3.03345 17.5438 3.12377 17.4429 5.33923 15.2128C6.60203 13.9417 7.652 12.9017 7.67242 12.9017C7.6929 12.9017 8.28363 13.4751 8.98516 14.176ZM20.2145 19.9848V23.9753L16.9555 23.9746C14.0496 23.9739 13.6503 23.9611 13.2691 23.8565C12.5044 23.6467 12.0123 23.3579 11.4339 22.7796C10.6133 21.9589 10.2676 21.1307 10.2676 19.9848C10.2676 18.9235 10.5926 18.079 11.2971 17.3097C11.9524 16.594 12.7517 16.1654 13.6887 16.0272C13.876 15.9996 15.4209 15.9809 17.1218 15.9857L20.2145 15.9943V19.9848ZM29.3865 16.1165C30.6768 16.4921 31.6627 17.4205 32.1162 18.6874C32.8428 20.7175 31.7227 23.0227 29.6567 23.7489C29.0406 23.9654 28.3359 24.0061 25.186 24.0074L22.243 24.0086V19.9804V15.9523L25.6183 15.9772C28.5641 15.999 29.0436 16.0167 29.3865 16.1165Z" fill="white"/>
</svg>
