<svg width="34" height="34" viewBox="0 0 34 34" fill="none" xmlns="http://www.w3.org/2000/svg">
<path fill-rule="evenodd" clip-rule="evenodd" d="M3.14281 1.08271C1.86038 1.44392 1 2.55782 1 3.85695C1 4.25055 1.15628 4.83283 1.35521 5.18028C1.45158 5.34857 3.18196 7.13392 5.65859 9.62036C8.22571 12.1977 9.8646 13.89 9.96847 14.071C10.0607 14.2315 10.1982 14.527 10.274 14.7276L10.4117 15.0923L10.443 23.0065L10.4743 30.9206L10.709 31.3954C11.2631 32.5164 12.4742 33.1572 13.666 32.9597C14.5105 32.8198 15.3199 32.2542 15.71 31.5314C16.0823 30.8416 16.0695 31.1797 16.0691 22.1276C16.0689 16.9845 16.0453 13.6789 16.0068 13.4128C15.9727 13.1769 15.8732 12.7689 15.7855 12.506C15.4386 11.4647 15.5167 11.5529 10.3882 6.4105C7.78714 3.80242 5.53708 1.58331 5.38805 1.47925C4.79852 1.06732 3.81439 0.893535 3.14281 1.08271ZM29.5453 1.07758C28.7795 1.26363 28.8937 1.1605 23.7305 6.32989C18.5961 11.4704 18.6067 11.4587 18.277 12.3568C17.9459 13.2589 17.9519 13.08 17.9496 22.0989C17.9472 31.2651 17.9305 30.8277 18.309 31.5347C18.6932 32.2523 19.5004 32.8184 20.3458 32.9632C21.6782 33.1914 23.0455 32.3358 23.4521 31.0195C23.5722 30.6305 23.5756 30.4117 23.5761 23.106C23.5764 18.3414 23.5998 15.4439 23.64 15.1861C23.6749 14.9621 23.8048 14.5691 23.9292 14.3106C24.146 13.8603 24.3232 13.6727 28.3593 9.62036C32.9708 4.99029 32.8083 5.17978 32.9681 4.24774C33.2996 2.31436 31.4616 0.611997 29.5453 1.07758ZM4.23876 2.98688C4.36633 3.05317 4.73105 3.37029 5.04917 3.69154L5.62757 4.27575L4.95299 4.94827L4.27835 5.62079L3.64285 4.97497C2.82938 4.14837 2.74239 3.93255 3.00435 3.39143C3.09591 3.20225 3.20766 3.08931 3.39521 2.99651C3.72202 2.83473 3.9409 2.83229 4.23876 2.98688ZM30.6924 3.03541C31.1134 3.34965 31.2427 3.80348 31.0289 4.21578C30.9589 4.35073 30.632 4.72808 30.3025 5.05439L29.7033 5.64768L29.0323 4.97666L28.3612 4.30558L28.9831 3.68135C29.3251 3.33808 29.6906 3.01333 29.7953 2.95974C30.0366 2.83623 30.4752 2.87319 30.6924 3.03541ZM13.8146 12.669C14.2151 13.4726 14.1982 13.0327 14.1802 22.1826C14.164 30.4713 14.1635 30.499 14.035 30.6711C13.6074 31.2438 12.8812 31.2718 12.4774 30.7311C12.3517 30.5627 12.35 30.4788 12.3176 22.7641L12.2848 14.9672L12.1442 14.4669C11.9638 13.8254 11.7008 13.2659 11.3535 12.7851C11.2018 12.5751 9.85165 11.1794 8.35309 9.68353L5.62844 6.96388L6.30034 6.28986L6.97216 5.61591L10.296 8.94704C13.1845 11.8419 13.6452 12.3294 13.8146 12.669ZM25.5855 9.7757C24.0424 11.324 22.6953 12.7175 22.5919 12.8723C22.2851 13.3319 22.0125 13.9175 21.8685 14.4267C21.734 14.9021 21.7331 14.9472 21.7008 22.7328C21.6686 30.4791 21.667 30.5627 21.5412 30.7311C21.1375 31.2718 20.4112 31.2438 19.9837 30.6711C19.8552 30.499 19.8547 30.4696 19.8369 22.2325C19.8244 16.4231 19.8396 13.8458 19.8881 13.5602C20.0443 12.6382 20.0148 12.6738 23.695 8.97893L27.0435 5.61716L27.7173 6.28886L28.3911 6.96057L25.5855 9.7757ZM2.96908 11.7966C1.42487 12.3305 0.628159 13.9578 1.18379 15.4429C1.3951 16.0078 1.61417 16.2782 2.85633 17.5075C4.09318 18.7315 4.34188 18.9118 5.04567 19.0951C6.32241 19.4277 7.62867 18.8043 8.23978 17.5709C8.44177 17.1632 8.47085 17.0441 8.49324 16.5325C8.52157 15.8845 8.41901 15.4179 8.14241 14.9368C7.94436 14.5921 5.98659 12.5848 5.48105 12.208C5.2683 12.0495 4.94523 11.883 4.70835 11.8098C4.19098 11.65 3.41009 11.644 2.96908 11.7966ZM29.323 11.7993C29.1306 11.8628 28.821 12.0158 28.6351 12.1393C28.1953 12.4315 26.0817 14.5715 25.873 14.936C25.4404 15.6908 25.3895 16.7505 25.7489 17.518C26.3344 18.7683 27.6871 19.4301 28.973 19.0951C29.6768 18.9118 29.9255 18.7315 31.1623 17.5075C31.8094 16.867 32.421 16.2193 32.5213 16.0682C33.4882 14.6114 32.9645 12.6971 31.3927 11.9427C30.9639 11.7369 30.87 11.7161 30.2983 11.7008C29.8233 11.688 29.5888 11.7117 29.323 11.7993ZM4.23939 13.6497C4.44163 13.757 6.46012 15.7841 6.55905 15.9793C6.65692 16.1724 6.64491 16.5984 6.53572 16.8096C6.41077 17.0513 6.16125 17.2379 5.89673 17.2875C5.45109 17.3711 5.28987 17.2608 4.08492 16.0481C2.88335 14.8388 2.79592 14.7066 2.90473 14.2641C3.04557 13.6914 3.72671 13.3778 4.23939 13.6497ZM30.6398 13.6527C31.0115 13.8449 31.2016 14.2667 31.1105 14.6966C31.0474 14.9941 28.8989 17.1612 28.569 17.2601C28.14 17.3886 27.6847 17.1997 27.4829 16.8096C27.3654 16.5824 27.364 16.1677 27.4799 15.949C27.5803 15.7599 29.6028 13.7382 29.798 13.632C29.9784 13.5338 30.4315 13.545 30.6398 13.6527Z" fill="white" stroke="#00A7B5" stroke-width="0.5"/>
</svg>
