<svg width="26" height="32" viewBox="0 0 26 32" fill="none" xmlns="http://www.w3.org/2000/svg">
<path fill-rule="evenodd" clip-rule="evenodd" d="M2.21832 0.0737978C1.57999 0.27416 1.11786 0.680581 0.829676 1.29494L0.66687 1.64208V3.426V5.20992L0.829676 5.55706C1.11923 6.17436 1.59188 6.58836 2.21832 6.77326L2.48209 6.85119L2.51338 18.0798L2.54468 29.3085L2.68583 29.679C3.09087 30.7426 3.85602 31.5015 4.88005 31.8553L5.2988 32H12.8413H20.3839L20.8026 31.8553C21.8267 31.5015 22.5918 30.7426 22.9968 29.679L23.138 29.3085L23.1693 18.0798L23.2006 6.85119L23.4643 6.77326C24.0908 6.58836 24.5634 6.17436 24.853 5.55706L25.0158 5.20992V3.42469V1.63945L24.8117 1.22502C24.5743 0.742611 24.2349 0.411616 23.7401 0.179581L23.3884 0.0146468L12.9352 0.00281658C4.41454 -0.00682284 2.43333 0.00625923 2.21832 0.0737978ZM4.39119 2.42701C4.39119 3.12424 4.51663 3.42231 4.89031 3.61297C5.20316 3.77258 5.45704 3.77258 5.76988 3.61297C6.14356 3.42231 6.269 3.12424 6.269 2.42701V1.86116H7.20791H8.14681V2.42701C8.14681 2.87054 8.17404 3.04618 8.27281 3.23985C8.41452 3.51758 8.77512 3.73897 9.08571 3.73897C9.3963 3.73897 9.75691 3.51758 9.89862 3.23985C9.99739 3.04618 10.0246 2.87054 10.0246 2.42701V1.86116H10.9635H11.9024V2.42701C11.9024 3.12424 12.0279 3.42231 12.4016 3.61297C12.7144 3.77258 12.9683 3.77258 13.2811 3.61297C13.6548 3.42231 13.7802 3.12424 13.7802 2.42701V1.86116H14.7191H15.658V2.42701C15.658 3.12424 15.7835 3.42231 16.1572 3.61297C16.47 3.77258 16.7239 3.77258 17.0367 3.61297C17.4104 3.42231 17.5359 3.12424 17.5359 2.42701V1.86116H18.4748H19.4137V2.42701C19.4137 3.12424 19.5391 3.42231 19.9128 3.61297C20.2256 3.77258 20.4795 3.77258 20.7924 3.61297C21.166 3.42231 21.2915 3.12424 21.2915 2.42701V1.86116H22.132C22.8127 1.86116 22.9913 1.87987 23.0709 1.95949C23.2179 2.10646 23.2179 4.74554 23.0709 4.89251C22.9823 4.98108 21.9681 4.99084 12.8413 4.99084C3.71455 4.99084 2.70035 4.98108 2.61172 4.89251C2.46475 4.74554 2.46475 2.10646 2.61172 1.95949C2.6914 1.87987 2.86998 1.86116 3.55062 1.86116H4.39119V2.42701ZM21.2915 10.9372V15.0058H17.2229H13.1543V13.5011C13.1543 12.1165 13.1442 11.9766 13.0283 11.7493C12.9472 11.5903 12.8142 11.4573 12.6552 11.3762C12.4153 11.2538 12.2936 11.2502 8.39969 11.2502H4.39119V9.05943V6.86865H12.8413H21.2915V10.9372ZM11.2765 18.4485V23.7689H7.83384H4.39119V22.5171V21.2652H6.52188C8.53376 21.2652 8.66634 21.2582 8.89956 21.1392C9.17729 20.9975 9.39868 20.6369 9.39868 20.3263C9.39868 20.0157 9.17729 19.6551 8.89956 19.5134C8.66634 19.3944 8.53376 19.3874 6.52188 19.3874H4.39119V18.4485V17.5096H6.52188C8.53376 17.5096 8.66634 17.5026 8.89956 17.3836C9.17729 17.2419 9.39868 16.8813 9.39868 16.5707C9.39868 16.2601 9.17729 15.8995 8.89956 15.7578C8.66634 15.6388 8.53376 15.6318 6.52188 15.6318H4.39119V14.3799V13.128H7.83384H11.2765V18.4485ZM21.2915 22.8502C21.2915 29.5643 21.3169 29.1924 20.8236 29.6857C20.3258 30.1836 20.839 30.1535 12.8413 30.1535C4.84362 30.1535 5.35689 30.1836 4.85902 29.6857C4.42818 29.2549 4.39119 29.0607 4.39119 27.2317V25.6467H8.39969C12.2936 25.6467 12.4153 25.6431 12.6552 25.5207C12.8142 25.4396 12.9472 25.3067 13.0283 25.1476C13.1507 24.9077 13.1543 24.786 13.1543 20.8921V16.8836H17.2229H21.2915V22.8502Z" fill="#00A7B5"/>
</svg>
