<svg width="32" height="36" viewBox="0 0 32 36" fill="none" xmlns="http://www.w3.org/2000/svg">
<path fill-rule="evenodd" clip-rule="evenodd" d="M15.6332 1.07264C15.3846 1.17441 15.2235 1.4144 15.2235 1.68285C15.2235 1.86469 15.3385 2.13113 15.6219 2.60614C16.2952 3.73449 16.5904 4.48349 17.0022 6.10777C17.4963 8.05699 18.1363 9.23565 19.2969 10.3342C20.0255 11.0239 20.6448 11.3477 21.8143 11.6504C22.8178 11.9101 23.2216 12.0988 23.5897 12.4804C23.9143 12.8169 24.1046 13.2363 24.2464 13.9276C24.3738 14.5489 24.4906 14.7495 24.7995 14.8774C24.9995 14.9603 25.0592 14.9559 25.2685 14.8432C25.6321 14.6474 25.7599 14.3176 25.6595 13.8339C25.5304 13.2119 25.1785 12.5965 24.6172 12.0112L24.1045 11.4764L25.0406 11.0147C26.4004 10.344 26.9286 10.1809 27.6135 10.2203C28.3085 10.2604 28.8677 10.5235 29.5629 11.1378C29.9611 11.4897 30.0987 11.5702 30.3021 11.5702C30.633 11.5702 30.8808 11.398 30.9792 11.0998C31.0893 10.7666 30.9247 10.4365 30.4436 10.0255C30.1068 9.73776 29.3592 9.24578 29.1549 9.17743C29.1102 9.16248 29.3212 8.90488 29.6241 8.60495C30.4507 7.78602 31.1198 6.53635 31.017 6.00341C30.9509 5.66136 30.7119 5.46061 30.3728 5.46248C29.9788 5.46464 29.796 5.62715 29.6066 6.1437C29.1513 7.38532 27.8614 8.49851 26.4706 8.85004C26.1629 8.92781 25.4073 9.23327 24.7915 9.52889C23.3986 10.1975 22.7708 10.3526 21.9957 10.2197C20.8205 10.0182 19.835 9.18303 19.1369 7.7968C18.8094 7.1467 18.6687 6.73788 18.3233 5.43287C17.8934 3.80845 17.3938 2.64388 16.6631 1.56347C16.2947 1.01866 16.0499 0.902083 15.6332 1.07264ZM11.177 1.14451C10.9367 1.24291 10.7681 1.48541 10.7607 1.74322C10.7557 1.92068 10.8677 2.17856 11.1691 2.68362C12.8955 5.57676 13.2456 8.63428 12.3183 12.7202C12.2152 13.1748 12.1081 13.5887 12.0804 13.64C12.0477 13.7002 11.9007 13.5218 11.6643 13.135C10.5429 11.2997 8.83877 9.55858 6.83255 8.19807C6.22126 7.78358 6.03001 7.68899 5.80281 7.68899C5.25571 7.68899 4.91021 8.31523 5.21625 8.75215C5.27821 8.84063 5.57735 9.07968 5.88108 9.28337C6.79281 9.89487 8.11263 10.9585 8.17868 11.1351C8.18996 11.1651 7.96198 11.2077 7.67211 11.2296C6.61089 11.3098 5.42526 11.8523 4.60504 12.6328C4.21059 13.0081 4.16926 13.0753 4.16926 13.3413C4.16926 13.7127 4.3795 13.9929 4.70386 14.0537C4.99833 14.109 5.16134 14.0277 5.67862 13.5679C6.12078 13.1748 6.62189 12.9059 7.19738 12.7527C7.71423 12.6152 8.76661 12.62 9.27361 12.7622C9.67013 12.8735 9.69004 12.8917 10.1196 13.5349C10.3616 13.8972 10.74 14.5592 10.9604 15.006L11.3613 15.8185L10.5331 18.3841C9.68846 21.0005 9.37847 22.0894 9.09687 23.4292L8.93824 24.1838L8.09883 24.4096C7.63718 24.5337 6.95474 24.7404 6.58229 24.8688L5.90509 25.1022L5.44733 24.8131C4.36656 24.1306 3.07786 23.5997 2.00967 23.3971C1.11549 23.2275 0.837693 23.2461 0.559756 23.4944C0.362462 23.6707 0.327316 23.7501 0.334 24.0049C0.346938 24.4992 0.543369 24.6341 1.37646 24.7204C2.19496 24.8053 3.05321 25.0621 3.8413 25.4579C4.33766 25.7072 4.39373 25.7541 4.27255 25.818C3.05299 26.4617 1.82898 27.3623 0.988843 28.2341C0.417949 28.8266 0.359947 28.9126 0.359947 29.1663C0.359947 29.5702 0.614093 29.8262 1.01508 29.8262C1.30185 29.8262 1.35741 29.7874 2.0786 29.0851C3.70949 27.4968 5.84515 26.3923 8.91294 25.5505C9.84967 25.2935 10.0746 25.1856 10.213 24.9269C10.2487 24.8602 10.3443 24.4555 10.4255 24.0277C10.739 22.3761 11.3404 20.2824 12.4348 17.0326C13.4116 14.1319 13.7832 12.7396 14.0654 10.9233C14.2423 9.78534 14.2406 7.36304 14.0622 6.39526C13.7876 4.90503 13.3223 3.61295 12.5705 2.2536C11.9677 1.16327 11.6835 0.937158 11.177 1.14451ZM16.9845 11.9241C16.7448 12.0728 16.7215 12.1297 16.4964 13.1155C16.3255 13.8643 16.0275 14.8624 15.166 17.5717C13.9717 21.3273 13.6115 22.6616 13.2834 24.5436C13.1419 25.3561 13.1207 25.726 13.1208 27.3824C13.1209 29.4796 13.1855 29.9611 13.6684 31.4686C14.1341 32.9223 15.0233 34.6329 15.4394 34.8753C15.7678 35.0666 16.0752 35.0372 16.3215 34.791C16.6336 34.4788 16.6076 34.1732 16.2117 33.4977C14.9922 31.4177 14.4424 29.175 14.541 26.6825C14.5633 26.1195 14.6006 25.6281 14.624 25.5903C14.6698 25.5163 15.3777 25.7569 16.0105 26.0614C16.5429 26.3177 17.1117 26.8626 17.346 27.3409C17.5541 27.7661 17.6488 28.1815 17.7222 28.9917C17.7784 29.6128 17.9523 29.8262 18.4025 29.8262C18.6342 29.8262 18.7447 29.7803 18.9089 29.6161C19.1032 29.4218 19.119 29.3664 19.1178 28.8794C19.1167 28.4214 19.0358 27.884 18.8709 27.2387L18.825 27.059L19.6368 27.058C20.5571 27.0569 21.0159 26.9633 21.7537 26.6265C22.3288 26.3641 22.4252 26.2418 22.4252 25.7752C22.4252 25.5089 22.3907 25.4252 22.2285 25.2975C21.9786 25.1009 21.5996 25.1319 20.844 25.4104C20.3869 25.5788 20.1903 25.6097 19.5503 25.6131C19.0464 25.6158 18.6165 25.573 18.2565 25.4843C17.7283 25.3542 17.5883 25.2955 16.5675 24.7758C16.2908 24.6349 15.7664 24.429 15.4021 24.3182C14.8208 24.1414 14.7436 24.099 14.7707 23.9707C15.0297 22.7464 15.5322 20.9693 16.1771 18.9971C16.9996 16.4817 17.7018 14.1305 17.7876 13.6036C17.8355 13.3099 17.8436 13.3023 18.0647 13.3435C18.447 13.4148 19.3567 13.7845 19.7261 14.0188C20.5994 14.5726 21.2625 15.4288 21.5311 16.3498C21.6922 16.9018 21.9612 17.1763 22.3411 17.1763C22.7409 17.1763 23.0209 16.8674 23.0122 16.4359C23.0039 16.0209 22.6572 15.0794 22.3168 14.5472C21.9789 14.0189 21.2988 13.341 20.7362 12.9717C19.9388 12.4482 18.5438 11.9423 17.5737 11.8249C17.2881 11.7903 17.1672 11.8107 16.9845 11.9241ZM8.23014 28.4947C6.65725 28.7856 5.37969 29.3111 4.07734 30.2032C3.40575 30.6631 2.25835 31.7404 2.0152 32.1393C1.68149 32.6866 1.98631 33.233 2.62527 33.233C2.84125 33.233 2.95618 33.1444 3.60937 32.4743C4.65542 31.4013 5.5928 30.776 6.83471 30.3228C7.52966 30.0692 8.49255 29.8274 8.81066 29.8267C9.02715 29.8262 9.03369 29.8364 9.12023 30.3113C9.37279 31.6972 10.5549 34.3398 11.1218 34.7857C11.3868 34.9942 11.6866 34.9697 11.9372 34.7191C12.2413 34.415 12.2227 34.0939 11.8686 33.5332C11.0828 32.2889 10.5024 30.671 10.3135 29.1977C10.2788 28.9272 10.2082 28.7598 10.0634 28.6047C9.8708 28.3987 9.83552 28.389 9.29739 28.3951C8.98711 28.3987 8.50685 28.4435 8.23014 28.4947Z" fill="#FEFEFE" stroke="#FEFEFE" stroke-width="0.5"/>
</svg>
