<svg width="40" height="46" viewBox="0 0 40 46" fill="none" xmlns="http://www.w3.org/2000/svg">
<rect width="40" height="40" fill="#00A7B5"/>
<path fill-rule="evenodd" clip-rule="evenodd" d="M12.781 9.60752V10.215L10.777 10.2286L8.77305 10.2422L8.55882 10.3682C8.31609 10.5109 8.12489 10.7633 8.05059 11.0391C7.9837 11.2877 7.9829 14.4983 8.04965 14.9783C8.21573 16.1725 8.73761 17.24 9.55897 18.0657C10.3585 18.8694 11.2386 19.3514 12.3514 19.5948C12.5664 19.6418 12.7521 19.6902 12.7643 19.7023C12.7764 19.7145 12.8066 19.9927 12.8315 20.3206C12.9353 21.6932 13.3744 22.9247 14.1555 24.0343C14.5287 24.5645 15.3143 25.3489 15.8514 25.7276C16.4037 26.1171 17.2219 26.5176 17.8788 26.7199C18.1688 26.8092 18.4061 26.9036 18.4061 26.9297C18.4061 26.9557 18.2254 27.5191 18.0046 28.1817L17.603 29.3864L16.093 29.4005L14.5829 29.4146L14.3503 29.5344C13.9607 29.735 13.8808 29.8871 13.3289 31.48C13.0524 32.2776 12.8266 32.9461 12.827 32.9655C12.8281 33.0115 27.1718 33.0115 27.1728 32.9655C27.1732 32.9461 26.9474 32.2776 26.671 31.48C26.119 29.8871 26.0391 29.735 25.6495 29.5344L25.4169 29.4146L23.9069 29.4005L22.3968 29.3864L21.9953 28.1817C21.7744 27.5191 21.5937 26.9557 21.5937 26.9297C21.5937 26.9036 21.831 26.8092 22.1211 26.7199C22.7779 26.5176 23.5962 26.1171 24.1485 25.7276C24.6856 25.3489 25.4712 24.5645 25.8444 24.0343C26.6255 22.9247 27.0645 21.6932 27.1684 20.3206C27.1932 19.9927 27.2235 19.7145 27.2356 19.7023C27.2477 19.6902 27.4335 19.6418 27.6484 19.5948C28.1965 19.4749 28.6676 19.3021 29.1333 19.0503C29.6754 18.7572 29.9842 18.5247 30.4409 18.0657C31.2622 17.24 31.7841 16.1725 31.9502 14.9783C32.0169 14.4983 32.0161 11.2877 31.9493 11.0391C31.875 10.7633 31.6837 10.5109 31.441 10.3682L31.2268 10.2422L29.2228 10.2286L27.2189 10.215V9.60752V9H19.9999H12.781V9.60752ZM12.781 14.9349V17.2604L12.6521 17.2288C12.4055 17.1684 11.865 16.8688 11.5629 16.6251C11.0786 16.2342 10.732 15.7191 10.5168 15.0705C10.4377 14.8318 10.4204 14.6241 10.4026 13.6993L10.3815 12.6095H11.5812H12.781V14.9349ZM29.5991 13.6993C29.5809 14.7262 29.5726 14.8109 29.4552 15.1642C29.1799 15.9933 28.6202 16.6649 27.9168 17.0106C27.7005 17.1168 27.455 17.2169 27.3712 17.2328L27.2189 17.2619V14.9357V12.6095H28.4186H29.6183L29.5991 13.6993ZM20.1862 14.215C20.2697 14.4019 20.5069 14.9289 20.7132 15.3861L21.0884 16.2175L22.3286 16.2299L23.5688 16.2424L22.6984 17.402C22.2197 18.0397 21.8281 18.5941 21.8281 18.6339C21.8281 18.6737 21.9555 19.2146 22.1112 19.8358C22.2669 20.4571 22.3882 20.9703 22.3808 20.9762C22.3733 20.9822 21.8345 20.6932 21.1835 20.3338L19.9999 19.6806L18.8163 20.3338C18.1653 20.6932 17.6266 20.9822 17.6191 20.9762C17.6116 20.9703 17.7329 20.4571 17.8886 19.8358C18.0443 19.2146 18.1717 18.6737 18.1717 18.6339C18.1717 18.5941 17.7801 18.0397 17.3014 17.402L16.431 16.2424L17.6712 16.2299L18.9115 16.2175L19.2866 15.3861C19.493 14.9289 19.7301 14.4019 19.8137 14.215C19.8973 14.0281 19.981 13.8751 19.9999 13.8751C20.0188 13.8751 20.1026 14.0281 20.1862 14.215Z" fill="#FEFEFE"/>
<path fill-rule="evenodd" clip-rule="evenodd" d="M20.1868 14.215C20.2703 14.4019 20.5075 14.9289 20.7139 15.3861L21.089 16.2174L22.3292 16.2299L23.5695 16.2424L22.6991 17.402C22.2204 18.0397 21.8287 18.5941 21.8287 18.6339C21.8287 18.6737 21.9562 19.2146 22.1119 19.8358C22.2676 20.4571 22.3889 20.9703 22.3814 20.9762C22.3739 20.9822 21.8352 20.6931 21.1842 20.3338L20.0006 19.6806L18.8169 20.3338C18.166 20.6931 17.6272 20.9822 17.6197 20.9762C17.6123 20.9703 17.7336 20.4571 17.8893 19.8358C18.045 19.2146 18.1724 18.6737 18.1724 18.6339C18.1724 18.5941 17.7807 18.0397 17.302 17.402L16.4316 16.2424L17.6719 16.2299L18.9121 16.2174L19.2873 15.3861C19.4936 14.9289 19.7308 14.4019 19.8143 14.215C19.8979 14.0281 19.9817 13.8751 20.0006 13.8751C20.0195 13.8751 20.1032 14.0281 20.1868 14.215Z" fill="#00A7B5"/>
<path d="M0 40H40L20 46L0 40Z" fill="#00A7B5"/>
</svg>
