<svg width="151" height="32" viewBox="0 0 151 32" fill="none" xmlns="http://www.w3.org/2000/svg">
<path fill-rule="evenodd" clip-rule="evenodd" d="M42.6932 28.5665C42.6932 29.1295 42.6932 29.8648 42.6932 30.8593C46.1298 30.8589 49.5689 30.8835 53.007 30.8835C54.2545 30.8835 56.0176 30.8794 56.9573 29.8605C57.8469 28.8962 57.8804 28.4492 57.8993 27.3713C57.9305 25.5292 57.9892 24.297 55.8634 23.5712V23.4877C57.4797 22.9726 57.4296 21.7026 57.4296 20.2744C57.4296 19.3139 57.2746 18.7874 56.4692 17.9475C55.6321 17.0758 53.7757 16.9716 52.7362 16.9716C49.3884 16.9716 46.0391 16.9716 42.693 16.9716C42.693 20.8366 42.693 24.7015 42.693 28.5665H42.6932ZM85.4752 15.4078C86.9516 15.4078 88.3368 15.7966 89.5366 16.478C89.5567 16.4894 89.8912 16.7127 89.9112 16.7239C87.8198 18.4382 80.4065 24.5157 77.7712 26.7066C77.4111 25.7751 77.2128 24.763 77.2128 23.7038C77.2128 19.1227 80.913 15.4078 85.4754 15.4078H85.4752ZM90.6275 17.2187C90.8081 17.364 90.9835 17.5168 91.1516 17.6767C91.2924 17.8109 91.4289 17.9495 91.5602 18.0931L84.5662 31.9768C84.5244 31.984 83.9226 31.8541 83.8903 31.8477C81.3651 31.3547 79.2504 29.7065 78.1136 27.4732C82.2863 24.0555 88.5508 18.92 90.6273 17.2189L90.6275 17.2187ZM92.1443 18.8064C93.1461 20.1787 93.7384 21.8723 93.7384 23.7038C93.7384 28.2854 90.0383 32 85.4754 32H85.4698L92.1445 18.8064H92.1443ZM115.527 30.817C115.527 29.946 115.533 27.5534 115.533 26.1198H115.528C115.536 23.3645 115.579 20.252 115.533 18.4852C115.503 17.347 115.227 17.0066 114.161 16.9843C113.923 16.9843 113.445 16.9779 113.039 17.0315C112.64 17.0731 112.511 17.1452 112.289 17.4255L109.417 21.0506L106.311 24.8761C104.22 22.3017 102.347 20.0534 100.298 17.4673C100.076 17.1877 99.9467 17.1148 99.5477 17.0733C99.142 17.0195 98.649 17.0261 98.4112 17.0261C97.5807 17.0114 97.0591 17.3298 97.052 18.7789C97.0429 20.547 97.0508 23.4057 97.0591 26.162H97.0547C97.0542 27.5952 97.0674 29.9458 97.0674 30.8168C98.1297 30.8163 98.9539 30.8163 100.389 30.8168C100.389 28.4099 100.388 24.8666 100.389 22.5088C101.073 23.3253 101.975 24.3985 102.661 25.2132L105.142 28.1708C105.449 28.5648 106.981 28.7753 107.473 28.1708C109.014 26.2747 110.698 24.2286 112.207 22.4299C112.207 24.7877 112.207 28.4099 112.207 30.817C113.176 30.8165 114.55 30.8165 115.528 30.817H115.527H115.527ZM39.6708 30.859C40.3092 30.6428 40.4492 30.0937 40.4492 29.5232C40.4492 29.1027 40.3871 28.5203 39.6708 28.1682H28.9954V25.0547C31.915 25.0547 34.8342 25.0547 37.7541 25.0547C38.4296 24.8931 38.5715 24.217 38.5715 23.7949C38.5715 23.3721 38.5084 22.7603 37.7541 22.5664H28.9954V19.5389C32.5329 19.5389 36.0708 19.5389 39.6084 19.5389C40.4018 19.2118 40.4413 18.6869 40.4744 18.2432C40.5079 17.8 40.2402 17.1417 39.5957 16.9714C34.9555 16.9714 30.3147 16.9714 25.6738 16.9714C25.6738 21.6005 25.6738 26.23 25.6738 30.8595C30.3395 30.8584 35.0057 30.8591 39.671 30.8591L39.6708 30.859ZM132.433 30.8594C133.072 30.6433 133.212 30.0942 133.212 29.5233C133.212 29.1027 133.149 28.5204 132.433 28.1683H121.758V25.0548C124.678 25.0548 127.597 25.0548 130.517 25.0548C131.193 24.8934 131.334 24.2174 131.334 23.795C131.334 23.3722 131.271 22.7604 130.517 22.5665H121.758V19.539C125.296 19.539 128.833 19.539 132.371 19.539C133.165 19.2115 133.204 18.6866 133.237 18.2432C133.271 17.7997 133.003 17.1418 132.359 16.9715C127.718 16.9715 123.078 16.9715 118.437 16.9715C118.437 21.6002 118.437 26.2301 118.437 30.8592C123.102 30.8581 127.768 30.8592 132.434 30.8592L132.433 30.8594ZM134.986 30.9006L144.929 30.8958C147.105 30.8946 148.413 30.9056 149.776 29.4119C150.69 28.4094 150.649 26.5414 150.649 23.8246C150.649 21.4078 150.722 19.4615 149.674 18.2856C148.404 16.8599 146.297 16.9707 144.547 16.9707L134.991 16.9718L134.986 30.9008H134.986L134.986 30.9006ZM138.356 19.7816L139.832 19.7772C142.085 19.7712 145.756 19.5191 146.597 20.2646C147.437 21.0094 147.382 22.4074 147.354 24.4767C147.328 26.4544 147.27 26.9192 146.744 27.5297C145.961 28.4384 141.245 28.1386 140.101 28.1382L138.351 28.137L138.356 19.7819H138.356V19.7816ZM63.5716 30.8594V26.7513H71.0715C71.7648 26.7513 72.8098 26.1539 73.4086 25.6373C74.4883 24.707 74.5782 22.4304 74.5301 21.3547C74.4469 19.5058 73.9867 18.7214 73.3874 18.0776C72.6732 17.311 71.3519 16.944 70.3302 16.9456C66.9493 16.9504 63.5664 16.9717 60.1859 16.9717C60.1859 21.3326 60.1859 26.4994 60.1859 30.8598C61.3133 30.8598 62.4431 30.8593 63.5714 30.8598V30.8593L63.5716 30.8594ZM63.5607 24.0436V20.5363L63.5562 19.7851H66.5538C67.0282 19.7851 69.3014 19.7416 69.7504 19.801C70.2563 19.8687 71.226 20.3106 71.1956 22.0002C71.1644 23.7221 70.1546 23.8702 69.6487 23.9493C69.1516 24.0272 67.028 24.0438 66.5174 24.0438H63.5609L63.5607 24.0436ZM45.9988 28.2621V25.1165L53.285 25.1205C54.16 25.1213 54.6183 25.5177 54.6406 26.722C54.6662 28.0997 53.6547 28.2443 53.3062 28.2451L45.9994 28.2621H45.9989L45.9988 28.2621ZM45.9988 22.5795V19.6347L52.8029 19.6386C53.6778 19.6386 54.0922 20.2689 54.0922 21.1898C54.0922 22.2172 53.1731 22.5791 52.8237 22.5791H45.9988V22.5796V22.5795Z" fill="#13A8B6"/>
<path fill-rule="evenodd" clip-rule="evenodd" d="M25.5945 10.1546V8.14968H26.1083C26.3551 8.14968 26.5483 8.04431 26.6856 7.83415C26.8236 7.624 26.9569 7.10178 27.0853 6.26559C27.2135 5.43056 27.3204 4.19608 27.4059 2.56333L27.5199 0.128418H35.2659V10.1546H33.2548V2.01889H29.4035L29.3748 2.76363C29.2797 4.74962 29.1279 6.26114 28.9183 7.29725C28.7089 8.33336 28.402 9.06824 27.9978 9.50248C27.5937 9.93711 27.0212 10.1542 26.2791 10.1542H25.5938L25.5945 10.1547L25.5945 10.1546Z" fill="#B386BA"/>
<path fill-rule="evenodd" clip-rule="evenodd" d="M42.1143 2.2478L40.2748 6.43032H43.955L42.1147 2.2478H42.1142H42.1143ZM38.6192 10.1546H36.4941L40.9879 0.128418H43.2417L47.7355 10.1546H45.6096L44.7968 8.32117H39.4333L38.6198 10.1546H38.6192H38.6192Z" fill="#B386BA"/>
<path fill-rule="evenodd" clip-rule="evenodd" d="M54.6102 5.77178H50.9726V8.26451H54.6102C55.1906 8.26451 55.609 8.16629 55.866 7.97044C56.1231 7.77478 56.2514 7.45731 56.2514 7.01824C56.2514 6.57917 56.1231 6.2617 55.866 6.06604C55.609 5.87038 55.1906 5.77197 54.6102 5.77197V5.77178ZM54.7384 10.155H48.9609V0.128784H57.4202V2.01925H50.9722V3.896H54.7384C55.9652 3.896 56.8571 4.14154 57.4134 4.63398C57.9697 5.12564 58.2482 5.92104 58.2482 7.01824C58.2482 8.1166 57.9697 8.91393 57.4134 9.41004C56.8571 9.90692 55.9656 10.1548 54.7384 10.1548V10.155Z" fill="#B386BA"/>
<path fill-rule="evenodd" clip-rule="evenodd" d="M62.1563 2.65668C61.6615 3.17695 61.4146 4.00561 61.4146 5.14148C61.4146 6.2785 61.6615 7.10368 62.1563 7.61989C62.6504 8.13572 63.4445 8.39344 64.5385 8.39344C65.6316 8.39344 66.4261 8.13572 66.9206 7.61989C67.4151 7.10406 67.6623 6.2785 67.6623 5.14148C67.6623 4.00561 67.4155 3.17695 66.9206 2.65668C66.4265 2.1364 65.6316 1.87558 64.5385 1.87558C63.4445 1.87558 62.6504 2.13601 62.1563 2.65668ZM64.5387 0C66.3265 0 67.6277 0.405818 68.4404 1.21746C69.2532 2.0291 69.6601 3.33684 69.6601 5.14148C69.6601 6.93663 69.2532 8.24303 68.4404 9.05911C67.6277 9.8752 66.3265 10.2837 64.5387 10.2837C62.7413 10.2837 61.4381 9.8752 60.6305 9.05911C59.8214 8.24303 59.418 6.93663 59.418 5.14148C59.418 3.33684 59.8214 2.0291 60.6305 1.21746C61.4381 0.405818 62.7413 0 64.5387 0Z" fill="#B386BA"/>
<path fill-rule="evenodd" clip-rule="evenodd" d="M73.2982 4.95513H76.2512C76.8218 4.95513 77.2375 4.83797 77.4992 4.60404C77.7611 4.37048 77.8916 3.99521 77.8916 3.47957C77.8916 2.9736 77.7615 2.60374 77.4992 2.36941C77.2377 2.13548 76.8218 2.0187 76.2512 2.0187H73.2982V4.95513ZM71.2871 10.1546V0.128418H76.3652C77.6015 0.128418 78.4978 0.393292 79.0545 0.923044C79.6108 1.45318 79.8892 2.30523 79.8892 3.47957C79.8892 4.65391 79.6108 5.50867 79.0545 6.04364C78.4978 6.57822 77.6015 6.84542 76.3652 6.84542H73.2982V10.1544H71.2871V10.1546Z" fill="#B386BA"/>
<path fill-rule="evenodd" clip-rule="evenodd" d="M85.2801 2.2478L83.4406 6.43032H87.1208L85.2805 2.2478H85.2801H85.2801ZM81.7852 10.1546H79.6602L84.1539 0.128418H86.4074L90.9011 10.1546H88.7752L87.9625 8.32117H82.599L81.7854 10.1546H81.7852Z" fill="#B386BA"/>
<path fill-rule="evenodd" clip-rule="evenodd" d="M89.9746 2.01928V0.128418H99.7463V2.01928H95.8657V10.1546H93.8548V2.01928H89.9746Z" fill="#B386BA"/>
<path fill-rule="evenodd" clip-rule="evenodd" d="M103.071 2.65668C102.576 3.17695 102.329 4.00561 102.329 5.14148C102.329 6.2785 102.576 7.10368 103.071 7.61989C103.565 8.13572 104.359 8.39344 105.453 8.39344C106.546 8.39344 107.34 8.13572 107.835 7.61989C108.329 7.10406 108.577 6.2785 108.577 5.14148C108.577 4.00561 108.33 3.17695 107.835 2.65668C107.341 2.1364 106.546 1.87558 105.453 1.87558C104.359 1.87558 103.565 2.13601 103.071 2.65668ZM105.453 0C107.241 0 108.542 0.405818 109.354 1.21746C110.167 2.0291 110.574 3.33684 110.574 5.14148C110.574 6.93663 110.167 8.24303 109.354 9.05911C108.541 9.8752 107.241 10.2837 105.453 10.2837C103.655 10.2837 102.352 9.8752 101.545 9.05911C100.735 8.24303 100.332 6.93663 100.332 5.14148C100.332 3.33684 100.735 2.0291 101.545 1.21746C102.352 0.405818 103.655 0 105.453 0Z" fill="#B386BA"/>
<path fill-rule="evenodd" clip-rule="evenodd" d="M114.21 4.95513H117.163C117.734 4.95513 118.15 4.83797 118.411 4.60404C118.673 4.37048 118.804 3.99521 118.804 3.47957C118.804 2.9736 118.674 2.60374 118.411 2.36941C118.15 2.13548 117.734 2.0187 117.163 2.0187H114.21V4.95513ZM112.199 10.1546V0.128418H117.278C118.514 0.128418 119.41 0.393292 119.967 0.923044C120.523 1.45318 120.801 2.30523 120.801 3.47957C120.801 4.65391 120.523 5.50867 119.967 6.04364C119.41 6.57822 118.514 6.84542 117.278 6.84542H114.21V10.1544H112.199V10.1546Z" fill="#B386BA"/>
<path fill-rule="evenodd" clip-rule="evenodd" d="M124.253 10.1546H122.242V0.128418H124.253V7.20387L130.102 0.128418H132.099V10.1546H130.102V3.07877L124.253 10.1546Z" fill="#B386BA"/>
<path fill-rule="evenodd" clip-rule="evenodd" d="M136.542 2.34785C136.28 2.56768 136.15 2.92149 136.15 3.40851C136.15 3.89553 136.28 4.2507 136.542 4.47556C136.803 4.70002 137.22 4.81177 137.79 4.81177H141.014V2.0186H137.79C137.22 2.0186 136.803 2.1286 136.542 2.34766V2.34785V2.34785ZM133.682 10.1545L136.535 6.6166C135.707 6.47333 135.103 6.14195 134.723 5.62089C134.343 5.10101 134.152 4.36341 134.152 3.40813C134.152 2.25253 134.431 1.41673 134.987 0.901095C135.544 0.386037 136.439 0.12793 137.676 0.12793H143.011V10.1541H141.014V6.70205H138.945L136.164 10.1541H133.682V10.1546V10.1545Z" fill="#B386BA"/>
<path fill-rule="evenodd" clip-rule="evenodd" d="M11.4292 13.5723C11.6024 14.0831 11.71 14.6186 11.7462 15.1741C11.8105 16.1551 11.6366 17.0895 11.2671 17.9317H1.19386C0.992056 17.3793 0.864198 16.7985 0.824726 16.1928C0.76407 15.2655 0.915801 14.3783 1.2443 13.5723H11.4296H11.4293H11.4292ZM6.80421 22.6495C4.34005 21.9135 2.51095 20.5238 1.55663 18.7451H10.8256C10.2017 19.7079 9.28897 20.5017 8.13439 21.0197C7.93009 21.1115 7.83863 21.3522 7.9297 21.557C7.9971 21.7082 8.14499 21.7981 8.29999 21.7981C8.35487 21.7981 8.41129 21.7867 8.46482 21.7625C10.0003 21.0732 11.1808 19.9171 11.8741 18.5196C11.8808 18.5061 11.8879 18.4931 11.8933 18.4788C12.3916 17.457 12.632 16.3099 12.5546 15.1203C12.3859 12.5445 10.5751 9.30429 5.997 7.93642C3.59042 7.21778 2.29201 5.80118 1.59438 4.36718H10.9869C10.5654 5.23547 9.92672 6.09138 8.95469 6.79262C8.77291 6.92371 8.73151 7.17795 8.86207 7.36007C8.94102 7.47086 9.06522 7.52982 9.19134 7.52982C9.27299 7.52982 9.35578 7.50527 9.42723 7.45346C12.161 5.48023 12.5688 2.45699 12.5688 0.830809C12.5688 0.605955 12.3874 0.423828 12.1635 0.423828C11.9395 0.423828 11.7581 0.605955 11.7581 0.830809C11.7581 1.53475 11.6715 2.52775 11.317 3.56462C11.2981 3.56192 11.2812 3.55322 11.2621 3.55322H1.25778C0.890772 2.48463 0.810666 1.47907 0.810666 0.830809C0.810666 0.605955 0.62966 0.423828 0.405334 0.423828C0.18139 0.423828 0 0.605955 0 0.830809C0 2.68377 0.561885 7.16151 5.76536 8.71596C8.2921 9.47095 10.1478 10.914 11.0807 12.7575H1.65137C2.27564 11.7317 3.22476 10.8891 4.43517 10.3456C4.63909 10.2538 4.73055 10.0131 4.63948 9.80833C4.54763 9.6032 4.3079 9.50981 4.10436 9.6032C1.43513 10.8013 -0.170412 13.4091 0.0155962 16.2452C0.184279 18.821 1.9947 22.0612 6.57276 23.4287C8.97934 24.1473 10.2778 25.5639 10.9754 26.9979H1.58321C2.00472 26.1297 2.64343 25.2741 3.61546 24.5725C3.79723 24.4414 3.83863 24.1872 3.70808 24.0051C3.57714 23.8229 3.32392 23.7806 3.14292 23.9121C0.409184 25.8861 0.00134881 28.9085 0.00134881 30.5345C0.00134881 30.7594 0.182739 30.9415 0.406683 30.9415C0.630627 30.9415 0.812012 30.7598 0.812012 30.5345C0.812012 29.8309 0.898665 28.8376 1.25336 27.8007C1.27223 27.8034 1.28878 27.8121 1.30823 27.8121H11.3126C11.6796 28.8807 11.7593 29.8862 11.7593 30.5345C11.7593 30.7594 11.9407 30.9415 12.1646 30.9415C12.3886 30.9415 12.57 30.7598 12.57 30.5345C12.57 28.6815 12.0081 24.2034 6.80498 22.6494H6.80421V22.6495Z" fill="#B386BA"/>
</svg>
