<svg width="34" height="41" viewBox="0 0 34 41" fill="none" xmlns="http://www.w3.org/2000/svg">
<path fill-rule="evenodd" clip-rule="evenodd" d="M26.6082 0.245637C25.9865 0.378912 25.2523 0.694317 24.7106 1.06084C24.5037 1.20084 23.5511 2.09116 22.5938 3.03933L20.8531 4.76316L19.7007 3.61261C19.0667 2.97985 18.5132 2.46207 18.4706 2.46207C18.4279 2.46207 16.9688 3.88659 15.2281 5.62769L12.0633 8.79322L13.6251 10.3566L15.187 11.9199L8.84441 18.2712C1.98383 25.1411 2.19739 24.9021 1.89957 26.0454C1.74793 26.6277 1.75129 27.6028 1.907 28.2069C2.04645 28.7478 2.39093 29.4382 2.71501 29.8265L2.932 30.0864L2.33809 30.7597C1.29252 31.9449 0.491544 33.2539 0.186223 34.2761C-0.705587 37.2626 1.72995 40.3172 4.84225 40.1155C6.9684 39.9778 8.64978 38.5041 9.09979 36.3839C9.38166 35.0558 8.90132 33.4644 7.73452 31.8601L7.35345 31.3362L7.94901 31.0739C8.54386 30.812 8.55293 30.8034 14.9352 24.4352L21.3258 18.0587L22.8697 19.6012L24.4137 21.1436L27.6173 17.9393L30.821 14.7349L29.6534 13.5654L28.4857 12.3958L30.2794 10.5742C32.2295 8.59358 32.5111 8.21611 32.8623 7.11302C33.2924 5.7619 33.1796 4.42579 32.5226 3.09006C32.2253 2.4856 32.0416 2.23304 31.519 1.71049C30.9956 1.18708 30.7462 1.00581 30.1473 0.71339C28.978 0.142456 27.8097 -0.011924 26.6082 0.245637ZM29.0136 2.76356C29.635 3.06951 30.1805 3.61972 30.4944 4.25741C30.7204 4.71649 30.7439 4.83163 30.7413 5.46987C30.7363 6.70796 30.6728 6.80934 28.5855 8.91086L26.7997 10.7087L24.6686 8.57889L22.5374 6.44907L24.2176 4.76308C25.1417 3.83578 26.0536 2.98446 26.244 2.8712C27.0582 2.38695 28.1615 2.34411 29.0136 2.76356ZM25.9566 16.317L24.4136 17.8615L19.8991 13.3476L15.3847 8.83364L16.9278 7.28913L18.4709 5.74462L22.9853 10.2585L27.4997 14.7725L25.9566 16.317ZM15.6583 20.4399L11.6324 24.4657L10.2061 23.0394L8.77969 21.613L12.8045 17.5877L16.8293 13.5623L18.2568 14.9881L19.6842 16.4141L15.6583 20.4399ZM8.68144 27.4181C7.18844 28.9143 6.88164 29.1181 6.12568 29.1154C4.99046 29.1112 4.12585 28.2502 4.12992 27.128C4.13273 26.3507 4.29438 26.1051 5.79183 24.6029L7.13599 23.2545L8.56332 24.6802L9.99066 26.106L8.68144 27.4181ZM5.62244 32.9746C5.91846 33.355 6.30914 33.966 6.49064 34.3323C6.78705 34.9305 6.82035 35.0548 6.81793 35.5556C6.81449 36.2472 6.57491 36.7622 6.03555 37.2369C5.43875 37.7623 4.70585 37.9104 3.89471 37.6694C3.30721 37.495 2.62903 36.8168 2.45456 36.2293C2.38624 35.9993 2.33105 35.6856 2.33199 35.5321C2.33629 34.8121 3.02549 33.5381 4.0587 32.3405L4.5485 31.7727L4.81638 32.0278C4.96372 32.168 5.32642 32.5941 5.62244 32.9746Z" fill="#FEFEFE"/>
</svg>
