<svg width="24" height="24" viewBox="0 0 24 24" fill="none" xmlns="http://www.w3.org/2000/svg">
<path fill-rule="evenodd" clip-rule="evenodd" d="M21.8526 8.79707C22.3162 9.57486 22.6948 10.403 22.9815 11.2665C23.0064 11.3427 23.0064 11.6595 22.9798 11.7352C22.6931 12.5985 22.3146 13.4266 21.8513 14.2043C19.8013 17.667 16.2282 19.8906 12.2966 19.9978H12.2837C12.2368 20 12.118 20 11.9996 20C11.9271 20 11.8546 19.9992 11.7984 19.9985C11.7629 19.9981 11.7339 19.9978 11.7156 19.9978H11.7027C7.77189 19.8906 4.19921 17.6674 2.14796 14.2047C1.68421 13.427 1.30559 12.5988 1.01904 11.7352C0.993652 11.6595 0.993652 11.3427 1.01904 11.2665C1.30587 10.4029 1.68462 9.57454 2.14839 8.79662C4.19921 5.33433 7.77189 3.1112 11.7031 3.00399H11.716C11.8107 3 11.9049 3 12.0001 3C12.0952 3 12.1903 3 12.2841 3.00443H12.297C16.2286 3.11164 19.8013 5.33478 21.8526 8.79707ZM20.4934 13.3528C20.4939 13.3513 20.4947 13.35 20.4955 13.3488L20.4968 13.347C20.8442 12.7617 21.1363 12.1435 21.3692 11.5009C21.1352 10.858 20.8417 10.2396 20.493 9.65433V9.65079C19.6199 8.17387 18.4097 6.93869 16.9676 6.05249C15.539 5.17776 13.9172 4.6927 12.2557 4.6432H12.2419C12.1494 4.63966 12.0698 4.63966 12.0009 4.63966C11.9691 4.63966 11.9352 4.64042 11.8987 4.64123C11.8562 4.64218 11.8101 4.6432 11.7599 4.6432H11.7453C10.0836 4.69263 8.46163 5.17769 7.0329 6.05249C5.59071 6.93857 4.38054 8.17379 3.50757 9.65079L3.50499 9.65433C3.1564 10.2397 2.86297 10.858 2.62871 11.5009C2.86288 12.1439 3.15631 12.7624 3.50499 13.3479L3.50757 13.3514C4.38054 14.8284 5.59071 16.0636 7.0329 16.9497C8.46163 17.8245 10.0836 18.3096 11.7453 18.359H11.7586H12.0001H12.2419H12.2548C13.9167 18.3097 15.5388 17.8246 16.9676 16.9497C18.4098 16.064 19.6201 14.8293 20.4934 13.3528ZM9.68507 7.93165C10.3703 7.46033 11.176 7.20876 12.0002 7.20876C13.1053 7.20876 14.1652 7.66068 14.9467 8.4651C15.7282 9.26952 16.1672 10.3606 16.1672 11.4982C16.1672 12.3466 15.9228 13.1759 15.4649 13.8813C15.0071 14.5867 14.3563 15.1364 13.5948 15.4611C12.8334 15.7858 11.9955 15.8707 11.1872 15.7052C10.3789 15.5397 9.63638 15.1312 9.05361 14.5313C8.47084 13.9314 8.07396 13.1671 7.91318 12.335C7.75239 11.5029 7.83491 10.6405 8.15031 9.85669C8.4657 9.0729 8.9998 8.40298 9.68507 7.93165ZM10.5698 13.7018C10.9932 13.993 11.491 14.1484 12.0002 14.1484V14.1502C12.683 14.1493 13.3377 13.8696 13.8204 13.3724C14.3031 12.8752 14.5744 12.2011 14.5748 11.4982C14.5748 10.974 14.4238 10.4616 14.1409 10.0258C13.858 9.58998 13.4559 9.2503 12.9854 9.04971C12.515 8.84912 11.9973 8.79664 11.4979 8.89889C10.9985 9.00115 10.5397 9.25356 10.1796 9.6242C9.81958 9.99484 9.57437 10.4671 9.47503 10.9812C9.37569 11.4952 9.42667 12.0281 9.62154 12.5124C9.8164 12.9966 10.1464 13.4105 10.5698 13.7018Z" fill="#00A7B5" stroke="#171D20" stroke-width="0.5"/>
</svg>
