<svg width="27" height="32" viewBox="0 0 27 32" fill="none" xmlns="http://www.w3.org/2000/svg">
<path fill-rule="evenodd" clip-rule="evenodd" d="M12.493 0.0773962C11.6648 0.268339 10.8072 0.790398 10.2977 1.41368C9.99709 1.78144 9.52317 2.67738 9.52317 2.87795C9.52317 2.98499 9.37256 2.99068 6.53362 2.99068C4.68527 2.99068 3.40238 3.01619 3.17305 3.05751C2.96898 3.09428 2.5629 3.23883 2.27061 3.37881C1.33371 3.82747 0.671104 4.65639 0.429268 5.68244C0.346114 6.03525 0.334172 7.50927 0.333359 17.5014C0.332422 28.6862 0.334923 28.9272 0.456528 29.4027C0.616647 30.0287 0.888493 30.5009 1.36047 30.9729C1.83245 31.4449 2.30462 31.7167 2.93065 31.8768C3.40488 31.9981 3.64309 32.0009 13.3001 31.9999C24.2586 31.9986 23.6447 32.0216 24.4818 31.5821C25.283 31.1615 25.9189 30.3775 26.196 29.4688C26.305 29.1111 26.3104 28.5548 26.3104 17.4958V5.89795L26.1603 5.43979C25.8121 4.37685 24.9625 3.51818 23.9078 3.16311C23.5088 3.02882 23.4049 3.02419 20.3279 3.00456L17.1588 2.98436L17.0535 2.65925C16.8066 1.89716 16.0959 1.00616 15.3955 0.580699C14.5743 0.0818352 13.3753 -0.126051 12.493 0.0773962ZM14.1853 2.06079C14.5735 2.24254 15.0194 2.68444 15.1966 3.06283C15.2715 3.22288 15.3591 3.56613 15.3913 3.82566C15.4586 4.36779 15.6181 4.64557 15.939 4.77962C16.0899 4.84271 16.4541 4.86634 17.2739 4.86634H18.4013V5.78129C18.4013 6.86311 18.346 7.0885 17.9814 7.49414C17.4866 8.04453 17.6715 8.02371 13.2745 8.02371C9.63971 8.02371 9.41745 8.01733 9.21056 7.90692C8.80873 7.69246 8.61485 7.51003 8.42916 7.17153C8.24785 6.8411 8.24491 6.82041 8.24322 5.86669L8.24147 4.8976L9.44071 4.86634C10.5265 4.83802 10.6562 4.82289 10.8123 4.70616C11.1148 4.48002 11.2086 4.29295 11.272 3.78908C11.3075 3.50773 11.3966 3.18018 11.4853 3.00506C11.6378 2.7042 12.0614 2.26298 12.3433 2.11149C12.8707 1.82802 13.6426 1.80676 14.1853 2.06079ZM6.35199 5.94485C6.37662 6.69117 6.42007 7.12927 6.49316 7.36722C6.86042 8.56359 7.71266 9.4082 8.93246 9.78464C9.27696 9.89093 9.60164 9.89937 13.337 9.89937C17.0741 9.89937 17.3972 9.89093 17.7448 9.78439C18.969 9.40926 19.8767 8.47499 20.1821 7.27594C20.2478 7.01785 20.277 6.59014 20.277 5.88483V4.86634H21.6411C23.1923 4.86634 23.4702 4.91655 23.8849 5.27148C24.0265 5.39271 24.2081 5.62548 24.2885 5.78873L24.4347 6.08552V17.4645C24.4347 26.9425 24.4204 28.8841 24.349 29.0862C24.2399 29.3952 23.8906 29.7828 23.5636 29.9578L23.3093 30.094L13.4336 30.1104C2.32794 30.1288 3.19631 30.1658 2.68325 29.6527C2.1672 29.1367 2.20809 30.1825 2.20809 17.494C2.20809 9.11609 2.22672 6.14304 2.2803 5.98542C2.38077 5.68982 2.63692 5.34376 2.87695 5.17926C3.28234 4.90148 3.47797 4.87197 4.93436 4.86909L6.31641 4.86634L6.35199 5.94485ZM10.8999 13.1663C10.7802 13.2264 10.6184 13.3712 10.5404 13.488C10.4017 13.6957 10.3985 13.7381 10.3985 15.3765V17.0525L8.68356 17.071C6.73519 17.0919 6.74875 17.0885 6.47309 17.6245C6.33123 17.9003 6.33042 17.9172 6.34805 20.0905C6.36531 22.2192 6.36956 22.2847 6.50292 22.4976C6.75563 22.9008 6.75563 22.9008 8.64786 22.9352L10.3672 22.9665L10.3985 24.6859C10.4329 26.5781 10.4329 26.5781 10.8361 26.8308C11.0511 26.9655 11.0959 26.9679 13.3481 26.9679C15.5666 26.9679 15.6468 26.9637 15.8138 26.839C15.9088 26.7681 16.0445 26.6325 16.1154 26.5376C16.2371 26.3747 16.2454 26.2692 16.2627 24.6501L16.2812 22.9352L17.9508 22.935C19.5066 22.9348 19.6344 22.9263 19.8243 22.8105C19.9364 22.7422 20.0839 22.5946 20.1522 22.4825C20.2702 22.2892 20.2765 22.1636 20.2767 20.027C20.277 17.4539 20.2775 17.4567 19.7745 17.1988C19.511 17.0637 19.437 17.0582 17.8879 17.0582H16.2756L16.2746 15.4169C16.2736 13.8339 16.2686 13.7671 16.1339 13.5322C15.8631 13.0599 15.8447 13.0567 13.338 13.0569C11.3488 13.0569 11.0949 13.0683 10.8999 13.1663ZM14.4127 16.6361C14.4388 19.0525 14.3169 18.9338 16.7737 18.9338H18.4013V19.9929V21.0521L16.7177 21.0714C15.131 21.0897 15.0241 21.0983 14.8615 21.2197C14.7666 21.2906 14.631 21.4263 14.5601 21.5212C14.4383 21.684 14.4301 21.7896 14.4127 23.4086L14.3943 25.1235H13.3342H12.2741V23.5112C12.2741 21.9631 12.2685 21.8878 12.1335 21.6213C11.8752 21.1117 11.8014 21.0937 9.88268 21.0714L8.21021 21.0521V19.9929V18.9338H9.88905C11.5272 18.9338 11.5729 18.9304 11.7746 18.7931C11.8883 18.7157 12.0401 18.5731 12.1121 18.4761C12.2359 18.3091 12.2439 18.2102 12.2623 16.6161L12.2816 14.9324H13.3379H14.3943L14.4127 16.6361Z" fill="#FEFEFE"/>
</svg>
