<svg width="24" height="24" viewBox="0 0 24 24" fill="none" xmlns="http://www.w3.org/2000/svg">
<g clip-path="url(#clip0_1071_7064)">
<path fill-rule="evenodd" clip-rule="evenodd" d="M12 -2.09815e-06C5.37258 -9.39372e-07 9.39372e-07 5.37258 2.09815e-06 12C3.25692e-06 18.6274 5.37259 24 12 24C18.6274 24 24 18.6274 24 12C24 5.37258 18.6274 -3.25692e-06 12 -2.09815e-06Z" fill="#FEFEFE"/>
<path d="M12.0093 5.60156C8.4912 5.60156 5.62903 8.46373 5.62903 11.9818C5.62903 13.2076 5.97742 14.398 6.63646 15.4243L6.79485 15.6709L6.17428 17.875L8.45466 17.288L8.68985 17.4316C9.6869 18.0403 10.8348 18.362 12.0093 18.362C15.5273 18.362 18.3895 15.4999 18.3895 11.9818C18.3895 8.46373 15.5273 5.60156 12.0093 5.60156ZM15.9217 13.9427L15.8421 14.3146C15.7523 14.7341 15.5032 15.1051 15.1417 15.3363C14.6854 15.6282 14.0939 15.7716 13.3421 15.559C11.0088 14.8992 9.68931 13.3544 8.98133 12.3889C8.27329 11.4235 7.99977 10.458 8.17674 9.66952C8.29545 9.14073 8.68193 8.73499 8.92364 8.52504C9.04205 8.42222 9.19566 8.36989 9.35222 8.37843L9.85079 8.40561C9.94898 8.41097 10.0356 8.4716 10.0743 8.56202L10.8005 10.2613C10.8393 10.3521 10.823 10.4571 10.7584 10.5317L10.1262 11.2631C10.075 11.3224 10.066 11.4069 10.1022 11.4764C10.9348 13.0803 12.4522 13.7158 12.9052 13.875C12.9824 13.9021 13.068 13.8765 13.118 13.8117L13.7795 12.9541C13.8531 12.8588 13.9828 12.8269 14.0922 12.8773L15.7772 13.654C15.887 13.7047 15.947 13.8246 15.9217 13.9427Z" fill="#00A7B5"/>
<path d="M0 0V24H24V0H0ZM12.0099 19.6654C10.6898 19.6654 9.39709 19.3275 8.25352 18.6858L4.30649 19.7019L5.38411 15.8745C4.69113 14.6972 4.32628 13.3578 4.32628 11.9818C4.32628 7.745 7.77315 4.29813 12.0099 4.29813C16.2467 4.29813 19.6935 7.745 19.6935 11.9818C19.6935 16.2186 16.2467 19.6654 12.0099 19.6654Z" fill="#00A7B5"/>
</g>
<defs>
<clipPath id="clip0_1071_7064">
<path d="M2.09815e-06 12C9.39372e-07 5.37258 5.37258 -9.39372e-07 12 -2.09815e-06C18.6274 -3.25692e-06 24 5.37258 24 12C24 18.6274 18.6274 24 12 24C5.37259 24 3.25692e-06 18.6274 2.09815e-06 12Z" fill="white"/>
</clipPath>
</defs>
</svg>
