<svg width="19" height="16" viewBox="0 0 19 16" fill="none" xmlns="http://www.w3.org/2000/svg">
<path d="M16.0352 0.884766H2.98979C2.24839 0.884766 1.53736 1.17861 1.01311 1.70166C0.488856 2.22471 0.194336 2.93412 0.194336 3.67383V12.9707C0.194336 13.7104 0.488856 14.4198 1.01311 14.9429C1.53736 15.4659 2.24839 15.7598 2.98979 15.7598H16.0352C16.7766 15.7598 17.4877 15.4659 18.0119 14.9429C18.5362 14.4198 18.8307 13.7104 18.8307 12.9707V3.67383C18.8307 2.93412 18.5362 2.22471 18.0119 1.70166C17.4877 1.17861 16.7766 0.884766 16.0352 0.884766ZM2.98979 2.74414H16.0352C16.2824 2.74414 16.5194 2.84209 16.6941 3.01644C16.8689 3.19079 16.9671 3.42726 16.9671 3.67383L9.51252 8.2107L2.05797 3.67383C2.05797 3.42726 2.15615 3.19079 2.3309 3.01644C2.50565 2.84209 2.74266 2.74414 2.98979 2.74414ZM16.9671 12.9707C16.9671 13.2173 16.8689 13.4537 16.6941 13.6281C16.5194 13.8024 16.2824 13.9004 16.0352 13.9004H2.98979C2.74266 13.9004 2.50565 13.8024 2.3309 13.6281C2.15615 13.4537 2.05797 13.2173 2.05797 12.9707V5.79351L9.02797 10.0422C9.16963 10.1238 9.33031 10.1667 9.49388 10.1667C9.65745 10.1667 9.81814 10.1238 9.95979 10.0422L16.9671 5.79351V12.9707Z" fill="#00A7B5"/>
</svg>
