<svg width="24" height="18" viewBox="0 0 24 18" fill="none" xmlns="http://www.w3.org/2000/svg">
<path fill-rule="evenodd" clip-rule="evenodd" d="M21.8526 6.40522C22.3162 7.18302 22.6948 8.0112 22.9815 8.87468C23.0064 8.95088 23.0064 9.26765 22.9798 9.3434C22.6931 10.2067 22.3146 11.0347 21.8513 11.8124C19.8013 15.2752 16.2282 17.4987 12.2966 17.6059H12.2837C12.2368 17.6082 12.118 17.6082 11.9996 17.6082C11.9271 17.6082 11.8546 17.6073 11.7984 17.6067C11.7629 17.6063 11.7339 17.6059 11.7156 17.6059H11.7027C7.77189 17.4987 4.19921 15.2756 2.14796 11.8129C1.68421 11.0352 1.30559 10.207 1.01904 9.3434C0.993652 9.26765 0.993652 8.95088 1.01904 8.87468C1.30587 8.01103 1.68462 7.18269 2.14839 6.40478C4.19921 2.94249 7.77189 0.719355 11.7031 0.612142H11.716C11.8107 0.608154 11.9049 0.608154 12.0001 0.608154C12.0952 0.608154 12.1903 0.608154 12.2841 0.612585H12.297C16.2286 0.719798 19.8013 2.94293 21.8526 6.40522ZM20.4934 10.9609C20.4939 10.9595 20.4947 10.9582 20.4955 10.9569L20.4968 10.9552C20.8442 10.3698 21.1363 9.75165 21.3692 9.10904C21.1352 8.46611 20.8417 7.84776 20.493 7.26249V7.25894C19.6199 5.78203 18.4097 4.54684 16.9676 3.66064C15.539 2.78592 13.9172 2.30086 12.2557 2.25136H12.2419C12.1494 2.24781 12.0698 2.24781 12.0009 2.24781C11.9691 2.24781 11.9352 2.24857 11.8987 2.24938C11.8562 2.25033 11.8101 2.25136 11.7599 2.25136H11.7453C10.0836 2.30078 8.46163 2.78585 7.0329 3.66064C5.59071 4.54673 4.38054 5.78194 3.50757 7.25894L3.50499 7.26249C3.1564 7.84785 2.86297 8.46618 2.62871 9.10904C2.86288 9.75208 3.15631 10.3706 3.50499 10.956L3.50757 10.9596C4.38054 12.4366 5.59071 13.6718 7.0329 14.5579C8.46163 15.4327 10.0836 15.9177 11.7453 15.9672H11.7586H12.0001H12.2419H12.2548C13.9167 15.9178 15.5388 15.4327 16.9676 14.5579C18.4098 13.6722 19.6201 12.4374 20.4934 10.9609ZM9.68507 5.53981C10.3703 5.06848 11.176 4.81691 12.0002 4.81691C13.1053 4.81691 14.1652 5.26883 14.9467 6.07325C15.7282 6.87768 16.1672 7.96871 16.1672 9.10634C16.1672 9.95471 15.9228 10.784 15.4649 11.4894C15.0071 12.1948 14.3563 12.7446 13.5948 13.0693C12.8334 13.3939 11.9955 13.4789 11.1872 13.3133C10.3789 13.1478 9.63638 12.7393 9.05361 12.1394C8.47084 11.5395 8.07396 10.7752 7.91318 9.94317C7.75239 9.1111 7.83491 8.24864 8.15031 7.46485C8.4657 6.68105 8.9998 6.01114 9.68507 5.53981ZM10.5698 11.3099C10.9932 11.6011 11.491 11.7566 12.0002 11.7566V11.7583C12.683 11.7575 13.3377 11.4778 13.8204 10.9806C14.3031 10.4833 14.5744 9.80928 14.5748 9.10634C14.5748 8.58218 14.4238 8.06979 14.1409 7.63396C13.858 7.19813 13.4559 6.85845 12.9854 6.65786C12.515 6.45727 11.9973 6.40479 11.4979 6.50705C10.9985 6.60931 10.5397 6.86172 10.1796 7.23236C9.81958 7.60299 9.57437 8.07522 9.47503 8.58931C9.37569 9.1034 9.42667 9.63627 9.62154 10.1205C9.8164 10.6048 10.1464 11.0187 10.5698 11.3099Z" fill="#FEFEFE" stroke="#171D20" stroke-width="0.5"/>
</svg>
