<svg width="24" height="19" viewBox="0 0 24 19" fill="none" xmlns="http://www.w3.org/2000/svg">
<path fill-rule="evenodd" clip-rule="evenodd" d="M21.8526 6.79707C22.3162 7.57486 22.6948 8.40305 22.9815 9.26652C23.0064 9.34272 23.0064 9.65949 22.9798 9.73525C22.6931 10.5985 22.3146 11.4266 21.8513 12.2043C19.8013 15.667 16.2282 17.8906 12.2966 17.9978H12.2837C12.2368 18 12.118 18 11.9996 18C11.9271 18 11.8546 17.9992 11.7984 17.9985C11.7629 17.9981 11.7339 17.9978 11.7156 17.9978H11.7027C7.77189 17.8906 4.19921 15.6674 2.14796 12.2047C1.68421 11.427 1.30559 10.5988 1.01904 9.73525C0.993652 9.65949 0.993652 9.34272 1.01904 9.26652C1.30587 8.40288 1.68462 7.57454 2.14839 6.79662C4.19921 3.33433 7.77189 1.1112 11.7031 1.00399H11.716C11.8107 1 11.9049 1 12.0001 1C12.0952 1 12.1903 1 12.2841 1.00443H12.297C16.2286 1.11164 19.8013 3.33478 21.8526 6.79707ZM20.4934 11.3528C20.4939 11.3513 20.4947 11.35 20.4955 11.3488L20.4968 11.347C20.8442 10.7617 21.1363 10.1435 21.3692 9.50089C21.1352 8.85795 20.8417 8.2396 20.493 7.65433V7.65079C19.6199 6.17387 18.4097 4.93869 16.9676 4.05249C15.539 3.17776 13.9172 2.6927 12.2557 2.6432H12.2419C12.1494 2.63966 12.0698 2.63966 12.0009 2.63966C11.9691 2.63966 11.9352 2.64042 11.8987 2.64123C11.8562 2.64218 11.8101 2.6432 11.7599 2.6432H11.7453C10.0836 2.69263 8.46163 3.17769 7.0329 4.05249C5.59071 4.93857 4.38054 6.17379 3.50757 7.65079L3.50499 7.65433C3.1564 8.2397 2.86297 8.85803 2.62871 9.50089C2.86288 10.1439 3.15631 10.7624 3.50499 11.3479L3.50757 11.3514C4.38054 12.8284 5.59071 14.0636 7.0329 14.9497C8.46163 15.8245 10.0836 16.3096 11.7453 16.359H11.7586H12.0001H12.2419H12.2548C13.9167 16.3097 15.5388 15.8246 16.9676 14.9497C18.4098 14.064 19.6201 12.8293 20.4934 11.3528ZM9.68507 5.93165C10.3703 5.46033 11.176 5.20876 12.0002 5.20876C13.1053 5.20876 14.1652 5.66068 14.9467 6.4651C15.7282 7.26952 16.1672 8.36056 16.1672 9.49819C16.1672 10.3466 15.9228 11.1759 15.4649 11.8813C15.0071 12.5867 14.3563 13.1364 13.5948 13.4611C12.8334 13.7858 11.9955 13.8707 11.1872 13.7052C10.3789 13.5397 9.63638 13.1312 9.05361 12.5313C8.47084 11.9314 8.07396 11.1671 7.91318 10.335C7.75239 9.50294 7.83491 8.64048 8.15031 7.85669C8.4657 7.0729 8.9998 6.40298 9.68507 5.93165ZM10.5698 11.7018C10.9932 11.993 11.491 12.1484 12.0002 12.1484V12.1502C12.683 12.1493 13.3377 11.8696 13.8204 11.3724C14.3031 10.8752 14.5744 10.2011 14.5748 9.49819C14.5748 8.97402 14.4238 8.46163 14.1409 8.02581C13.858 7.58998 13.4559 7.2503 12.9854 7.04971C12.515 6.84912 11.9973 6.79664 11.4979 6.89889C10.9985 7.00115 10.5397 7.25356 10.1796 7.6242C9.81958 7.99484 9.57437 8.46706 9.47503 8.98115C9.37569 9.49525 9.42667 10.0281 9.62154 10.5124C9.8164 10.9966 10.1464 11.4105 10.5698 11.7018Z" fill="#00A7B5" stroke="#00A7B5" stroke-width="0.5"/>
</svg>
