<svg width="48" height="48" viewBox="0 0 48 48" fill="none" xmlns="http://www.w3.org/2000/svg">
<path fill-rule="evenodd" clip-rule="evenodd" d="M14.1783 6.14217C13.4086 6.34383 12.8637 6.66284 12.2632 7.26323C11.6542 7.87228 11.3421 8.41172 11.1389 9.20597C11.0028 9.73802 11 10.0383 11 24C11 37.9617 11.0028 38.262 11.1389 38.794C11.3421 39.5883 11.6542 40.1277 12.2632 40.7368C12.8723 41.3458 13.4117 41.6579 14.206 41.8611C14.7327 41.9958 15.0161 42 23.6562 42C32.2964 42 32.5798 41.9958 33.1065 41.8611C33.9008 41.6579 34.4402 41.3458 35.0493 40.7368C35.6583 40.1277 35.9704 39.5883 36.1736 38.794C36.3091 38.2641 36.3125 37.9731 36.3125 26.7483V15.2457L31.6892 10.6228L27.066 6L20.8787 6.00387C15.0191 6.00752 14.6642 6.01484 14.1783 6.14217ZM25.0625 11.1567C25.0625 13.7781 25.1111 14.1496 25.5682 15.0221C25.867 15.5925 26.72 16.4455 27.2904 16.7443C28.1629 17.2014 28.5343 17.25 31.1567 17.25H33.5018L33.4833 27.7493L33.4648 38.2485L33.2762 38.5336C33.1725 38.6904 32.9668 38.8937 32.8192 38.9855L32.5508 39.1523H23.6511H14.7515L14.4664 38.9637C14.3097 38.86 14.1063 38.6543 14.0145 38.5067L13.8477 38.2383L13.8294 24.1507C13.8167 14.3732 13.834 9.97821 13.8858 9.78562C13.9765 9.44876 14.4213 8.9842 14.7414 8.89188C14.8766 8.85286 17.0676 8.82255 20.0176 8.81883L25.0625 8.8125V11.1567ZM30.2978 14.4216C29.6209 14.4329 29.0155 14.4092 28.852 14.3652C28.495 14.2691 28.0483 13.8282 27.9503 13.4753C27.9093 13.3278 27.8756 12.6694 27.8754 12.0122L27.875 10.8175L29.6686 12.6099L31.4622 14.4023L30.2978 14.4216ZM22.25 27.2162V31.8387L20.6327 30.2225L19.0153 28.6064L18.0137 29.608L17.0121 30.6096L20.3342 33.9316L23.6562 37.2537L26.9783 33.9316L30.3004 30.6096L29.2988 29.608L28.2972 28.6064L26.6798 30.2225L25.0625 31.8387V27.2162V22.5938H23.6562H22.25V27.2162Z" fill="#00A7B5"/>
</svg>
