<svg width="40" height="40" viewBox="0 0 40 40" fill="none" xmlns="http://www.w3.org/2000/svg">
<rect width="40" height="40" fill="#00A7B5"/>
<path fill-rule="evenodd" clip-rule="evenodd" d="M23.964 12H16.0362C13.8105 12 12 13.8107 12 16.0362V23.964C12 26.1898 13.8105 28 16.0362 28H23.964C26.1898 28 28 26.1898 28 23.964V16.0362C28 13.8107 26.1898 12 23.964 12ZM26.259 23.964C26.259 25.2296 25.2293 26.2592 23.964 26.2592H16.0362C14.7709 26.2592 13.7413 25.2296 13.7413 23.964V16.0362C13.7413 14.7709 14.7709 13.7415 16.0362 13.7415H23.964C25.2293 13.7415 26.259 14.7709 26.259 16.0362V23.964ZM24.2532 16.7319C23.7154 16.7319 23.2778 16.2946 23.2778 15.7568C23.2778 15.2193 23.7154 14.782 24.2532 14.782C24.7909 14.782 25.2282 15.2193 25.2282 15.7568C25.2282 16.2946 24.7909 16.7319 24.2532 16.7319ZM15.8793 19.9999C15.8793 17.7278 17.728 15.8793 19.9999 15.8793C22.2722 15.8793 24.1209 17.728 24.1209 19.9999C24.1209 22.272 22.2722 24.1207 19.9999 24.1207C17.728 24.1207 15.8793 22.272 15.8793 19.9999ZM17.6204 19.9999C17.6204 21.3121 18.6885 22.3799 19.9999 22.3799C21.3121 22.3799 22.3794 21.3121 22.3794 19.9999C22.3794 18.6882 21.3121 17.6209 19.9999 17.6209C18.6885 17.6209 17.6204 18.6882 17.6204 19.9999Z" fill="white"/>
</svg>
