<svg width="226" height="48" viewBox="0 0 226 48" fill="none" xmlns="http://www.w3.org/2000/svg">
<path fill-rule="evenodd" clip-rule="evenodd" d="M64.0391 42.8497C64.0391 43.6942 64.0391 44.7971 64.0391 46.2889C69.1939 46.2882 74.3525 46.3252 79.5097 46.3252C81.3811 46.3252 84.0257 46.3191 85.4352 44.7908C86.7696 43.3442 86.8199 42.6737 86.8482 41.0569C86.895 38.2937 86.9831 36.4454 83.7943 35.3568V35.2315C86.2188 34.4589 86.1437 32.5538 86.1437 30.4115C86.1437 28.9708 85.9112 28.1811 84.703 26.9213C83.4474 25.6136 80.6628 25.4573 79.1036 25.4573C74.0819 25.4573 69.0579 25.4573 64.0388 25.4573C64.0388 31.2549 64.0388 37.0521 64.0388 42.8497H64.0391ZM128.212 23.1117C130.427 23.1117 132.504 23.6949 134.304 24.7169C134.334 24.734 134.836 25.069 134.866 25.0858C131.729 27.6573 120.609 36.7735 116.656 40.0598C116.116 38.6626 115.818 37.1444 115.818 35.5557C115.818 28.6839 121.369 23.1117 128.212 23.1117H128.212ZM135.94 25.8279C136.211 26.046 136.475 26.2751 136.727 26.515C136.938 26.7162 137.143 26.9242 137.34 27.1396L126.848 47.9652C126.786 47.9759 125.883 47.781 125.835 47.7715C122.047 47.0319 118.875 44.5596 117.17 41.2097C123.429 36.0832 132.825 28.38 135.94 25.8282L135.94 25.8279ZM138.216 28.2095C139.718 30.268 140.607 32.8084 140.607 35.5557C140.607 42.4281 135.057 48 128.212 48H128.204L138.216 28.2095H138.216ZM173.29 46.2254C173.29 44.9189 173.299 41.3301 173.298 39.1797H173.291C173.303 35.0467 173.367 30.3779 173.298 27.7278C173.254 26.0205 172.84 25.5098 171.241 25.4764C170.883 25.4764 170.166 25.4669 169.558 25.5472C168.959 25.6095 168.766 25.7177 168.433 26.1382L164.125 31.5759L159.465 37.314C156.33 33.4526 153.52 30.08 150.446 26.2009C150.113 25.7815 149.919 25.6722 149.321 25.6098C148.712 25.5292 147.973 25.5391 147.616 25.5391C146.37 25.517 145.588 25.9947 145.577 28.1683C145.564 30.8204 145.576 35.1085 145.588 39.2429H145.581C145.581 41.3927 145.6 44.9186 145.6 46.2251C147.194 46.2244 148.43 46.2244 150.582 46.2251C150.582 42.6148 150.582 37.2998 150.582 33.7632C151.609 34.9879 152.962 36.5977 153.991 37.8198L157.712 42.2561C158.173 42.8471 160.471 43.1629 161.208 42.2561C163.52 39.412 166.046 36.3428 168.309 33.6448C168.309 37.1815 168.309 42.6148 168.309 46.2254C169.764 46.2247 171.825 46.2247 173.291 46.2254H173.29H173.29ZM59.5055 46.2884C60.463 45.9641 60.673 45.1405 60.673 44.2847C60.673 43.6539 60.58 42.7804 59.5055 42.2523H43.4924V37.582C47.8718 37.582 52.2505 37.582 56.6304 37.582C57.6437 37.3396 57.8565 36.3254 57.8565 35.6923C57.8565 35.058 57.7618 34.1405 56.6304 33.8496H43.4924V29.3083C48.7986 29.3083 54.1054 29.3083 59.4119 29.3083C60.6019 28.8176 60.6611 28.0303 60.7108 27.3647C60.7611 26.7 60.3596 25.7125 59.3929 25.457C52.4325 25.457 45.4712 25.457 38.51 25.457C38.51 32.4007 38.51 39.345 38.51 46.2892C45.5085 46.2875 52.5079 46.2885 59.5058 46.2885L59.5055 46.2884ZM198.649 46.2891C199.607 45.9648 199.817 45.1412 199.817 44.2848C199.817 43.6541 199.723 42.7805 198.649 42.2524H182.637V37.5821C187.016 37.5821 191.395 37.5821 195.774 37.5821C196.788 37.34 197.001 36.3261 197.001 35.6924C197.001 35.0582 196.906 34.1406 195.774 33.8497H182.637V29.3085C187.943 29.3085 193.249 29.3085 198.556 29.3085C199.746 28.8172 199.806 28.0298 199.855 27.3648C199.906 26.6995 199.503 25.7126 198.537 25.4571C191.576 25.4571 184.616 25.4571 177.654 25.4571C177.654 32.4002 177.654 39.3451 177.654 46.2888C184.653 46.2871 191.652 46.2888 198.65 46.2888L198.649 46.2891ZM202.478 46.3508L217.393 46.3436C220.656 46.3419 222.619 46.3584 224.663 44.1178C226.034 42.6141 225.972 39.812 225.972 35.7368C225.972 32.1117 226.082 29.1922 224.51 27.4283C222.605 25.2898 219.444 25.456 216.82 25.456L202.486 25.4577L202.478 46.3511H202.479L202.478 46.3508ZM207.533 29.6724L209.748 29.6657C213.127 29.6568 218.633 29.2786 219.895 30.3969C221.155 31.514 221.072 33.611 221.03 36.715C220.991 39.6815 220.904 40.3787 220.115 41.2945C218.94 42.6576 211.867 42.2078 210.151 42.2072L207.525 42.2055L207.533 29.6727H207.533V29.6724ZM95.3567 46.2891V40.127H106.607C107.646 40.127 109.214 39.2308 110.112 38.4559C111.732 37.0604 111.867 33.6455 111.794 32.0319C111.67 29.2586 110.979 28.082 110.08 27.1163C109.009 25.9664 107.027 25.4159 105.495 25.4183C100.423 25.4255 95.3489 25.4574 90.2781 25.4574C90.2781 31.9989 90.2781 39.7491 90.2781 46.2897C91.9692 46.2897 93.6638 46.2889 95.3564 46.2897V46.2889L95.3567 46.2891ZM95.3402 36.0654V30.8043L95.3336 29.6776H99.8299C100.542 29.6776 103.951 29.6124 104.625 29.7014C105.384 29.8029 106.838 30.4659 106.793 33.0003C106.746 35.5831 105.231 35.8052 104.472 35.9239C103.727 36.0407 100.541 36.0657 99.7753 36.0657H95.3405L95.3402 36.0654ZM68.9975 42.3931V37.6746L79.9268 37.6807C81.2393 37.6819 81.9267 38.2764 81.9602 40.0829C81.9986 42.1495 80.4814 42.3664 79.9586 42.3676L68.9984 42.3931H68.9975L68.9975 42.3931ZM68.9975 33.8691V29.452L79.2036 29.4578C80.516 29.4578 81.1376 30.4033 81.1376 31.7846C81.1376 33.3257 79.759 33.8686 79.2348 33.8686H68.9975V33.8693V33.8691Z" fill="#FEFEFE"/>
<path fill-rule="evenodd" clip-rule="evenodd" d="M38.3928 15.2318V12.2244H39.1634C39.5337 12.2244 39.8234 12.0664 40.0293 11.7512C40.2364 11.4359 40.4363 10.6526 40.6289 9.39831C40.8213 8.14576 40.9816 6.29405 41.1098 3.84492L41.2808 0.192551H52.8998V15.2318H49.8832V3.02826H44.1062L44.0632 4.14537C43.9205 7.12435 43.6929 9.39164 43.3784 10.9458C43.0644 12.5 42.604 13.6023 41.9977 14.2536C41.3915 14.9056 40.5327 15.2313 39.4196 15.2313H38.3916L38.3927 15.232L38.3928 15.2318Z" fill="#FEFEFE"/>
<path fill-rule="evenodd" clip-rule="evenodd" d="M63.1712 3.37163L60.412 9.6454H65.9322L63.1718 3.37163H63.1711H63.1712ZM57.9286 15.2319H54.741L61.4815 0.192551H64.8624L71.603 15.2319H68.4142L67.195 12.4817H59.1498L57.9294 15.2319H57.9286H57.9286Z" fill="#FEFEFE"/>
<path fill-rule="evenodd" clip-rule="evenodd" d="M81.9153 8.65765H76.4589V12.3967H81.9153C82.7858 12.3967 83.4135 12.2494 83.7991 11.9556C84.1847 11.6621 84.377 11.1859 84.377 10.5273C84.377 9.86872 84.1847 9.39252 83.7991 9.09903C83.4135 8.80554 82.7858 8.65793 81.9153 8.65793V8.65765ZM82.1077 15.2324H73.4414V0.193146H86.1303V3.02885H76.4583V5.84397H82.1077C83.9478 5.84397 85.2857 6.21228 86.1202 6.95094C86.9546 7.68843 87.3723 8.88153 87.3723 10.5273C87.3723 12.1749 86.9546 13.3709 86.1202 14.115C85.2857 14.8604 83.9484 15.2321 82.1077 15.2321V15.2324Z" fill="#FEFEFE"/>
<path fill-rule="evenodd" clip-rule="evenodd" d="M93.2352 3.98501C92.4929 4.76543 92.1226 6.00841 92.1226 7.71221C92.1226 9.41776 92.4929 10.6555 93.2352 11.4298C93.9764 12.2036 95.1675 12.5902 96.8084 12.5902C98.4481 12.5902 99.6399 12.2036 100.382 11.4298C101.123 10.6561 101.494 9.41776 101.494 7.71221C101.494 6.00841 101.124 4.76543 100.382 3.98501C99.6405 3.2046 98.4481 2.81338 96.8084 2.81338C95.1675 2.81338 93.9764 3.20402 93.2352 3.98501ZM96.8087 0C99.4906 0 101.442 0.608727 102.661 1.82618C103.881 3.04364 104.491 5.00526 104.491 7.71221C104.491 10.405 103.881 12.3645 102.661 13.5887C101.442 14.8128 99.4906 15.4256 96.8087 15.4256C94.1127 15.4256 92.1579 14.8128 90.9465 13.5887C89.7328 12.3645 89.1277 10.405 89.1277 7.71221C89.1277 5.00526 89.7328 3.04364 90.9465 1.82618C92.1579 0.608727 94.1127 0 96.8087 0Z" fill="#FEFEFE"/>
<path fill-rule="evenodd" clip-rule="evenodd" d="M109.946 7.43263H114.376C115.231 7.43263 115.855 7.25688 116.248 6.90598C116.64 6.55565 116.836 5.99274 116.836 5.21928C116.836 4.46032 116.641 3.90554 116.248 3.55404C115.855 3.20314 115.231 3.02797 114.376 3.02797H109.946V7.43263ZM106.929 15.2319V0.192551H114.547C116.401 0.192551 117.746 0.589861 118.581 1.38449C119.415 2.17969 119.833 3.45776 119.833 5.21928C119.833 6.9808 119.415 8.26292 118.581 9.06538C117.746 9.86725 116.401 10.2681 114.547 10.2681H109.946V15.2316H106.929V15.2319Z" fill="#FEFEFE"/>
<path fill-rule="evenodd" clip-rule="evenodd" d="M127.921 3.37163L125.161 9.6454H130.682L127.921 3.37163H127.921H127.921ZM122.678 15.2319H119.491L126.231 0.192551H129.612L136.352 15.2319H133.163L131.944 12.4817H123.899L122.679 15.2319H122.678Z" fill="#FEFEFE"/>
<path fill-rule="evenodd" clip-rule="evenodd" d="M134.961 3.02884V0.192551H149.618V3.02884H143.797V15.2319H140.781V3.02884H134.961Z" fill="#FEFEFE"/>
<path fill-rule="evenodd" clip-rule="evenodd" d="M154.604 3.98501C153.862 4.76543 153.492 6.00841 153.492 7.71221C153.492 9.41776 153.862 10.6555 154.604 11.4298C155.346 12.2036 156.537 12.5902 158.178 12.5902C159.817 12.5902 161.009 12.2036 161.751 11.4298C162.493 10.6561 162.863 9.41776 162.863 7.71221C162.863 6.00841 162.493 4.76543 161.751 3.98501C161.01 3.2046 159.817 2.81338 158.178 2.81338C156.537 2.81338 155.346 3.20402 154.604 3.98501ZM158.178 0C160.859 0 162.811 0.608727 164.03 1.82618C165.249 3.04364 165.859 5.00526 165.859 7.71221C165.859 10.405 165.249 12.3645 164.03 13.5887C162.811 14.8128 160.859 15.4256 158.178 15.4256C155.482 15.4256 153.527 14.8128 152.315 13.5887C151.102 12.3645 150.497 10.405 150.497 7.71221C150.497 5.00526 151.102 3.04364 152.315 1.82618C153.527 0.608727 155.482 0 158.178 0Z" fill="#FEFEFE"/>
<path fill-rule="evenodd" clip-rule="evenodd" d="M171.315 7.43263H175.745C176.601 7.43263 177.224 7.25688 177.617 6.90598C178.01 6.55565 178.205 5.99274 178.205 5.21928C178.205 4.46032 178.01 3.90554 177.617 3.55404C177.225 3.20314 176.601 3.02797 175.745 3.02797H171.315V7.43263ZM168.299 15.2319V0.192551H175.916C177.77 0.192551 179.115 0.589861 179.95 1.38449C180.784 2.17969 181.202 3.45776 181.202 5.21928C181.202 6.9808 180.784 8.26292 179.95 9.06538C179.115 9.86725 177.77 10.2681 175.916 10.2681H171.315V15.2316H168.299V15.2319Z" fill="#FEFEFE"/>
<path fill-rule="evenodd" clip-rule="evenodd" d="M186.38 15.2319H183.363V0.192551H186.38V10.8057L195.153 0.192551H198.148V15.2319H195.153V4.61808L186.38 15.2319Z" fill="#FEFEFE"/>
<path fill-rule="evenodd" clip-rule="evenodd" d="M204.813 3.52185C204.42 3.8516 204.225 4.38231 204.225 5.11285C204.225 5.84338 204.42 6.37613 204.813 6.71341C205.205 7.05011 205.83 7.21773 206.686 7.21773H211.521V3.02797H206.686C205.83 3.02797 205.205 3.19298 204.813 3.52156V3.52184V3.52185ZM200.522 15.2319L204.802 9.92497C203.561 9.71007 202.655 9.213 202.084 8.43142C201.514 7.65159 201.229 6.5452 201.229 5.11227C201.229 3.37888 201.646 2.12517 202.48 1.35172C203.316 0.579132 204.659 0.191971 206.514 0.191971H214.517V15.2313H211.52V10.0532H208.418L204.245 15.2313H200.522V15.232V15.2319Z" fill="#FEFEFE"/>
<path fill-rule="evenodd" clip-rule="evenodd" d="M17.1439 20.3583C17.4035 21.1245 17.565 21.9279 17.6193 22.7611C17.7158 24.2326 17.4549 25.6342 16.9007 26.8975H1.79079C1.48808 26.0689 1.2963 25.1977 1.23709 24.2891C1.1461 22.8983 1.3737 21.5674 1.86645 20.3583H17.1444H17.1439H17.1439ZM10.2063 33.9743C6.51007 32.8702 3.76642 30.7856 2.33495 28.1175H16.2384C15.3025 29.5618 13.9335 30.7526 12.2016 31.5295C11.8951 31.6673 11.7579 32.0283 11.8946 32.3354C11.9957 32.5622 12.2175 32.6971 12.45 32.6971C12.5323 32.6971 12.6169 32.68 12.6972 32.6437C15.0004 31.6098 16.7713 29.8756 17.8111 27.7794C17.8212 27.7591 17.8319 27.7397 17.84 27.7182C18.5875 26.1855 18.9479 24.4649 18.8318 22.6804C18.5788 18.8167 15.8626 13.9564 8.99551 11.9046C5.38563 10.8266 3.43802 8.70172 2.39156 6.55072H16.4804C15.8481 7.85316 14.8901 9.13702 13.432 10.1889C13.1594 10.3855 13.0973 10.7669 13.2931 11.0401C13.4115 11.2062 13.5978 11.2947 13.787 11.2947C13.9095 11.2947 14.0337 11.2579 14.1408 11.1801C18.2414 8.22031 18.8532 3.68543 18.8532 1.24617C18.8532 0.908887 18.5811 0.635696 18.2452 0.635696C17.9093 0.635696 17.6372 0.908887 17.6372 1.24617C17.6372 2.30209 17.5072 3.79158 16.9755 5.34689C16.9472 5.34283 16.9217 5.32978 16.8932 5.32978H1.88668C1.33616 3.7269 1.216 2.21857 1.216 1.24617C1.216 0.908887 0.94449 0.635696 0.608002 0.635696C0.272086 0.635696 0 0.908887 0 1.24617C0 4.02561 0.842828 10.7422 8.64804 13.0739C12.4381 14.2064 15.2217 16.371 16.6211 19.1362H2.47706C3.41347 17.5975 4.83714 16.3336 6.65276 15.5184C6.95864 15.3806 7.09583 15.0196 6.95922 14.7124C6.82144 14.4047 6.46184 14.2647 6.15654 14.4047C2.15269 16.2019 -0.255618 20.1136 0.0233943 24.3677C0.276418 28.2315 2.99205 33.0918 9.85913 35.143C13.469 36.221 15.4166 38.3459 16.4631 40.4969H2.37481C3.00707 39.1944 3.96514 37.9112 5.42319 36.8587C5.69584 36.6621 5.75795 36.2807 5.56212 36.0075C5.36571 35.7343 4.98589 35.6708 4.71438 35.868C0.613776 38.829 0.00202322 43.3627 0.00202322 45.8017C0.00202322 46.139 0.274109 46.4122 0.610025 46.4122C0.945941 46.4122 1.21802 46.1396 1.21802 45.8017C1.21802 44.7464 1.348 43.2563 1.88003 41.701C1.90834 41.705 1.93318 41.7181 1.96235 41.7181H16.9688C17.5194 43.321 17.6389 44.8293 17.6389 45.8017C17.6389 46.139 17.911 46.4122 18.2469 46.4122C18.5828 46.4122 18.8549 46.1396 18.8549 45.8017C18.8549 43.0223 18.0121 36.3051 10.2075 33.974H10.2063V33.9743Z" fill="#FEFEFE"/>
</svg>
