<svg width="226" height="48" viewBox="0 0 226 48" fill="none" xmlns="http://www.w3.org/2000/svg">
<path fill-rule="evenodd" clip-rule="evenodd" d="M64.0388 42.8497C64.0388 43.6942 64.0388 44.7971 64.0388 46.2889C69.1937 46.2882 74.3523 46.3252 79.5095 46.3252C81.3808 46.3252 84.0254 46.3191 85.4349 44.7908C86.7694 43.3442 86.8196 42.6737 86.8479 41.0569C86.8947 38.2937 86.9828 36.4454 83.7941 35.3568V35.2315C86.2186 34.4589 86.1435 32.5538 86.1435 30.4115C86.1435 28.9708 85.9109 28.1811 84.7028 26.9213C83.4472 25.6136 80.6625 25.4573 79.1034 25.4573C74.0817 25.4573 69.0577 25.4573 64.0385 25.4573C64.0385 31.2549 64.0385 37.0521 64.0385 42.8497H64.0388ZM128.212 23.1117C130.426 23.1117 132.504 23.6949 134.304 24.7169C134.334 24.734 134.836 25.069 134.866 25.0858C131.729 27.6573 120.609 36.7735 116.656 40.0598C116.116 38.6626 115.818 37.1444 115.818 35.5557C115.818 28.6839 121.368 23.1117 128.212 23.1117H128.212ZM135.94 25.8279C136.211 26.046 136.474 26.2751 136.726 26.515C136.938 26.7162 137.142 26.9242 137.339 27.1396L126.848 47.9652C126.786 47.9759 125.883 47.781 125.834 47.7715C122.047 47.0319 118.875 44.5596 117.169 41.2097C123.428 36.0832 132.825 28.38 135.94 25.8282L135.94 25.8279ZM138.215 28.2095C139.718 30.268 140.607 32.8084 140.607 35.5557C140.607 42.4281 135.056 48 128.212 48H128.204L138.216 28.2095H138.215ZM173.29 46.2254C173.29 44.9189 173.299 41.3301 173.298 39.1797H173.291C173.303 35.0467 173.367 30.3779 173.298 27.7278C173.254 26.0205 172.84 25.5098 171.24 25.4764C170.883 25.4764 170.166 25.4669 169.558 25.5472C168.959 25.6095 168.766 25.7177 168.433 26.1382L164.124 31.5759L159.465 37.314C156.33 33.4526 153.52 30.08 150.446 26.2009C150.113 25.7815 149.919 25.6722 149.321 25.6098C148.712 25.5292 147.973 25.5391 147.616 25.5391C146.37 25.517 145.588 25.9947 145.577 28.1683C145.563 30.8204 145.575 35.1085 145.588 39.2429H145.581C145.58 41.3927 145.6 44.9186 145.6 46.2251C147.194 46.2244 148.43 46.2244 150.582 46.2251C150.582 42.6148 150.581 37.2998 150.582 33.7632C151.609 34.9879 152.962 36.5977 153.991 37.8198L157.712 42.2561C158.173 42.8471 160.471 43.1629 161.208 42.2561C163.52 39.412 166.045 36.3428 168.309 33.6448C168.309 37.1815 168.309 42.6148 168.309 46.2254C169.764 46.2247 171.825 46.2247 173.291 46.2254H173.29H173.29ZM59.5053 46.2884C60.4628 45.9641 60.6727 45.1405 60.6727 44.2847C60.6727 43.6539 60.5797 42.7804 59.5053 42.2523H43.4922V37.582C47.8715 37.582 52.2503 37.582 56.6302 37.582C57.6434 37.3396 57.8563 36.3254 57.8563 35.6923C57.8563 35.058 57.7616 34.1405 56.6302 33.8496H43.4922V29.3083C48.7984 29.3083 54.1052 29.3083 59.4117 29.3083C60.6017 28.8176 60.6609 28.0303 60.7106 27.3647C60.7608 26.7 60.3594 25.7125 59.3926 25.457C52.4322 25.457 45.471 25.457 38.5098 25.457C38.5098 32.4007 38.5098 39.345 38.5098 46.2892C45.5083 46.2875 52.5076 46.2885 59.5056 46.2885L59.5053 46.2884ZM198.649 46.2891C199.607 45.9648 199.817 45.1412 199.817 44.2848C199.817 43.6541 199.723 42.7805 198.649 42.2524H182.637V37.5821C187.015 37.5821 191.395 37.5821 195.774 37.5821C196.788 37.34 197.001 36.3261 197.001 35.6924C197.001 35.0582 196.906 34.1406 195.774 33.8497H182.637V29.3085C187.943 29.3085 193.249 29.3085 198.556 29.3085C199.746 28.8172 199.805 28.0298 199.855 27.3648C199.905 26.6995 199.503 25.7126 198.537 25.4571C191.576 25.4571 184.615 25.4571 177.654 25.4571C177.654 32.4002 177.654 39.3451 177.654 46.2888C184.653 46.2871 191.652 46.2888 198.649 46.2888L198.649 46.2891ZM202.478 46.3508L217.393 46.3436C220.656 46.3419 222.619 46.3584 224.663 44.1178C226.034 42.6141 225.972 39.812 225.972 35.7368C225.972 32.1117 226.082 29.1922 224.51 27.4283C222.604 25.2898 219.444 25.456 216.82 25.456L202.486 25.4577L202.478 46.3511H202.478L202.478 46.3508ZM207.533 29.6724L209.748 29.6657C213.127 29.6568 218.633 29.2786 219.895 30.3969C221.155 31.514 221.072 33.611 221.03 36.715C220.991 39.6815 220.904 40.3787 220.115 41.2945C218.94 42.6576 211.866 42.2078 210.151 42.2072L207.525 42.2055L207.532 29.6727H207.533V29.6724ZM95.3565 46.2891V40.127H106.606C107.646 40.127 109.214 39.2308 110.112 38.4559C111.731 37.0604 111.866 33.6455 111.794 32.0319C111.669 29.2586 110.979 28.082 110.08 27.1163C109.009 25.9664 107.027 25.4159 105.494 25.4183C100.423 25.4255 95.3487 25.4574 90.2779 25.4574C90.2779 31.9989 90.2779 39.7491 90.2779 46.2897C91.969 46.2897 93.6636 46.2889 95.3562 46.2897V46.2889L95.3565 46.2891ZM95.34 36.0654V30.8043L95.3334 29.6776H99.8297C100.541 29.6776 103.951 29.6124 104.625 29.7014C105.383 29.8029 106.838 30.4659 106.792 33.0003C106.746 35.5831 105.231 35.8052 104.472 35.9239C103.726 36.0407 100.541 36.0657 99.7751 36.0657H95.3403L95.34 36.0654ZM68.9973 42.3931V37.6746L79.9266 37.6807C81.239 37.6819 81.9265 38.2764 81.96 40.0829C81.9984 42.1495 80.4811 42.3664 79.9583 42.3676L68.9981 42.3931H68.9973L68.9973 42.3931ZM68.9973 33.8691V29.452L79.2033 29.4578C80.5158 29.4578 81.1374 30.4033 81.1374 31.7846C81.1374 33.3257 79.7587 33.8686 79.2345 33.8686H68.9973V33.8693V33.8691Z" fill="#13A8B6"/>
<path fill-rule="evenodd" clip-rule="evenodd" d="M38.3918 15.2318V12.2244H39.1624C39.5327 12.2244 39.8224 12.0663 40.0283 11.7511C40.2354 11.4359 40.4353 10.6526 40.628 9.39826C40.8203 8.14571 40.9806 6.294 41.1089 3.84488L41.2799 0.192505H52.8989V15.2318H49.8823V3.02821H44.1052L44.0622 4.14533C43.9195 7.12431 43.6919 9.39159 43.3774 10.9458C43.0634 12.4999 42.603 13.6022 41.9967 14.2536C41.3905 14.9055 40.5318 15.2312 39.4186 15.2312H38.3906L38.3918 15.2319L38.3918 15.2318Z" fill="#B386BA"/>
<path fill-rule="evenodd" clip-rule="evenodd" d="M63.1705 3.37158L60.4113 9.64536H65.9315L63.1711 3.37158H63.1704H63.1705ZM57.9278 15.2318H54.7402L61.4808 0.192505H64.8616L71.6022 15.2318H68.4135L67.1943 12.4816H59.149L57.9287 15.2318H57.9279H57.9278Z" fill="#B386BA"/>
<path fill-rule="evenodd" clip-rule="evenodd" d="M81.9153 8.65762H76.4589V12.3967H81.9153C82.7858 12.3967 83.4135 12.2494 83.7991 11.9556C84.1847 11.6621 84.377 11.1859 84.377 10.5273C84.377 9.86869 84.1847 9.3925 83.7991 9.099C83.4135 8.80551 82.7858 8.6579 81.9153 8.6579V8.65762ZM82.1077 15.2324H73.4414V0.193115H86.1303V3.02882H76.4583V5.84394H82.1077C83.9478 5.84394 85.2857 6.21225 86.1202 6.95091C86.9546 7.6884 87.3723 8.8815 87.3723 10.5273C87.3723 12.1748 86.9546 13.3708 86.1202 14.115C85.2857 14.8603 83.9484 15.2321 82.1077 15.2321V15.2324Z" fill="#B386BA"/>
<path fill-rule="evenodd" clip-rule="evenodd" d="M93.2345 3.98501C92.4922 4.76543 92.1219 6.00841 92.1219 7.71221C92.1219 9.41776 92.4922 10.6555 93.2345 11.4298C93.9757 12.2036 95.1668 12.5902 96.8077 12.5902C98.4474 12.5902 99.6391 12.2036 100.381 11.4298C101.123 10.6561 101.493 9.41776 101.493 7.71221C101.493 6.00841 101.123 4.76543 100.381 3.98501C99.6397 3.2046 98.4474 2.81338 96.8077 2.81338C95.1668 2.81338 93.9757 3.20402 93.2345 3.98501ZM96.808 0C99.4898 0 101.441 0.608727 102.661 1.82618C103.88 3.04364 104.49 5.00526 104.49 7.71221C104.49 10.405 103.88 12.3645 102.661 13.5887C101.441 14.8128 99.4898 15.4256 96.808 15.4256C94.112 15.4256 92.1571 14.8128 90.9458 13.5887C89.7321 12.3645 89.127 10.405 89.127 7.71221C89.127 5.00526 89.7321 3.04364 90.9458 1.82618C92.1571 0.608727 94.112 0 96.808 0Z" fill="#B386BA"/>
<path fill-rule="evenodd" clip-rule="evenodd" d="M109.946 7.43258H114.376C115.232 7.43258 115.855 7.25684 116.248 6.90593C116.641 6.5556 116.836 5.99269 116.836 5.21923C116.836 4.46028 116.641 3.90549 116.248 3.554C115.856 3.20309 115.232 3.02793 114.376 3.02793H109.946V7.43258ZM106.93 15.2318V0.192505H114.547C116.401 0.192505 117.746 0.589815 118.581 1.38444C119.415 2.17965 119.833 3.45772 119.833 5.21923C119.833 6.98075 119.415 8.26288 118.581 9.06533C117.746 9.86721 116.401 10.268 114.547 10.268H109.946V15.2315H106.93V15.2318Z" fill="#B386BA"/>
<path fill-rule="evenodd" clip-rule="evenodd" d="M127.92 3.37158L125.161 9.64536H130.681L127.921 3.37158H127.92H127.92ZM122.678 15.2318H119.49L126.231 0.192505H129.611L136.352 15.2318H133.163L131.944 12.4816H123.898L122.678 15.2318H122.678Z" fill="#B386BA"/>
<path fill-rule="evenodd" clip-rule="evenodd" d="M134.961 3.02879V0.192505H149.618V3.02879H143.798V15.2318H140.781V3.02879H134.961Z" fill="#B386BA"/>
<path fill-rule="evenodd" clip-rule="evenodd" d="M154.604 3.98501C153.862 4.76543 153.491 6.00841 153.491 7.71221C153.491 9.41776 153.862 10.6555 154.604 11.4298C155.345 12.2036 156.536 12.5902 158.177 12.5902C159.817 12.5902 161.009 12.2036 161.75 11.4298C162.492 10.6561 162.863 9.41776 162.863 7.71221C162.863 6.00841 162.493 4.76543 161.75 3.98501C161.009 3.2046 159.817 2.81338 158.177 2.81338C156.536 2.81338 155.345 3.20402 154.604 3.98501ZM158.177 0C160.859 0 162.811 0.608727 164.029 1.82618C165.249 3.04364 165.859 5.00526 165.859 7.71221C165.859 10.405 165.248 12.3645 164.029 13.5887C162.81 14.8128 160.859 15.4256 158.177 15.4256C155.481 15.4256 153.526 14.8128 152.315 13.5887C151.101 12.3645 150.496 10.405 150.496 7.71221C150.496 5.00526 151.101 3.04364 152.315 1.82618C153.526 0.608727 155.481 0 158.177 0Z" fill="#B386BA"/>
<path fill-rule="evenodd" clip-rule="evenodd" d="M171.315 7.43258H175.745C176.601 7.43258 177.224 7.25684 177.617 6.90593C178.01 6.5556 178.206 5.99269 178.206 5.21923C178.206 4.46028 178.01 3.90549 177.617 3.554C177.225 3.20309 176.601 3.02793 175.745 3.02793H171.315V7.43258ZM168.299 15.2318V0.192505H175.917C177.77 0.192505 179.115 0.589815 179.95 1.38444C180.784 2.17965 181.202 3.45772 181.202 5.21923C181.202 6.98075 180.784 8.26288 179.95 9.06533C179.115 9.86721 177.77 10.268 175.917 10.268H171.315V15.2315H168.299V15.2318Z" fill="#B386BA"/>
<path fill-rule="evenodd" clip-rule="evenodd" d="M186.38 15.2318H183.363V0.192505H186.38V10.8057L195.154 0.192505H198.149V15.2318H195.154V4.61804L186.38 15.2318Z" fill="#B386BA"/>
<path fill-rule="evenodd" clip-rule="evenodd" d="M204.812 3.5219C204.419 3.85164 204.224 4.38235 204.224 5.11289C204.224 5.84342 204.419 6.37618 204.812 6.71346C205.204 7.05015 205.829 7.21777 206.685 7.21777H211.52V3.02802H206.685C205.829 3.02802 205.204 3.19303 204.812 3.52161V3.52189V3.5219ZM200.521 15.2319L204.801 9.92502C203.56 9.71012 202.654 9.21304 202.084 8.43146C201.513 7.65163 201.228 6.54524 201.228 5.11231C201.228 3.37892 201.645 2.12522 202.479 1.35176C203.315 0.579178 204.658 0.192017 206.513 0.192017H214.516V15.2313H211.52V10.0532H208.417L204.244 15.2313H200.521V15.232V15.2319Z" fill="#B386BA"/>
<path fill-rule="evenodd" clip-rule="evenodd" d="M17.1439 20.3584C17.4035 21.1246 17.565 21.9279 17.6193 22.7611C17.7158 24.2326 17.4549 25.6342 16.9007 26.8975H1.79079C1.48808 26.069 1.2963 25.1978 1.23709 24.2892C1.1461 22.8983 1.3737 21.5674 1.86645 20.3584H17.1444H17.1439H17.1439ZM10.2063 33.9743C6.51007 32.8703 3.76642 30.7857 2.33495 28.1176H16.2384C15.3025 29.5618 13.9335 30.7526 12.2016 31.5295C11.8951 31.6673 11.7579 32.0284 11.8946 32.3355C11.9957 32.5623 12.2175 32.6971 12.45 32.6971C12.5323 32.6971 12.6169 32.68 12.6972 32.6438C15.0004 31.6099 16.7713 29.8756 17.8111 27.7794C17.8212 27.7591 17.8319 27.7397 17.84 27.7183C18.5875 26.1856 18.9479 24.4649 18.8318 22.6805C18.5788 18.8167 15.8626 13.9564 8.99551 11.9046C5.38563 10.8267 3.43802 8.70177 2.39156 6.55077H16.4804C15.8481 7.8532 14.8901 9.13707 13.432 10.1889C13.1594 10.3856 13.0973 10.7669 13.2931 11.0401C13.4115 11.2063 13.5978 11.2947 13.787 11.2947C13.9095 11.2947 14.0337 11.2579 14.1408 11.1802C18.2414 8.22035 18.8532 3.68548 18.8532 1.24621C18.8532 0.908933 18.5811 0.635742 18.2452 0.635742C17.9093 0.635742 17.6372 0.908933 17.6372 1.24621C17.6372 2.30213 17.5072 3.79162 16.9755 5.34694C16.9472 5.34288 16.9217 5.32982 16.8932 5.32982H1.88668C1.33616 3.72695 1.216 2.21861 1.216 1.24621C1.216 0.908933 0.94449 0.635742 0.608002 0.635742C0.272086 0.635742 0 0.908933 0 1.24621C0 4.02566 0.842828 10.7423 8.64804 13.0739C12.4381 14.2064 15.2217 16.3711 16.6211 19.1363H2.47706C3.41347 17.5975 4.83714 16.3336 6.65276 15.5184C6.95864 15.3807 7.09583 15.0196 6.95922 14.7125C6.82144 14.4048 6.46184 14.2647 6.15654 14.4048C2.15269 16.202 -0.255618 20.1136 0.0233943 24.3678C0.276418 28.2316 2.99205 33.0918 9.85913 35.1431C13.469 36.221 15.4166 38.3459 16.4631 40.4969H2.37481C3.00707 39.1945 3.96514 37.9112 5.42319 36.8588C5.69584 36.6621 5.75795 36.2808 5.56212 36.0076C5.36571 35.7344 4.98589 35.6709 4.71438 35.8681C0.613776 38.8291 0.00202322 43.3628 0.00202322 45.8018C0.00202322 46.139 0.274109 46.4122 0.610025 46.4122C0.945941 46.4122 1.21802 46.1396 1.21802 45.8018C1.21802 44.7464 1.348 43.2564 1.88003 41.701C1.90834 41.7051 1.93318 41.7182 1.96235 41.7182H16.9688C17.5194 43.321 17.6389 44.8294 17.6389 45.8018C17.6389 46.139 17.911 46.4122 18.2469 46.4122C18.5828 46.4122 18.8549 46.1396 18.8549 45.8018C18.8549 43.0223 18.0121 36.3051 10.2075 33.974H10.2063V33.9743Z" fill="#B386BA"/>
</svg>
