<svg width="49" height="48" viewBox="0 0 49 48" fill="none" xmlns="http://www.w3.org/2000/svg">
<path fill-rule="evenodd" clip-rule="evenodd" d="M31.2145 7.06533L30.1511 8.13074L30.5635 8.53797L30.9758 8.94521L29.0264 10.8956L27.077 12.846L26.4666 12.8929C25.719 12.9504 25.2007 13.0977 24.5174 13.4467C24.0484 13.6862 23.6341 14.0731 20.4674 17.2275L16.9398 20.7413L21.049 24.8465L25.1581 28.9517L27.8132 26.28C29.2735 24.8105 30.4957 23.6181 30.5293 23.6303C30.5628 23.6424 30.8652 23.8693 31.2013 24.1347C33.3412 25.8239 34.5338 28.6499 34.2606 31.3834C34.0029 33.9611 32.6423 36.2126 30.4976 37.6104C29.3263 38.3739 28.1479 38.7814 26.723 38.9157C25.1625 39.0629 23.6835 38.7899 22.2616 38.0923C20.8735 37.4113 19.8247 36.4799 18.9449 35.1468L18.5015 34.475L21.0616 34.4377L23.6217 34.4004L23.642 32.8889L23.6621 31.3775H16.8311H10V32.9076V34.4377H12.6022H15.2045L15.3366 34.7923C15.769 35.953 16.6279 37.3178 17.6009 38.3902L18.1459 38.9907H17.0958H16.0458V40.4788V41.9668L20.9907 41.9902C23.7104 42.0031 28.1608 42.0033 30.8805 41.9906L35.8253 41.9676V40.4791V38.9907H34.7643H33.7032L34.0799 38.5989C35.9966 36.6047 37.1235 34.1183 37.3051 31.4822C37.4884 28.8201 36.8283 26.352 35.3505 24.1748C34.8325 23.4116 33.5605 22.0626 32.9504 21.6292C32.4959 21.3064 32.5001 21.3309 32.7702 20.5921C32.869 20.3216 32.9524 19.8707 32.9807 19.4537L33.0276 18.7632L34.9663 16.8234L36.9049 14.8838L37.3361 15.3104L37.7673 15.7371L38.8116 14.6949C39.3859 14.1216 39.8559 13.6051 39.8559 13.5471C39.8559 13.4334 32.4592 6 32.3461 6C32.3087 6 31.7995 6.47941 31.2145 7.06533ZM33.139 14.2466L31.5711 15.8144L30.7692 15.0125L29.9672 14.2106L31.5332 12.6433L33.0991 11.076L33.9029 11.8774L34.7068 12.6788L33.139 14.2466ZM27.4009 16.1047C27.761 16.2768 29.6759 18.2281 29.8177 18.5674C29.9739 18.9412 29.9589 19.5327 29.7846 19.8673C29.7053 20.0196 28.6304 21.1517 27.396 22.3831L25.1516 24.6219L23.1927 22.6632L21.2339 20.7043L23.4354 18.5005C25.8637 16.0697 26.0922 15.894 26.7566 15.946C26.9619 15.962 27.2518 16.0334 27.4009 16.1047Z" fill="#00A7B5"/>
</svg>
