<svg width="24" height="24" viewBox="0 0 24 24" fill="none" xmlns="http://www.w3.org/2000/svg">
<path d="M11.9913 2C10.0498 2.00369 8.15125 2.5719 6.52691 3.63543C4.90258 4.69896 3.62258 6.21189 2.84282 7.98996C2.06306 9.76803 1.81719 11.7345 2.13517 13.6498C2.45315 15.5651 3.32125 17.3466 4.63373 18.7773C5.57112 19.7934 6.70882 20.6044 7.97512 21.159C9.24142 21.7137 10.6089 22 11.9913 22C13.3738 22 14.7412 21.7137 16.0075 21.159C17.2739 20.6044 18.4115 19.7934 19.3489 18.7773C20.6614 17.3466 21.5295 15.5651 21.8475 13.6498C22.1655 11.7345 21.9196 9.76803 21.1399 7.98996C20.3601 6.21189 19.0801 4.69896 17.4558 3.63543C15.8314 2.5719 13.9329 2.00369 11.9913 2ZM11.9913 20.0186C9.91765 20.0155 7.92605 19.2081 6.43559 17.7663C6.8881 16.6647 7.65789 15.7225 8.64713 15.0594C9.63637 14.3963 10.8004 14.0422 11.9913 14.0422C13.1823 14.0422 14.3463 14.3963 15.3355 15.0594C16.3248 15.7225 17.0946 16.6647 17.5471 17.7663C16.0566 19.2081 14.065 20.0155 11.9913 20.0186ZM9.98926 10.0083C9.98926 9.61231 10.1067 9.22523 10.3267 8.89599C10.5467 8.56675 10.8593 8.31014 11.2252 8.15861C11.591 8.00707 11.9936 7.96743 12.3819 8.04468C12.7703 8.12193 13.127 8.31261 13.407 8.5926C13.687 8.87259 13.8777 9.22933 13.9549 9.61769C14.0322 10.0061 13.9925 10.4086 13.841 10.7744C13.6895 11.1403 13.4329 11.4529 13.1036 11.6729C12.7744 11.8929 12.3873 12.0103 11.9913 12.0103C11.4604 12.0103 10.9511 11.7994 10.5757 11.424C10.2002 11.0485 9.98926 10.5393 9.98926 10.0083ZM18.9085 16.0145C18.0141 14.4847 16.6375 13.2947 14.9944 12.631C15.5041 12.053 15.8362 11.3403 15.9509 10.5783C16.0656 9.8163 15.9579 9.03739 15.6409 8.33504C15.3238 7.6327 14.8108 7.03676 14.1635 6.61874C13.5161 6.20071 12.7619 5.97836 11.9913 5.97836C11.2207 5.97836 10.4665 6.20071 9.81918 6.61874C9.17183 7.03676 8.65886 7.6327 8.34181 8.33504C8.02476 9.03739 7.91711 9.8163 8.03177 10.5783C8.14643 11.3403 8.47853 12.053 8.98823 12.631C7.34513 13.2947 5.96858 14.4847 5.07418 16.0145C4.36139 14.8003 3.98478 13.4183 3.98306 12.0103C3.98306 9.88642 4.82678 7.84948 6.32863 6.34764C7.83047 4.8458 9.86741 4.00207 11.9913 4.00207C14.1153 4.00207 16.1522 4.8458 17.654 6.34764C19.1559 7.84948 19.9996 9.88642 19.9996 12.0103C19.9979 13.4183 19.6213 14.8003 18.9085 16.0145Z" fill="#00A7B5"/>
</svg>
