<svg width="32" height="32" viewBox="0 0 32 32" fill="none" xmlns="http://www.w3.org/2000/svg">
<path fill-rule="evenodd" clip-rule="evenodd" d="M22.7183 0.0829183C22.6152 0.129432 21.5695 1.13411 20.3946 2.31552C18.5191 4.20146 18.253 4.49292 18.214 4.70405C18.1424 5.09123 18.2645 5.35968 18.7155 5.80638L19.1244 6.21137L10.0982 15.2467C3.87099 21.4802 0.988196 24.4077 0.801578 24.6872C-0.131388 26.0851 -0.258176 27.8395 0.464478 29.3528C1.03884 30.5556 2.17818 31.4965 3.49382 31.8545C4.05142 32.0062 5.3108 32.007 5.85896 31.856C6.398 31.7075 6.84782 31.5016 7.3184 31.1878C7.58579 31.0095 10.6399 28.0009 16.749 21.8977L25.7842 12.8712L26.1893 13.2802C26.6362 13.7313 26.9046 13.8534 27.2918 13.7819C27.5032 13.7428 27.7951 13.4755 29.7069 11.57C32.0277 9.25685 32.066 9.20846 31.975 8.70524C31.9361 8.49012 31.4961 8.02835 27.7938 4.31656C25.4042 1.92097 23.5711 0.131433 23.4549 0.0809178C23.2051 -0.0276147 22.9622 -0.0269895 22.7183 0.0829183ZM23.796 2.94671L24.4381 3.58671L23.1102 4.9158L21.7822 6.24488L21.1405 5.60544C20.7876 5.25371 20.4989 4.93762 20.4989 4.90292C20.4989 4.82115 23.0101 2.30671 23.0918 2.30671C23.1259 2.30671 23.4428 2.59473 23.796 2.94671ZM26.4386 5.58938L27.0933 6.24632L25.7655 7.57409L24.4378 8.90187L23.7661 8.23016L23.0944 7.55846L24.4062 6.24551C25.1277 5.52336 25.7329 4.93249 25.751 4.93249C25.7692 4.93249 26.0786 5.22808 26.4386 5.58938ZM15.3571 20.6013C5.37563 30.5738 6.09116 29.9113 5.12474 30.077C3.37641 30.3768 1.73936 28.8866 1.88665 27.1294C1.92941 26.6196 2.1049 26.1016 2.35717 25.7407C2.46132 25.5917 3.02656 24.9923 3.61329 24.4086L4.68005 23.3472L5.75931 24.4181C6.62357 25.2756 6.88802 25.5023 7.08664 25.5563C7.6565 25.711 7.28895 26.0406 13.8294 19.5102C17.2103 16.1345 19.8726 13.4278 19.9406 13.2969C20.0854 13.0185 20.0944 12.7423 19.9674 12.4746C19.9158 12.3658 19.4093 11.8133 18.842 11.2467L17.8104 10.2166L19.1386 8.8873L20.4668 7.55809L22.4525 9.54318L24.4383 11.5282L15.3571 20.6013ZM29.6891 8.90074C29.6891 8.98251 27.178 11.497 27.0962 11.497C27.0622 11.497 26.7453 11.2089 26.392 10.8569L25.7499 10.2169L27.0779 8.88786L28.4059 7.55878L29.0475 8.19822C29.4004 8.54995 29.6891 8.86604 29.6891 8.90074ZM12.5438 18.1079L7.30858 23.343L6.68284 22.7196C6.33867 22.3768 6.05709 22.0676 6.05709 22.0327C6.05709 21.9977 8.3991 19.627 11.2615 16.7644L16.4659 11.5597L17.1225 12.2162L17.7789 12.8727L12.5438 18.1079Z" fill="#FEFEFE"/>
</svg>
