<svg width="33" height="23" viewBox="0 0 33 23" fill="none" xmlns="http://www.w3.org/2000/svg">
<path fill-rule="evenodd" clip-rule="evenodd" d="M10.798 0.0287455C10.0017 0.123451 9.51376 0.210967 8.89727 0.369622C4.74238 1.4392 1.49909 4.82782 0.587293 9.05192C0.346124 10.1693 0.317306 10.841 0.339247 14.8342L0.360189 18.6475L0.52972 19.1475C0.765014 19.8419 1.09589 20.3797 1.6088 20.9015C2.89847 22.2136 4.87415 22.6016 6.50339 21.8629L6.90834 21.6793H10.0167C11.8349 21.6793 13.2649 21.6532 13.4619 21.6164C13.8591 21.5423 14.458 21.2599 14.7727 20.9983C15.0807 20.7424 15.4274 20.2216 15.5887 19.7727C15.7041 19.4516 15.7289 19.2097 15.7612 18.093L15.7989 16.7885L18.862 15.1062C20.5467 14.1809 22.0747 13.3247 22.2577 13.2034C22.7575 12.8722 23.5289 12.1062 23.8928 11.5798C24.2295 11.0927 24.6393 10.2733 24.7727 9.82013C24.8467 9.56864 24.863 9.55539 25.138 9.52276C26.3955 9.37329 27.171 9.16532 28.0512 8.74143C29.5213 8.03342 30.922 6.60003 31.6122 5.09737C32.1053 4.02386 32.3323 2.9216 32.3329 1.59741L32.3333 0.800389L28.3481 0.800264C26.1564 0.800139 23.9973 0.772696 23.5504 0.739253C23.1034 0.705747 21.4437 0.593788 19.8622 0.490394C18.2806 0.387 15.9076 0.231658 14.5887 0.14508C12.4051 0.00180303 11.308 -0.0318907 10.798 0.0287455ZM15.7364 2.11288C17.8681 2.24966 20.3295 2.40544 21.2062 2.45907C22.0829 2.51271 22.8936 2.57097 23.0076 2.58853L23.2151 2.62048L23.1901 5.63304C23.1622 8.99135 23.1681 8.93946 22.7068 9.89583C22.4187 10.4929 21.9235 11.1089 21.4359 11.4765C21.0452 11.7711 6.26272 19.9234 5.6928 20.1587C4.70043 20.5681 3.65211 20.327 2.89203 19.5146C2.66068 19.2672 2.47371 18.9917 2.38063 18.761L2.23391 18.3974V14.3967C2.23391 9.9354 2.24073 9.84507 2.68062 8.48932C3.91922 4.67192 7.5027 1.97967 11.4856 1.87415C11.6919 1.86871 13.6048 1.97611 15.7364 2.11288ZM30.3604 2.91016C30.2863 3.3368 29.9537 4.26372 29.7327 4.65967C29.1767 5.65548 28.2446 6.54583 27.2334 7.04692C26.6903 7.31604 25.6703 7.61415 25.2927 7.61415H25.0819V5.14495V2.67574H27.7415H30.4011L30.3604 2.91016ZM13.8908 18.3505C13.8889 18.9855 13.8157 19.2778 13.603 19.4997C13.3362 19.7782 13.1127 19.8121 11.6769 19.7915L10.3678 19.7727L12.0832 18.824C13.0267 18.3023 13.8197 17.8733 13.8454 17.8707C13.8712 17.8682 13.8916 18.0841 13.8908 18.3505Z" fill="#FEFEFE"/>
</svg>
