<svg width="27" height="34" viewBox="0 0 27 34" fill="none" xmlns="http://www.w3.org/2000/svg">
<path fill-rule="evenodd" clip-rule="evenodd" d="M12.1251 0.0554216C10.3761 0.210651 8.7059 0.771663 7.40305 1.64161C6.68529 2.12086 5.43612 3.38566 4.93024 4.14541C4.15832 5.30472 3.53857 6.71555 3.00634 8.52525C2.82628 9.13766 2.78498 9.39423 2.7948 9.83958C2.84696 12.2003 4.54798 15.7382 7.62677 19.8892L8.20535 20.6695L7.35761 21.584C6.01228 23.0355 3.43606 25.627 2.09184 26.881C1.41282 27.5144 0.81355 28.1167 0.760216 28.2195C0.635009 28.4604 0.635908 28.9219 0.762015 29.1602C0.816387 29.263 1.89808 30.379 3.16586 31.6403C5.2959 33.7596 5.49278 33.9372 5.76021 33.9803C6.32765 34.0718 6.50211 33.9358 8.88603 31.5439C10.0903 30.3356 11.5861 28.7944 12.21 28.1192C12.8339 27.4439 13.366 26.8913 13.3925 26.8913C13.4189 26.8913 13.9813 27.4749 14.6421 28.1883C15.303 28.9017 16.8025 30.4447 17.9744 31.6172C20.2886 33.9327 20.4658 34.07 21.0226 33.9803C21.2901 33.9372 21.4869 33.7596 23.617 31.6403C24.8848 30.379 25.9665 29.263 26.0208 29.1602C26.1472 28.9214 26.1477 28.4605 26.0219 28.2172C25.9681 28.1131 25.3689 27.511 24.6902 26.8792C23.3958 25.674 20.5929 22.8573 19.3171 21.4801L18.5673 20.6707L19.2382 19.7516C20.6913 17.7606 21.6954 16.1487 22.5517 14.4325C23.4037 12.7249 23.8309 11.4462 23.9728 10.1791C24.0518 9.4742 23.9966 9.17557 23.5141 7.69514C22.8018 5.51017 21.9768 4.07306 20.6906 2.77629C19.9065 1.98583 19.252 1.49731 18.4066 1.07181C16.7125 0.21916 14.4344 -0.149476 12.1251 0.0554216ZM15.5013 2.32278C16.2113 2.47635 16.8669 2.69204 17.369 2.93713C17.7736 3.13455 18.5796 3.66112 18.5796 3.72801C18.5796 3.88974 18.0716 5.72503 17.8878 6.22766L17.6654 6.8355L17.4441 6.66678C16.6459 6.0579 15.9674 5.7251 15.0661 5.50021C14.1979 5.28362 12.5799 5.28494 11.7051 5.50298C10.9515 5.69079 10.1039 6.08613 9.55219 6.50692L9.13714 6.82347L9.01131 6.533C8.83339 6.1221 8.44532 4.80804 8.33664 4.24855C8.2721 3.91603 8.26629 3.74219 8.31693 3.66056C8.43169 3.47545 9.29597 2.9722 9.89807 2.73991C10.5559 2.4861 11.3076 2.29061 11.9733 2.20027C12.7486 2.09506 14.774 2.16541 15.5013 2.32278ZM6.64462 6.15599C7.00281 7.44936 8.22154 10.1024 9.27404 11.8803C9.79548 12.7609 11.0981 14.7423 11.6834 15.5452L12.0607 16.0626L11.741 16.479C11.3038 17.0485 9.75031 18.9124 9.67304 18.9601C9.60331 19.0033 9.07018 18.3008 8.1848 16.9992C6.26457 14.1763 5.13832 11.7778 4.92042 10.0471C4.87179 9.66069 5.13265 8.66927 5.60007 7.46417C5.87822 6.74723 6.39123 5.72365 6.47251 5.72365C6.50128 5.72365 6.57869 5.91824 6.64462 6.15599ZM20.701 6.37895C21.0302 7.01972 21.3805 7.93269 21.6703 8.90571C21.9014 9.68131 21.9054 9.71506 21.8284 10.2546C21.3413 13.6709 17.2639 19.6064 10.2811 27.0642C9.56866 27.8252 8.30704 29.1277 7.47762 29.9589L5.96953 31.47L4.63065 30.1324C3.89427 29.3968 3.29535 28.7635 3.29964 28.7251C3.30393 28.6867 3.93426 28.0611 4.70044 27.3347C6.14337 25.9668 8.29092 23.7531 9.79846 22.0797C14.9955 16.3107 18.4837 11.0344 19.9686 6.69646C20.1191 6.25651 20.259 5.85079 20.2794 5.79476C20.3258 5.66685 20.3579 5.71133 20.701 6.37895ZM14.5954 7.58965C15.254 7.75809 15.8726 8.081 16.2621 8.4596C16.7504 8.93407 16.752 8.89873 16.1911 9.9163C15.3668 11.4114 13.5368 14.2322 13.391 14.2322C13.3108 14.2322 11.9054 12.1281 11.1961 10.9464C10.5106 9.80423 10.1402 9.10252 10.1402 8.94611C10.1402 8.77968 10.7988 8.18172 11.2428 7.94507C12.1593 7.45656 13.5136 7.31302 14.5954 7.58965ZM17.4259 22.5368C17.6712 22.887 20.7552 26.0683 22.0383 27.2948C22.8183 28.0403 23.4648 28.6825 23.4751 28.722C23.4853 28.7614 22.8927 29.3937 22.1582 30.1272L20.8225 31.4608L18.8182 29.4354C17.1417 27.7413 16.0329 26.5787 14.9923 25.424L14.8234 25.2364L15.2263 24.7669C15.4479 24.5086 15.9852 23.8692 16.4202 23.3461C16.8552 22.823 17.2372 22.3949 17.2689 22.3949C17.3006 22.3949 17.3713 22.4587 17.4259 22.5368Z" fill="#FEFEFE"/>
</svg>
