<svg width="33" height="32" viewBox="0 0 33 32" fill="none" xmlns="http://www.w3.org/2000/svg">
<path fill-rule="evenodd" clip-rule="evenodd" d="M7.24782 0.0422551C4.74032 0.438496 2.74423 2.43221 1.63527 5.64824C0.950328 7.6347 0.666504 9.49228 0.666504 11.9893C0.666504 14.9904 1.15614 17.499 2.16201 19.6515C2.72897 20.8648 3.73415 22.1508 4.66669 22.8562C5.16397 23.2323 6.04096 23.6493 6.70276 23.8243C7.45076 24.022 8.87651 24.0215 9.61169 23.8233C11.5198 23.3088 12.8041 21.9201 13.2089 19.9334C13.5543 18.2389 13.186 16.4956 12.1891 15.1063L11.858 14.6447L12.1221 14.2506C12.2673 14.0338 12.4503 13.6497 12.5288 13.3971L12.6713 12.9377L12.8306 13.0212C13.6163 13.4332 14.0133 14.7261 14.215 17.5298C14.2631 18.1989 14.2833 20.6502 14.2764 24.9873L14.266 31.448L14.3992 31.635C14.6615 32.0035 15.0826 32.1045 15.4421 31.8852C15.8723 31.6229 15.846 32.0176 15.8836 25.2573C15.9183 19.0113 15.8843 17.4748 15.6743 15.8054C15.4874 14.3202 15.0393 13.0142 14.4937 12.3647C14.1449 11.9495 13.6221 11.584 13.1446 11.4214L12.7229 11.2778L12.5963 10.7734C12.4721 10.2786 12.2536 9.74189 12.0442 9.41709C11.9398 9.25519 11.9427 9.24718 12.2972 8.71444C13.5638 6.81081 13.68 4.39815 12.602 2.38673C12.0566 1.36935 10.8697 0.485852 9.61169 0.161115C9.03904 0.0132909 7.81935 -0.0480783 7.24782 0.0422551ZM24.1152 0.0664023C21.9571 0.479283 20.5289 1.89102 20.09 4.04526C19.76 5.66438 20.0872 7.34011 21.0016 8.71444C21.3562 9.24718 21.359 9.25519 21.2546 9.41709C21.0452 9.74189 20.8268 10.2786 20.7026 10.7734L20.576 11.2778L20.1542 11.4214C19.6767 11.584 19.1539 11.9495 18.8052 12.3647C18.2595 13.0142 17.8114 14.3202 17.6246 15.8054C17.4141 17.4785 17.3804 19.0086 17.416 25.2589C17.4546 32.0171 17.4284 31.6241 17.8567 31.8852C18.2077 32.0993 18.6199 32.0075 18.8985 31.6533L19.0317 31.484L19.0233 25.0053C19.0148 18.5007 19.0416 17.4025 19.2475 15.8323C19.3467 15.0749 19.5761 14.2009 19.7851 13.7834C19.9388 13.4762 20.2416 13.1401 20.4741 13.0182C20.6384 12.9321 20.6397 12.9332 20.7132 13.2269C20.7973 13.563 21.0897 14.1656 21.3083 14.4535L21.4561 14.648L21.1487 15.0547C19.5772 17.1342 19.5709 20.2904 21.1346 22.216C21.7455 22.9684 22.6659 23.5479 23.6872 23.8233C24.091 23.9322 24.3687 23.9589 25.126 23.9615C26.236 23.9654 26.7869 23.8476 27.6909 23.413C29.4158 22.5837 30.8136 20.7955 31.6636 18.3304C32.3485 16.344 32.6324 14.4864 32.6324 11.9893C32.6324 8.98826 32.1427 6.47969 31.1369 4.32721C30.5699 3.1139 29.5647 1.82784 28.6322 1.1225C28.1413 0.751159 27.2586 0.329583 26.6274 0.164931C25.9774 -0.00460066 24.7399 -0.0531454 24.1152 0.0664023ZM9.17629 1.69997C10.4858 2.03428 11.3867 3.01118 11.6505 4.38276C11.7448 4.87346 11.7268 5.8401 11.6142 6.32787C11.4772 6.92116 11.0297 7.8183 10.6652 8.23062C10.5005 8.41698 10.1327 8.71982 9.84797 8.90349C9.56321 9.08722 9.33018 9.26226 9.33018 9.29247C9.33018 9.32269 9.51016 9.43692 9.73018 9.54627C10.2772 9.81827 10.5863 10.099 10.8135 10.5301C11.1738 11.2134 11.2518 12.16 11.0089 12.8999C10.8094 13.5076 10.4636 13.8629 9.7283 14.2158C9.40613 14.3705 9.14251 14.5334 9.14251 14.5779C9.14251 14.6224 9.39975 14.8111 9.71416 14.9972C10.4449 15.4298 10.8751 15.8956 11.2404 16.6499C11.5841 17.3597 11.7158 17.9255 11.7135 18.683C11.7099 19.9021 11.396 20.7434 10.6758 21.4635C10.0698 22.0695 9.23184 22.3739 8.16974 22.3739C5.15858 22.3739 3.16349 19.6993 2.4068 14.648C2.24527 13.5701 2.24527 10.4086 2.4068 9.33064C3.05996 4.97061 4.65431 2.3537 7.03819 1.72869C7.60384 1.58042 8.65281 1.56629 9.17629 1.69997ZM26.236 1.72581C28.6373 2.33994 30.236 4.9511 30.8921 9.33064C31.0536 10.4086 31.0536 13.5701 30.8921 14.648C30.3763 18.0907 29.3312 20.3463 27.6883 21.5622C26.9326 22.1214 26.1366 22.3739 25.1291 22.3739C24.067 22.3739 23.2291 22.0695 22.6231 21.4635C21.9029 20.7434 21.5889 19.9021 21.5854 18.683C21.5831 17.9255 21.7148 17.3597 22.0585 16.6499C22.4238 15.8956 22.854 15.4298 23.5847 14.9972C23.8991 14.8111 24.1564 14.6224 24.1564 14.5779C24.1564 14.5334 23.8927 14.3705 23.5706 14.2158C22.8353 13.8629 22.4895 13.5076 22.29 12.8999C22.0471 12.16 22.1251 11.2134 22.4854 10.5301C22.7126 10.099 23.0217 9.81827 23.5687 9.54627C23.7887 9.43692 23.9687 9.32269 23.9687 9.29247C23.9687 9.26226 23.7357 9.08722 23.4509 8.90349C23.1661 8.71982 22.7984 8.41698 22.6336 8.23062C22.2692 7.8183 21.8217 6.92116 21.6847 6.32787C21.572 5.8401 21.554 4.87346 21.6484 4.38276C21.9095 3.02507 22.8053 2.04373 24.0938 1.70379C24.6068 1.56841 25.6632 1.5793 26.236 1.72581Z" fill="#FEFEFE"/>
</svg>
