<svg width="23" height="34" viewBox="0 0 23 34" fill="none" xmlns="http://www.w3.org/2000/svg">
<path fill-rule="evenodd" clip-rule="evenodd" d="M7.76005 1.06311C7.69124 1.09133 7.57864 1.1769 7.50983 1.25335C7.38822 1.38853 7.38422 1.493 7.36764 5.00758L7.3505 8.62276L6.96103 8.36165C5.15485 7.15094 2.46362 7.69643 1.29082 9.51093C0.752906 10.3432 0.625354 11.0252 0.677463 12.7914C0.706614 13.7798 0.739206 14.0871 0.867571 14.5833C1.18004 15.7912 1.64295 16.6428 2.51942 17.6217C3.1792 18.3587 3.44582 18.7157 3.67427 19.1683C3.96766 19.7495 4.02615 19.9525 4.32197 21.4161C4.55124 22.5508 4.63588 22.8529 4.82568 23.2141C5.24662 24.0152 6.12872 24.6915 7.02271 24.8988L7.34881 24.9743L7.36676 27.9244L7.38472 30.8745L7.59953 31.2707C7.99201 31.9946 8.81062 32.5603 9.89058 32.8539C10.6069 33.0487 12.1072 33.0487 12.8235 32.8539C13.9034 32.5603 14.722 31.9946 15.1145 31.2707L15.3293 30.8745L15.3473 27.9312L15.3652 24.9878L15.7092 24.9157C16.2759 24.7968 16.8499 24.4753 17.3057 24.0214C17.9281 23.4016 18.0717 23.0575 18.3967 21.4076C18.8013 19.3537 18.9949 18.9593 20.3123 17.5053C21.1425 16.589 21.3494 16.3149 21.6144 15.7809C21.9884 15.0271 22.0205 14.7888 22.0217 12.7645C22.0228 11.0303 22.0144 10.8927 21.8841 10.4812C21.5002 9.26984 20.5837 8.33569 19.3539 7.9023C18.7338 7.68379 17.7696 7.63606 17.079 7.78976C16.5821 7.9003 15.76 8.28245 15.5062 8.52092L15.3636 8.65485L15.3465 5.0221L15.3293 1.38934L15.1786 1.22889C14.9727 1.00982 14.6473 0.955455 14.3855 1.09639C14.1805 1.20681 14.1219 1.31084 13.9901 1.7974C13.7942 2.52129 12.5098 3.05652 11.1381 2.98596C9.86619 2.92053 8.82882 2.3918 8.70046 1.74366C8.57754 1.12298 8.22941 0.871005 7.76005 1.06311ZM9.05071 3.84779C9.6879 4.13949 10.4281 4.27649 11.357 4.27449C12.4474 4.27217 12.9314 4.16833 13.9741 3.71292C14.0423 3.68308 14.0537 3.87682 14.0366 4.7755C14.0176 5.77427 14.0037 5.89062 13.8847 6.05102C13.6536 6.36242 13.2426 6.62559 12.7154 6.79969C12.2672 6.94769 12.0976 6.96996 11.3883 6.97372C10.7029 6.97741 10.5013 6.95508 10.1059 6.83165C9.33822 6.59206 8.84196 6.22861 8.72942 5.82356C8.67243 5.61844 8.63759 3.69391 8.69082 3.69391C8.7039 3.69391 8.86579 3.76316 9.05071 3.84779ZM9.04082 7.85307C9.70974 8.19206 10.2363 8.29177 11.357 8.29177C12.4777 8.29177 13.0043 8.19206 13.6732 7.85307C13.8421 7.76749 13.9959 7.69749 14.015 7.69749C14.0342 7.69749 14.0422 8.18061 14.0328 8.77101L14.0157 9.8446L13.6403 10.0498C13.4339 10.1626 13.0116 10.3303 12.702 10.4224C12.2225 10.5649 12.0229 10.5898 11.357 10.5898C10.6911 10.5898 10.4915 10.5649 10.0121 10.4224C9.70242 10.3303 9.28016 10.1626 9.07373 10.0498L8.69839 9.8446L8.68125 8.77101C8.67187 8.18061 8.67981 7.69749 8.69902 7.69749C8.71816 7.69749 8.87199 7.76749 9.04082 7.85307ZM5.72698 9.22899C6.12703 9.37086 6.43693 9.59 7.00938 10.1357C7.97068 11.0522 8.76552 11.5212 9.84811 11.8108C10.3635 11.9486 10.5803 11.9718 11.357 11.9718C12.1357 11.9718 12.35 11.9487 12.8714 11.8094C13.5447 11.6294 14.3487 11.252 14.8333 10.8884C15.0079 10.7575 15.4198 10.4005 15.7488 10.0949C16.408 9.48265 16.7789 9.25144 17.3333 9.10707C18.5826 8.78165 19.9072 9.37868 20.4514 10.5125L20.6466 10.9191L20.665 12.6658C20.6904 15.0668 20.6826 15.0907 19.3926 16.5225C17.8075 18.2819 17.5214 18.856 17.0834 21.1555C16.8153 22.5635 16.6777 22.8837 16.1879 23.2394C15.5611 23.6946 14.6274 23.8097 13.9768 23.5118C13.526 23.3054 13.2345 22.9965 12.9531 22.4272C12.5931 21.6986 12.1063 21.3789 11.357 21.3789C10.5927 21.3789 10.0848 21.7381 9.69866 22.5517C9.47177 23.0298 9.27078 23.2448 8.83076 23.4802C8.61232 23.5971 8.47375 23.618 7.91644 23.618C7.37527 23.618 7.20812 23.5942 6.96709 23.4828C6.583 23.3053 6.13929 22.8907 5.9849 22.5651C5.9169 22.4217 5.75945 21.7835 5.63496 21.147C5.20633 18.9551 4.88048 18.2633 3.60164 16.8307C2.77021 15.8993 2.39131 15.2179 2.1576 14.2338C2.04475 13.7588 2.03186 13.5302 2.0485 12.307C2.06733 10.9261 2.0684 10.9171 2.24868 10.5267C2.48858 10.0072 3.07267 9.4525 3.58025 9.2622C4.24334 9.01361 5.08303 9.00059 5.72698 9.22899ZM4.95798 11.8272C4.72215 12.0127 4.63863 12.3216 4.72083 12.7047C4.91088 13.5909 5.61782 14.2467 6.45833 14.3164C6.8752 14.3509 7.12023 14.2513 7.26104 13.9899C7.48268 13.5783 7.23258 13.1086 6.75246 13.035C6.26665 12.9605 6.14955 12.8366 5.98271 12.2205C5.94286 12.0734 5.83983 11.9015 5.74832 11.8296C5.5355 11.6622 5.16917 11.661 4.95798 11.8272ZM16.9657 11.8296C16.8742 11.9015 16.7712 12.0734 16.7313 12.2205C16.5656 12.8326 16.4369 12.9629 15.918 13.0441C15.4752 13.1133 15.2324 13.6229 15.4592 14.0068C15.8607 14.6866 17.3087 14.2285 17.7995 13.2665C17.9859 12.9012 18.0675 12.4113 17.9841 12.1588C17.8422 11.7285 17.312 11.5571 16.9657 11.8296ZM7.79133 17.0588C7.42625 17.2067 7.2618 17.6517 7.44584 17.9935C7.55625 18.1985 7.66015 18.2571 8.14765 18.3891C8.44235 18.4688 8.66712 18.7077 8.66712 18.9409C8.66712 19.3009 9.03238 19.7082 9.35523 19.7082C9.5484 19.7082 9.85412 19.4938 9.95051 19.2907C10.2347 18.6918 9.6266 17.544 8.84753 17.2089C8.52098 17.0684 7.9633 16.9891 7.79133 17.0588ZM14.1408 17.1025C13.7307 17.2377 13.5229 17.3686 13.2514 17.6632C12.9235 18.019 12.8259 18.2112 12.7327 18.6848C12.6673 19.017 12.6713 19.0963 12.7628 19.2891C12.8599 19.4938 13.1648 19.7082 13.3588 19.7082C13.6817 19.7082 14.0469 19.3009 14.0469 18.9409C14.0469 18.7077 14.2717 18.4688 14.5664 18.3891C15.0539 18.2571 15.1578 18.1985 15.2682 17.9935C15.4076 17.7345 15.3554 17.4067 15.1427 17.207C14.9548 17.0305 14.5025 16.9833 14.1408 17.1025ZM11.5815 22.7588C11.6189 22.7841 11.7591 23.0147 11.8932 23.2714C12.209 23.8761 12.6724 24.3304 13.2869 24.638C13.5504 24.7698 13.8321 24.8951 13.9129 24.9162C14.0589 24.9544 14.0596 24.9589 14.0377 25.7662C14.016 26.5654 14.0126 26.5816 13.8225 26.8182C13.4112 27.3298 12.4188 27.6744 11.357 27.6744C10.2954 27.6744 9.30287 27.3298 8.89157 26.8183L8.69839 26.5781V25.7639V24.9497L9.09706 24.8051C9.89027 24.5171 10.4476 24.0172 10.8389 23.2427C11.083 22.7596 11.1288 22.7129 11.357 22.7129C11.443 22.7129 11.544 22.7335 11.5815 22.7588ZM9.21673 28.6189C9.9233 28.9114 10.3759 28.9899 11.357 28.9899C12.4833 28.9899 12.7649 28.9287 13.9729 28.4215C14.0395 28.3935 14.0514 28.5956 14.0354 29.4844L14.0157 30.5818L13.8225 30.8219C13.411 31.3334 12.4186 31.678 11.357 31.678C10.2954 31.678 9.303 31.3334 8.89157 30.8219L8.69839 30.5818L8.67863 29.4844C8.66261 28.5956 8.6745 28.3935 8.74118 28.4215C8.78647 28.4406 9.00048 28.5294 9.21673 28.6189Z" fill="#FEFEFE" stroke="#FEFEFE" stroke-width="0.5"/>
</svg>
