<svg width="23" height="41" viewBox="0 0 23 41" fill="none" xmlns="http://www.w3.org/2000/svg">
<path fill-rule="evenodd" clip-rule="evenodd" d="M9.10797 3.07422L7.62539 6.02344L4.39836 6.49219L1.17133 6.96094L0.835625 7.985L0.5 9.00898L2.82867 11.2663C4.31797 12.7098 5.15852 13.5798 5.16063 13.6797C5.1625 13.7656 4.93828 15.1543 4.66234 16.7656C4.38641 18.377 4.14914 19.7797 4.13516 19.8828C4.11375 20.0411 4.23781 20.1652 4.93008 20.6786C5.38125 21.0131 5.78555 21.2885 5.82852 21.2905C5.87148 21.2926 6.60672 20.9255 7.46234 20.475C8.31805 20.0244 9.02648 19.6646 9.0368 19.6755C9.04703 19.6864 7.76117 22.4345 6.17937 25.7825C3.92609 30.5514 3.31711 31.905 3.36727 32.0325C3.40258 32.122 3.97953 33.4248 4.64945 34.9276C5.31945 36.4303 5.86758 37.6871 5.86758 37.7205C5.86758 37.7539 5.46328 37.7812 4.96914 37.7812H4.0707V38.9531V40.125H11.6488H19.227V38.9531V37.7812H18.3285C17.8344 37.7812 17.4301 37.7539 17.4301 37.7205C17.4301 37.6871 17.9782 36.4303 18.6482 34.9276C19.3181 33.4248 19.895 32.1223 19.9302 32.033C19.9801 31.9062 19.3663 30.5418 17.118 25.783C15.5363 22.4348 14.2516 19.6854 14.263 19.6733C14.2745 19.6613 14.9927 20.025 15.8591 20.4817C16.7253 20.9384 17.4772 21.2928 17.5298 21.2693C17.5823 21.2459 17.977 20.9669 18.4066 20.6494C19.0659 20.1623 19.1839 20.0428 19.1625 19.8838C19.1485 19.7801 18.9113 18.377 18.6353 16.7656C18.3594 15.1543 18.1354 13.7656 18.1376 13.6797C18.1402 13.5802 18.987 12.7041 20.4698 11.2669L22.798 9.01031L22.4627 7.98562L22.1272 6.96094L18.8998 6.49219L15.6723 6.02344L14.1897 3.07422L12.7071 0.125H11.6488H10.5905L9.10797 3.07422ZM12.8876 5.75C13.5397 7.08203 14.1048 8.17188 14.1435 8.17188C14.2519 8.17188 19.0848 8.8743 19.2979 8.92102C19.4658 8.95789 19.2764 9.16656 17.531 10.8681L15.5761 12.7739L16.0325 15.4487C16.2835 16.9198 16.4809 18.1301 16.4712 18.1383C16.4615 18.1464 15.3988 17.5955 14.1098 16.914C12.8207 16.2325 11.7133 15.6752 11.6488 15.6755C11.5844 15.6759 10.477 16.2341 9.18789 16.9161C7.89883 17.5981 6.83617 18.1488 6.82641 18.1398C6.81672 18.1308 7.01414 16.9198 7.26516 15.4488L7.72156 12.7741L5.76805 10.8679C4.02719 9.16914 3.83484 8.95703 4.00117 8.91977C4.10391 8.8968 5.20742 8.73523 6.45352 8.5607C7.69961 8.38625 8.83422 8.22328 8.97477 8.19867C9.22367 8.155 9.26188 8.08977 10.4133 5.74102C11.0638 4.41391 11.6199 3.32812 11.649 3.32812C11.6781 3.32812 12.2355 4.41797 12.8876 5.75ZM10.477 30.0078V37.7812L9.48086 37.7807L8.48477 37.7802L7.18172 34.8448L5.87875 31.9095L8.15828 27.0731C9.41211 24.4131 10.4467 22.2362 10.4574 22.2355C10.4681 22.2349 10.477 25.7324 10.477 30.0078ZM15.3447 27.5209L17.4192 31.909L16.116 34.8445L14.8129 37.7802L13.8168 37.7807L12.8207 37.7812L12.8265 29.9883L12.8323 22.1953L13.0512 22.6641C13.1717 22.9219 14.2038 25.1074 15.3447 27.5209Z" fill="#FEFEFE"/>
</svg>
