<svg width="44" height="44" viewBox="0 0 44 44" fill="none" xmlns="http://www.w3.org/2000/svg">
<rect width="44" height="44" fill="#F08646"/>
<path d="M26.5965 19.2505L22.7793 15.4281L26.5965 11.6056L27.7433 12.7541L25.9244 14.5754H29.9577C31.3018 14.5754 32.3954 15.6682 32.3954 17.0117L32.4003 21.2739L30.7785 21.276L30.7735 17.0127C30.7735 16.5639 30.4076 16.1996 29.9577 16.1996H25.8433L27.7433 18.1022L26.5965 19.2505Z" fill="#FEFEFE"/>
<path d="M24.4696 25.1981C23.8177 24.8304 22.569 24.0325 21.2111 22.6727C19.8528 21.3125 19.047 20.0528 18.6739 19.3938L20.8643 17.172L15.3333 11.6L12.6084 14.3107C11.5736 15.3469 11.3055 16.9235 11.9411 18.2339C12.9109 20.2335 14.7004 23.2514 17.7178 26.2732C20.7353 29.2948 23.749 31.0869 25.7458 32.058C26.2189 32.2883 26.7267 32.4 27.2313 32.4C28.1222 32.4 29.0028 32.0513 29.6634 31.3898L32.3758 28.6642L26.7327 23.0038L24.4696 25.1981ZM28.5159 30.2421C27.9697 30.7884 27.1414 30.9311 26.4544 30.5971C24.5694 29.6803 21.7227 27.9868 18.8646 25.1247C16.0066 22.2627 14.3154 19.4119 13.3999 17.5243C13.0661 16.8362 13.2089 16.0062 13.7532 15.4611L15.326 13.8964L18.5814 17.176L16.7153 19.0688L16.9405 19.5751C16.9772 19.6574 17.8622 21.616 20.0642 23.8211C22.2676 26.0277 24.207 26.8955 24.2884 26.9314L24.7873 27.151L26.7135 25.2833L30.0852 28.6653L28.5159 30.2421Z" fill="#58595B"/>
</svg>
