<svg width="24" height="24" viewBox="0 0 24 24" fill="none" xmlns="http://www.w3.org/2000/svg">
<g clip-path="url(#clip0_1071_7058)">
<path fill-rule="evenodd" clip-rule="evenodd" d="M12 -2.09815e-06C5.37258 -9.39372e-07 9.39372e-07 5.37258 2.09815e-06 12C3.25692e-06 18.6274 5.37259 24 12 24C18.6274 24 24 18.6274 24 12C24 5.37258 18.6274 -3.25692e-06 12 -2.09815e-06Z" fill="#00A7B5"/>
<path d="M15.0658 8.51157L9.72082 13.4799C9.533 13.6544 9.41165 13.8888 9.37733 14.1429L9.19545 15.492C9.17122 15.672 8.91794 15.6901 8.86829 15.5154L8.16807 13.0553C8.08816 12.7745 8.20466 12.4747 8.4532 12.3216L14.9296 8.33256C15.0458 8.26105 15.1658 8.4186 15.0658 8.51157ZM17.6592 5.76608L4.05933 11.0125C3.72405 11.1418 3.72663 11.6172 4.06328 11.7429L7.37696 12.9798L8.65971 17.1048C8.74189 17.3689 9.0651 17.4664 9.27952 17.2915L11.1267 15.7856C11.3203 15.6278 11.5959 15.6201 11.798 15.7668L15.1299 18.1859C15.3593 18.3524 15.6841 18.2268 15.7418 17.9493L18.1822 6.20985C18.2452 5.90711 17.9478 5.65472 17.6592 5.76608Z" fill="#FEFEFE"/>
</g>
<defs>
<clipPath id="clip0_1071_7058">
<path d="M2.09815e-06 12C9.39372e-07 5.37258 5.37258 -9.39372e-07 12 -2.09815e-06C18.6274 -3.25692e-06 24 5.37258 24 12C24 18.6274 18.6274 24 12 24C5.37259 24 3.25692e-06 18.6274 2.09815e-06 12Z" fill="white"/>
</clipPath>
</defs>
</svg>
