<svg width="22" height="22" viewBox="0 0 22 22" fill="none" xmlns="http://www.w3.org/2000/svg">
<path d="M13.7379 13.938C13.5788 14.0923 13.337 14.1244 13.1477 14.0093C12.4511 13.5856 11.3709 12.8341 10.2111 11.6727C9.05084 10.5108 8.2937 9.42226 7.86505 8.71878C7.7488 8.528 7.78209 8.28404 7.93894 8.12494L9.51706 6.52423C9.70945 6.32908 9.70891 6.01544 9.51585 5.82095L4.68591 0.955219C4.49122 0.759086 4.17434 0.75809 3.97842 0.952994L1.60838 3.31074C0.573557 4.34686 0.305527 5.92345 0.941087 7.23386C1.91085 9.23348 3.70042 12.2514 6.71778 15.2732C9.7353 18.2948 12.749 20.0869 14.7458 21.058C15.2189 21.2883 15.7267 21.4 16.2313 21.4C17.1222 21.4 18.0028 21.0513 18.6634 20.3898L21.0245 18.0172C21.2187 17.822 21.2186 17.5065 21.0242 17.3115L16.0809 12.353C15.8878 12.1594 15.575 12.1567 15.3787 12.3471L13.7379 13.938ZM17.5159 19.2421C16.9697 19.7884 16.1414 19.9311 15.4544 19.5971C13.5694 18.6803 10.7227 16.9868 7.86464 14.1247C5.00661 11.2627 3.31543 8.41189 2.39994 6.52431C2.06605 5.83621 2.20887 5.0062 2.75319 4.46112L3.97112 3.24948C4.16704 3.05457 4.48392 3.05556 4.67861 3.2517L7.23292 5.82493C7.42597 6.01941 7.42651 6.33305 7.23413 6.5282L5.95464 7.82605C5.81028 7.97248 5.77029 8.19237 5.85385 8.38026L5.94051 8.5751C5.97717 8.65742 6.86219 10.616 9.06419 12.8211C11.2676 15.0277 13.207 15.8955 13.2884 15.9314L13.4794 16.0155C13.6656 16.0974 13.8828 16.0584 14.0289 15.9168L15.3595 14.6266C15.5558 14.4362 15.8686 14.4389 16.0617 14.6325L18.7336 17.3126C18.928 17.5076 18.9282 17.8232 18.7339 18.0183L17.5159 19.2421Z" fill="#00A7B5"/>
</svg>
