<svg width="39" height="42" viewBox="0 0 39 42" fill="none" xmlns="http://www.w3.org/2000/svg">
<path fill-rule="evenodd" clip-rule="evenodd" d="M19.2246 3.72961V7.33422H20.4261H21.6277V8.64438V9.95462L21.0482 10.0084C19.037 10.1954 16.5073 11.0657 14.6881 12.1965L14.0365 12.6016L12.8868 11.4498C12.2545 10.8163 11.7186 10.2987 11.696 10.2997C11.622 10.3027 10.0128 11.8807 10.0128 11.9503C10.0128 11.9875 10.4897 12.4959 11.0726 13.08L12.1322 14.1419L11.6047 14.6831C10.9937 15.3099 10.4249 15.9976 9.97949 16.6485L9.66581 17.1067H6.03444H2.40307V18.3083V19.5098H5.39354H8.38393L8.02531 20.6112C7.82802 21.217 7.65499 21.7577 7.64074 21.8127C7.62039 21.8911 6.78604 21.9129 3.80735 21.9129H0V23.1144V24.3159H3.62464H7.24927V25.5175V26.719H3.62464H0V27.9206V29.1221H3.80735C6.78604 29.1221 7.62039 29.1439 7.64074 29.2222C7.65499 29.2773 7.82802 29.818 8.02531 30.4238L8.38393 31.5252H5.39354H2.40307V32.7267V33.9282H6.03444H9.66581L9.97949 34.3872C10.4778 35.1162 11.3745 36.1589 12.0807 36.8307C16.8004 41.3206 23.8561 42.4054 29.678 39.5363C34.1936 37.311 37.3139 33.1587 38.2263 28.1609C38.4677 26.8384 38.4677 24.1966 38.2263 22.8741C37.6655 19.8022 36.2347 16.9617 34.1478 14.7773L33.5335 14.1344L34.5896 13.0763C35.1704 12.4943 35.6456 11.9818 35.6456 11.9376C35.6456 11.8331 34.1058 10.298 34.001 10.298C33.9572 10.298 33.4039 10.8163 32.7716 11.4498L31.6219 12.6016L30.9703 12.1968C29.1382 11.0587 26.6318 10.1964 24.6102 10.0084L24.0307 9.95462V8.64438V7.33422H25.2323H26.4338V3.72961V0.125H22.8292H19.2246V3.72961ZM24.0307 3.72961V4.93115H22.8292H21.6277V3.72961V2.52807H22.8292H24.0307V3.72961ZM25.0633 12.495C27.8112 12.9956 30.1946 14.2294 32.1176 16.1467C34.0967 18.1198 35.3362 20.4884 35.8589 23.2958C36.0497 24.3205 36.0497 26.7145 35.8589 27.7392C35.3401 30.526 34.0807 32.9361 32.1227 34.8895C30.219 36.7887 27.8136 38.0329 25.0509 38.5472C24.0262 38.738 21.6322 38.738 20.6075 38.5472C17.7974 38.024 15.4213 36.7797 13.4582 34.8033C11.4889 32.8208 10.2606 30.4017 9.76025 27.52C9.62471 26.7396 9.62471 24.2954 9.76025 23.5149C10.8044 17.5024 15.3488 13.1405 21.3613 12.3796C22.1286 12.2824 24.2618 12.349 25.0633 12.495ZM21.6277 21.9129V26.719H25.2323H28.8369V25.5175V24.3159H26.4338H24.0307V20.7113V17.1067H22.8292H21.6277V21.9129Z" fill="#FEFEFE"/>
</svg>
