<svg width="24" height="24" viewBox="0 0 24 24" fill="none" xmlns="http://www.w3.org/2000/svg">
<g clip-path="url(#clip0_1071_7070)">
<path fill-rule="evenodd" clip-rule="evenodd" d="M12 -2.09815e-06C5.37258 -9.39372e-07 9.39372e-07 5.37258 2.09815e-06 12C3.25692e-06 18.6274 5.37259 24 12 24C18.6274 24 24 18.6274 24 12C24 5.37258 18.6274 -3.25692e-06 12 -2.09815e-06Z" fill="#FEFEFE"/>
<path fill-rule="evenodd" clip-rule="evenodd" d="M12 -2.09815e-06C5.37258 -9.39372e-07 9.39372e-07 5.37258 2.09815e-06 12C3.25692e-06 18.6274 5.37259 24 12 24C18.6274 24 24 18.6274 24 12C24 5.37258 18.6274 -3.25692e-06 12 -2.09815e-06Z" fill="#00A7B5"/>
<path fill-rule="evenodd" clip-rule="evenodd" d="M14.1597 5.10101C15.1583 5.22935 15.7681 5.35366 16.129 5.50246C17.1712 5.9322 18.2627 6.98327 18.7405 8.01721C19.1317 8.86389 19.3645 11.0505 19.2295 12.6098C19.1585 13.4293 18.9807 14.4916 18.8531 14.8586C18.4674 15.9684 17.2678 17.1907 16.1095 17.6545C15.3713 17.95 14.084 18.1178 12.2721 18.1545L10.924 18.1818L10.1193 19.0217C9.67671 19.4837 9.25063 19.8947 9.17252 19.9351C8.88812 20.0821 8.50243 19.9505 8.32622 19.6463C8.29291 19.5888 8.26284 19.2102 8.24844 18.6679L8.22498 17.7834L7.9388 17.6759C7.35715 17.4574 6.71672 17.0088 6.17091 16.4376C5.31715 15.5441 5.02131 14.8264 4.81535 13.1493C4.7364 12.5063 4.73593 10.6384 4.81456 10.0063C5.02408 8.32232 5.31734 7.61125 6.17091 6.7179C6.95772 5.89449 7.75686 5.44373 8.74615 5.26533C9.16459 5.18985 10.084 5.07469 10.7349 5.01615C11.2424 4.9705 13.5986 5.02886 14.1597 5.10101ZM10.6176 6.35186C9.83462 6.4158 8.80597 6.58055 8.47822 6.69449C8.03507 6.84854 7.67866 7.09815 7.1694 7.61111C6.60435 8.18023 6.41684 8.51802 6.28229 9.20882C5.9977 10.67 5.98081 12.1729 6.23241 13.6526C6.35575 14.3778 6.42979 14.5888 6.7055 15.0011C7.13116 15.6374 7.88269 16.2459 8.54095 16.4871L8.81005 16.5857L8.82244 17.9753C8.83464 19.3363 8.83684 19.3648 8.93011 19.3648C8.99288 19.3648 9.43824 18.9414 10.2377 18.1217L11.45 16.8786L12.3319 16.848C13.8952 16.7937 15.2138 16.6122 15.7029 16.3839C16.5128 16.006 17.3766 15.1159 17.6045 14.4246C17.8477 13.6868 18.0022 11.9302 17.922 10.8152C17.8651 10.0231 17.7226 9.08939 17.6036 8.72851C17.4246 8.18529 16.675 7.32116 16.0592 6.94799C15.6649 6.70903 15.3082 6.60086 14.5549 6.49175C13.2733 6.30608 11.8133 6.2542 10.6176 6.35186ZM12.7811 7.94033C13.8675 8.20082 14.7154 8.86741 15.1952 9.8384C15.4544 10.3631 15.5508 10.7432 15.597 11.4232L15.6279 11.8784L15.5039 11.9349C15.3997 11.9824 15.3656 11.9785 15.2906 11.9106C15.2211 11.8477 15.1938 11.7343 15.1677 11.3989C15.093 10.4415 14.8291 9.83019 14.2306 9.22833C13.6626 8.65707 13.0259 8.37321 12.1302 8.29187C11.7145 8.25411 11.562 8.10705 11.7469 7.92213C11.8502 7.81888 12.308 7.82695 12.7811 7.94033ZM9.92756 8.53679C10.2007 8.82552 10.815 9.72399 10.8589 9.89882C10.9205 10.1443 10.8314 10.3388 10.5204 10.6377C10.1661 10.9784 10.1537 11.0439 10.3551 11.5159C10.5483 11.9687 10.8844 12.4501 11.2179 12.7519C11.597 13.0949 12.2572 13.4307 12.5524 13.4307C12.7521 13.4307 12.7814 13.4133 13.0285 13.1486C13.3132 12.8435 13.5055 12.7544 13.7362 12.8206C13.9268 12.8752 14.8217 13.4944 15.129 13.7843C15.3216 13.966 15.3795 14.0525 15.3795 14.1589C15.3795 14.546 14.7657 15.2699 14.3089 15.4216C14.0853 15.4958 14.0633 15.4949 13.7775 15.4004C12.9439 15.1245 11.5138 14.2876 10.7584 13.6335C10.0947 13.0588 9.41535 12.1878 8.91725 11.2729C8.63384 10.7523 8.20138 9.71385 8.20255 9.5568C8.20621 9.0687 9.00231 8.27062 9.48548 8.27062C9.65611 8.27062 9.702 8.29825 9.92756 8.53679ZM12.7776 8.85803C13.7091 9.09581 14.3932 9.77573 14.6051 10.6743C14.6978 11.0673 14.6965 11.4331 14.6021 11.5275C14.4364 11.6932 14.2539 11.5522 14.2528 11.2578C14.2519 11.0012 14.1365 10.5182 14.0229 10.2955C13.7558 9.77198 13.162 9.36376 12.5092 9.25503C12.3204 9.22355 12.1288 9.17842 12.0837 9.15473C11.9896 9.10538 11.9747 8.92609 12.0579 8.84292C12.135 8.76585 12.4418 8.77228 12.7776 8.85803ZM13.0674 9.88217C13.4847 10.0979 13.6922 10.4203 13.7271 10.9069C13.7496 11.2191 13.7489 11.2213 13.6184 11.254C13.5144 11.2801 13.4692 11.2649 13.4011 11.1809C13.3539 11.1226 13.3148 11.0191 13.3142 10.951C13.3126 10.756 13.1524 10.4526 12.9901 10.337C12.9085 10.2789 12.753 10.2201 12.6445 10.2063C12.536 10.1925 12.4103 10.1622 12.3652 10.139C12.2699 10.09 12.2566 9.91172 12.3417 9.82362C12.4181 9.74463 12.8723 9.78126 13.0674 9.88217Z" fill="#FEFEFE"/>
</g>
<defs>
<clipPath id="clip0_1071_7070">
<path d="M2.09815e-06 12C9.39372e-07 5.37258 5.37258 -9.39372e-07 12 -2.09815e-06C18.6274 -3.25692e-06 24 5.37258 24 12C24 18.6274 18.6274 24 12 24C5.37259 24 3.25692e-06 18.6274 2.09815e-06 12Z" fill="white"/>
</clipPath>
</defs>
</svg>
