<svg width="40" height="40" viewBox="0 0 40 40" fill="none" xmlns="http://www.w3.org/2000/svg">
<rect width="40" height="40" fill="#00A7B5"/>
<path d="M25.4916 21.0433C26.0886 21.6772 26.7188 22.2736 27.2544 22.9715C27.4909 23.2816 27.7149 23.6016 27.8862 23.9615C28.129 24.4731 27.9091 25.0361 27.4873 25.0666L24.865 25.0653C24.1886 25.1263 23.6491 24.8303 23.1954 24.3274C22.8324 23.9253 22.4962 23.4973 22.1471 23.0816C22.0039 22.9117 21.8541 22.7518 21.6752 22.6254C21.3172 22.3727 21.0065 22.4501 20.8019 22.8561C20.5935 23.269 20.5463 23.7263 20.5258 24.1865C20.4977 24.858 20.3111 25.0345 19.6908 25.0653C18.3653 25.1332 17.1072 24.9151 15.9385 24.188C14.9082 23.5469 14.1092 22.6419 13.4138 21.6174C12.0598 19.6224 11.0228 17.4302 10.0909 15.1766C9.88113 14.6688 10.0345 14.3963 10.5497 14.3866C11.4052 14.3686 12.2605 14.3699 13.117 14.3854C13.4647 14.3909 13.6949 14.6077 13.8291 14.9649C14.292 16.2025 14.8583 17.3799 15.5691 18.4713C15.7585 18.7618 15.9515 19.0524 16.2264 19.2569C16.5305 19.4833 16.762 19.4083 16.9051 19.0399C16.9959 18.8063 17.0356 18.5547 17.0561 18.3046C17.1238 17.4439 17.1328 16.5847 17.0139 15.727C16.9409 15.1918 16.6637 14.8452 16.1725 14.744C15.9219 14.6923 15.9592 14.5909 16.0805 14.4353C16.2913 14.167 16.4896 14 16.8847 14H19.8483C20.3149 14.1001 20.4185 14.3281 20.4824 14.8386L20.4849 18.4183C20.4798 18.616 20.5757 19.2024 20.903 19.3332C21.165 19.4264 21.3377 19.1984 21.4949 19.0178C22.2045 18.1988 22.7109 17.231 23.1633 16.2288C23.3641 15.7882 23.5367 15.3305 23.704 14.8733C23.828 14.534 24.0225 14.367 24.374 14.3744L27.2263 14.3772C27.3108 14.3772 27.3964 14.3785 27.4783 14.3938C27.959 14.4829 28.0907 14.7077 27.9422 15.2181C27.7083 16.0188 27.2532 16.6861 26.8083 17.3565C26.3326 18.0722 25.8239 18.7634 25.3522 19.4834C24.9188 20.1409 24.9532 20.4722 25.4916 21.0433Z" fill="white"/>
</svg>
