<svg width="40" height="40" viewBox="0 0 40 40" fill="none" xmlns="http://www.w3.org/2000/svg">
<rect width="40" height="40" fill="#00A7B5"/>
<path fill-rule="evenodd" clip-rule="evenodd" d="M13.317 9.03804C13.317 9.10241 14.4678 9.09265 14.4895 9.02812C14.5124 8.96008 14.6453 9.08903 14.6453 9.17926C14.6453 9.21484 14.664 9.24396 14.6868 9.24396C14.7096 9.24396 14.7283 9.31808 14.7283 9.40869C14.7283 9.49929 14.747 9.57342 14.7698 9.57342C14.7926 9.57342 14.8113 9.62901 14.8113 9.69696C14.8113 9.76492 14.83 9.82051 14.8528 9.82051C14.8757 9.82051 14.8943 9.89464 14.8943 9.98524C14.8943 10.0758 14.913 10.15 14.9358 10.15C14.9587 10.15 14.9774 10.2056 14.9774 10.2735C14.9774 10.3415 14.996 10.3971 15.0189 10.3971C15.0417 10.3971 15.0604 10.4712 15.0604 10.5618C15.0604 10.6524 15.0791 10.7265 15.1019 10.7265C15.1247 10.7265 15.1434 10.8007 15.1434 10.8913C15.1434 10.9819 15.1621 11.056 15.1849 11.056C15.2077 11.056 15.2264 11.1116 15.2264 11.1795C15.2264 11.2475 15.2451 11.3031 15.2679 11.3031C15.2908 11.3031 15.3094 11.3772 15.3094 11.4678C15.3094 11.5584 15.3281 11.6325 15.3509 11.6325C15.3738 11.6325 15.3925 11.6881 15.3925 11.7561C15.3925 11.824 15.4111 11.8796 15.434 11.8796C15.4568 11.8796 15.4755 11.9538 15.4755 12.0444C15.4755 12.1816 15.4893 12.2091 15.5585 12.2091C15.6277 12.2091 15.6415 12.1816 15.6415 12.0444C15.6415 11.9538 15.6602 11.8796 15.683 11.8796C15.7058 11.8796 15.7245 11.8055 15.7245 11.7149C15.7245 11.6243 15.7432 11.5502 15.766 11.5502C15.7889 11.5502 15.8075 11.4761 15.8075 11.3855C15.8075 11.2949 15.8262 11.2207 15.8491 11.2207C15.8719 11.2207 15.8906 11.1651 15.8906 11.0972C15.8906 11.0292 15.9092 10.9736 15.9321 10.9736C15.9549 10.9736 15.9736 10.8995 15.9736 10.8089C15.9736 10.7183 15.9923 10.6442 16.0151 10.6442C16.0379 10.6442 16.0566 10.57 16.0566 10.4794C16.0566 10.3888 16.0753 10.3147 16.0981 10.3147C16.1209 10.3147 16.1396 10.2406 16.1396 10.15C16.1396 10.0594 16.1583 9.98524 16.1811 9.98524C16.204 9.98524 16.2226 9.92965 16.2226 9.86169C16.2226 9.79374 16.2413 9.73815 16.2642 9.73815C16.287 9.73815 16.3057 9.66402 16.3057 9.57342C16.3057 9.48281 16.3243 9.40869 16.3472 9.40869C16.37 9.40869 16.3887 9.33456 16.3887 9.24396V9.07922H17.1774C17.6755 9.07922 17.966 9.09438 17.966 9.12041C17.966 9.14306 17.9474 9.16159 17.9245 9.16159C17.9017 9.16159 17.883 9.19865 17.883 9.24396C17.883 9.28926 17.8643 9.32632 17.8415 9.32632C17.8187 9.32632 17.8 9.38192 17.8 9.44987C17.8 9.51782 17.7813 9.57342 17.7585 9.57342C17.7357 9.57342 17.717 9.62901 17.717 9.69696C17.717 9.76492 17.6983 9.82051 17.6755 9.82051C17.6526 9.82051 17.634 9.87611 17.634 9.94406C17.634 10.012 17.6153 10.0676 17.5925 10.0676C17.5696 10.0676 17.5509 10.1232 17.5509 10.1912C17.5509 10.2591 17.5323 10.3147 17.5094 10.3147C17.4866 10.3147 17.4679 10.3703 17.4679 10.4383C17.4679 10.5062 17.4492 10.5618 17.4264 10.5618C17.4036 10.5618 17.3849 10.6174 17.3849 10.6853C17.3849 10.7533 17.3662 10.8089 17.3434 10.8089C17.3206 10.8089 17.3019 10.8645 17.3019 10.9324C17.3019 11.0004 17.2832 11.056 17.2604 11.056C17.2375 11.056 17.2189 11.1116 17.2189 11.1795C17.2189 11.2475 17.2002 11.3031 17.1774 11.3031C17.1545 11.3031 17.1358 11.3402 17.1358 11.3855C17.1358 11.4308 17.1172 11.4678 17.0943 11.4678C17.0715 11.4678 17.0528 11.5234 17.0528 11.5914C17.0528 11.6593 17.0342 11.7149 17.0113 11.7149C16.9885 11.7149 16.9698 11.7705 16.9698 11.8385C16.9698 11.9064 16.9511 11.962 16.9283 11.962C16.9055 11.962 16.8868 12.0176 16.8868 12.0856C16.8868 12.1535 16.8681 12.2091 16.8453 12.2091C16.8225 12.2091 16.8038 12.2647 16.8038 12.3327C16.8038 12.4006 16.7851 12.4562 16.7623 12.4562C16.7394 12.4562 16.7208 12.5118 16.7208 12.5797C16.7208 12.6477 16.7021 12.7033 16.6792 12.7033C16.6564 12.7033 16.6377 12.7589 16.6377 12.8268C16.6377 12.8948 16.6191 12.9504 16.5962 12.9504C16.5734 12.9504 16.5547 13.006 16.5547 13.0739C16.5547 13.1419 16.536 13.1975 16.5132 13.1975C16.4904 13.1975 16.4717 13.2531 16.4717 13.321C16.4717 13.389 16.453 13.4446 16.4302 13.4446C16.4074 13.4446 16.3887 13.5002 16.3887 13.5681C16.3887 13.6361 16.37 13.6917 16.3472 13.6917C16.3201 13.6917 16.3057 14.2957 16.3057 15.4213V17.151H15.5585H14.8113V15.4625C14.8113 14.3643 14.7968 13.774 14.7698 13.774C14.747 13.774 14.7283 13.7184 14.7283 13.6505C14.7283 13.5825 14.7096 13.5269 14.6868 13.5269C14.664 13.5269 14.6453 13.4899 14.6453 13.4446C14.6453 13.3993 14.6266 13.3622 14.6038 13.3622C14.5809 13.3622 14.5623 13.3066 14.5623 13.2387C14.5623 13.1707 14.5436 13.1151 14.5208 13.1151C14.4979 13.1151 14.4792 13.0595 14.4792 12.9916C14.4792 12.9236 14.4606 12.868 14.4377 12.868C14.4149 12.868 14.3962 12.8124 14.3962 12.7445C14.3962 12.6765 14.3775 12.6209 14.3547 12.6209C14.3319 12.6209 14.3132 12.5653 14.3132 12.4974C14.3132 12.4294 14.2945 12.3738 14.2717 12.3738C14.2489 12.3738 14.2302 12.3182 14.2302 12.2503C14.2302 12.1823 14.2115 12.1267 14.1887 12.1267C14.1658 12.1267 14.1472 12.0711 14.1472 12.0032C14.1472 11.9352 14.1285 11.8796 14.1057 11.8796C14.0828 11.8796 14.0642 11.824 14.0642 11.7561C14.0642 11.6881 14.0455 11.6325 14.0226 11.6325C13.9998 11.6325 13.9811 11.577 13.9811 11.509C13.9811 11.441 13.9625 11.3855 13.9396 11.3855C13.9168 11.3855 13.8981 11.3299 13.8981 11.2619C13.8981 11.194 13.8794 11.1384 13.8566 11.1384C13.8338 11.1384 13.8151 11.0828 13.8151 11.0148C13.8151 10.9469 13.7964 10.8913 13.7736 10.8913C13.7508 10.8913 13.7321 10.8357 13.7321 10.7677C13.7321 10.6998 13.7134 10.6442 13.6906 10.6442C13.6677 10.6442 13.6491 10.5886 13.6491 10.5206C13.6491 10.4527 13.6304 10.3971 13.6075 10.3971C13.5847 10.3971 13.566 10.3415 13.566 10.2735C13.566 10.2056 13.5474 10.15 13.5245 10.15C13.5017 10.15 13.483 10.0944 13.483 10.0264C13.483 9.95847 13.4643 9.90288 13.4415 9.90288C13.4187 9.90288 13.4 9.86581 13.4 9.82051C13.4 9.77521 13.3813 9.73815 13.3585 9.73815C13.3357 9.73815 13.317 9.66402 13.317 9.57342C13.317 9.48281 13.2983 9.40869 13.2755 9.40869C13.2526 9.40869 13.234 9.37162 13.234 9.32632C13.234 9.28102 13.2153 9.24396 13.1925 9.24396C13.1343 9.24396 13.1407 9.12848 13.2028 9.05847C13.264 8.98953 13.317 8.98006 13.317 9.03804ZM20.1245 11.0148C20.1245 11.0375 20.2179 11.056 20.3321 11.056C20.4462 11.056 20.5396 11.0745 20.5396 11.0972C20.5396 11.1198 20.577 11.1384 20.6226 11.1384C20.6683 11.1384 20.7057 11.1569 20.7057 11.1795C20.7057 11.2022 20.743 11.2207 20.7887 11.2207C20.8343 11.2207 20.8717 11.2393 20.8717 11.2619C20.8717 11.2846 20.9001 11.3031 20.9349 11.3031C21.0171 11.3031 21.4528 11.7354 21.4528 11.817C21.4528 11.8514 21.4715 11.8796 21.4943 11.8796C21.5172 11.8796 21.5358 11.9167 21.5358 11.962C21.5358 12.0073 21.5545 12.0444 21.5774 12.0444C21.6002 12.0444 21.6189 12.137 21.6189 12.2503C21.6189 12.3635 21.6375 12.4562 21.6604 12.4562C21.6874 12.4562 21.7019 13.0328 21.7019 14.1035C21.7019 15.1743 21.6874 15.7508 21.6604 15.7508C21.6373 15.7508 21.6189 15.8606 21.6189 15.9979C21.6189 16.1352 21.6004 16.245 21.5774 16.245C21.5545 16.245 21.5358 16.2965 21.5358 16.3594C21.5358 16.4267 21.5016 16.4984 21.4528 16.5333C21.4072 16.5659 21.3698 16.617 21.3698 16.6467C21.3698 16.717 21.0983 16.9863 21.0275 16.9863C20.9976 16.9863 20.9461 17.0234 20.9132 17.0687C20.878 17.117 20.8057 17.151 20.738 17.151C20.6746 17.151 20.6226 17.1696 20.6226 17.1922C20.6226 17.2149 20.5666 17.2334 20.4981 17.2334C20.4296 17.2334 20.3736 17.2519 20.3736 17.2746C20.3736 17.2999 20.166 17.3158 19.834 17.3158C19.5019 17.3158 19.2943 17.2999 19.2943 17.2746C19.2943 17.2519 19.2196 17.2334 19.1283 17.2334C19.037 17.2334 18.9623 17.2149 18.9623 17.1922C18.9623 17.1696 18.929 17.151 18.8884 17.151C18.8478 17.151 18.7876 17.114 18.7547 17.0687C18.7218 17.0234 18.6705 16.9863 18.6407 16.9863C18.5651 16.9863 18.2151 16.6316 18.2151 16.5549C18.2151 16.5204 18.1964 16.4921 18.1736 16.4921C18.1508 16.4921 18.1321 16.455 18.1321 16.4097C18.1321 16.3644 18.1134 16.3274 18.0906 16.3274C18.0677 16.3274 18.0491 16.2718 18.0491 16.2038C18.0491 16.1359 18.0304 16.0803 18.0075 16.0803C17.9805 16.0803 17.966 15.4076 17.966 14.1447C17.966 12.8817 17.9805 12.2091 18.0075 12.2091C18.0304 12.2091 18.0491 12.1535 18.0491 12.0856C18.0491 12.0176 18.0677 11.962 18.0906 11.962C18.1134 11.962 18.1321 11.9249 18.1321 11.8796C18.1321 11.8343 18.1508 11.7973 18.1736 11.7973C18.1964 11.7973 18.2151 11.7689 18.2151 11.7341C18.2151 11.6571 18.4817 11.3855 18.5574 11.3855C18.5874 11.3855 18.6388 11.3484 18.6717 11.3031C18.7046 11.2578 18.7648 11.2207 18.8054 11.2207C18.846 11.2207 18.8792 11.2022 18.8792 11.1795C18.8792 11.1569 18.9353 11.1384 19.0038 11.1384C19.0723 11.1384 19.1283 11.1198 19.1283 11.0972C19.1283 11.0743 19.239 11.056 19.3774 11.056C19.5157 11.056 19.6264 11.0377 19.6264 11.0148C19.6264 10.9919 19.7371 10.9736 19.8755 10.9736C20.0138 10.9736 20.1245 10.9919 20.1245 11.0148ZM23.8841 11.1972C23.9341 11.2468 23.9434 11.6247 23.9434 13.6093C23.9434 16.089 23.9428 16.0803 24.1238 16.0803C24.1578 16.0803 24.1964 16.1035 24.2098 16.1318C24.2291 16.1729 24.2388 16.1729 24.2582 16.1318C24.2715 16.1035 24.3328 16.0803 24.3943 16.0803C24.4586 16.0803 24.5317 16.0452 24.566 15.9979C24.599 15.9526 24.6506 15.9155 24.6809 15.9155C24.7111 15.9155 24.7817 15.87 24.8377 15.8144L24.9396 15.7134V13.4258V11.1384H25.5445C26.0133 11.1384 26.1627 11.1516 26.2086 11.1972C26.2589 11.2471 26.2679 11.7039 26.2679 14.2035V17.151H25.6038H24.9396V16.8627C24.9396 16.7042 24.9288 16.5745 24.9156 16.5745C24.9024 16.5745 24.8198 16.6486 24.7321 16.7392C24.6443 16.8298 24.5472 16.9039 24.5162 16.9039C24.4852 16.9039 24.4329 16.941 24.4 16.9863C24.3671 17.0316 24.3069 17.0687 24.2663 17.0687C24.2257 17.0687 24.1925 17.0872 24.1925 17.1098C24.1925 17.1325 24.1364 17.151 24.0679 17.151C23.9994 17.151 23.9434 17.1696 23.9434 17.1922C23.9434 17.2169 23.7774 17.2334 23.5283 17.2334C23.2792 17.2334 23.1132 17.2169 23.1132 17.1922C23.1132 17.1696 23.0844 17.151 23.0491 17.151C22.966 17.151 22.7811 16.9676 22.7811 16.8852C22.7811 16.8502 22.7625 16.8216 22.7396 16.8216C22.7168 16.8216 22.6981 16.766 22.6981 16.698C22.6981 16.6301 22.6794 16.5745 22.6566 16.5745C22.6293 16.5745 22.6151 15.641 22.6151 13.8564V11.1384H23.2199C23.6888 11.1384 23.8381 11.1516 23.8841 11.1972ZM19.4292 12.2725L19.2943 12.4127V14.1641C19.2943 15.3043 19.3088 15.9155 19.3358 15.9155C19.3587 15.9155 19.3774 15.9447 19.3774 15.9802C19.3774 16.0635 19.4773 16.1626 19.5612 16.1626C19.5971 16.1626 19.6264 16.1812 19.6264 16.2038C19.6264 16.2265 19.7011 16.245 19.7925 16.245C19.8838 16.245 19.9585 16.2265 19.9585 16.2038C19.9585 16.1812 19.9873 16.1626 20.0226 16.1626C20.0579 16.1626 20.1326 16.1171 20.1887 16.0615L20.2906 15.9605V14.1447V12.3289L20.1887 12.2278C20.1012 12.1411 20.0497 12.1272 19.8255 12.1296C19.584 12.1322 19.5539 12.143 19.4292 12.2725ZM27.4302 19.0042C27.4302 19.0271 27.5409 19.0454 27.6792 19.0454C27.8176 19.0454 27.9283 19.0637 27.9283 19.0866C27.9283 19.1093 27.9843 19.1278 28.0528 19.1278C28.1213 19.1278 28.1774 19.1463 28.1774 19.169C28.1774 19.1916 28.2334 19.2102 28.3019 19.2102C28.3704 19.2102 28.4264 19.2287 28.4264 19.2513C28.4264 19.274 28.4638 19.2925 28.5094 19.2925C28.5551 19.2925 28.5925 19.311 28.5925 19.3337C28.5925 19.3563 28.6444 19.3749 28.7078 19.3749C28.7756 19.3749 28.8479 19.4089 28.883 19.4572C28.9159 19.5025 28.9761 19.5396 29.0167 19.5396C29.0573 19.5396 29.0906 19.5581 29.0906 19.5808C29.0906 19.6034 29.1204 19.622 29.1569 19.622C29.1934 19.622 29.2757 19.6776 29.3396 19.7455C29.4036 19.8135 29.4768 19.8691 29.5022 19.8691C29.5626 19.8691 30.1698 20.4715 30.1698 20.5314C30.1698 20.5567 30.2258 20.6293 30.2943 20.6927C30.3628 20.7562 30.4189 20.8378 30.4189 20.874C30.4189 20.9102 30.4375 20.9398 30.4604 20.9398C30.4832 20.9398 30.5019 20.9769 30.5019 21.0222C30.5019 21.0675 30.5206 21.1046 30.5434 21.1046C30.5662 21.1046 30.5849 21.1416 30.5849 21.1869C30.5849 21.2322 30.6036 21.2693 30.6264 21.2693C30.6492 21.2693 30.6679 21.3063 30.6679 21.3516C30.6679 21.3969 30.6866 21.434 30.7094 21.434C30.7323 21.434 30.7509 21.4896 30.7509 21.5576C30.7509 21.6255 30.7696 21.6811 30.7925 21.6811C30.8153 21.6811 30.834 21.7367 30.834 21.8047C30.834 21.8726 30.8526 21.9282 30.8755 21.9282C30.8983 21.9282 30.917 22.0209 30.917 22.1341C30.917 22.2474 30.9357 22.34 30.9585 22.34C30.9856 22.34 31 23.0813 31 24.4815C31 25.8817 30.9856 26.623 30.9585 26.623C30.9357 26.623 30.917 26.7157 30.917 26.8289C30.917 26.9422 30.8983 27.0349 30.8755 27.0349C30.8526 27.0349 30.834 27.0904 30.834 27.1584C30.834 27.2264 30.8153 27.2819 30.7925 27.2819C30.7696 27.2819 30.7509 27.3375 30.7509 27.4055C30.7509 27.4734 30.7323 27.529 30.7094 27.529C30.6866 27.529 30.6679 27.5661 30.6679 27.6114C30.6679 27.6567 30.6492 27.6938 30.6264 27.6938C30.6036 27.6938 30.5849 27.7308 30.5849 27.7761C30.5849 27.8214 30.5662 27.8585 30.5434 27.8585C30.5206 27.8585 30.5019 27.8956 30.5019 27.9409C30.5019 27.9862 30.4832 28.0232 30.4604 28.0232C30.4375 28.0232 30.4189 28.0528 30.4189 28.0891C30.4189 28.1253 30.3628 28.2069 30.2943 28.2703C30.2258 28.3338 30.1698 28.4064 30.1698 28.4316C30.1698 28.4916 29.5626 29.094 29.5022 29.094C29.4768 29.094 29.4036 29.1496 29.3396 29.2175C29.2757 29.2855 29.1934 29.3411 29.1569 29.3411C29.1204 29.3411 29.0906 29.3596 29.0906 29.3823C29.0906 29.4049 29.0573 29.4234 29.0167 29.4234C28.9761 29.4234 28.9159 29.4605 28.883 29.5058C28.8479 29.5542 28.7756 29.5882 28.7078 29.5882C28.6444 29.5882 28.5925 29.6067 28.5925 29.6294C28.5925 29.652 28.5551 29.6705 28.5094 29.6705C28.4638 29.6705 28.4264 29.6891 28.4264 29.7117C28.4264 29.7344 28.3704 29.7529 28.3019 29.7529C28.2334 29.7529 28.1774 29.7714 28.1774 29.7941C28.1774 29.8167 28.1213 29.8353 28.0528 29.8353C27.9843 29.8353 27.9283 29.8538 27.9283 29.8765C27.9283 29.8993 27.8176 29.9176 27.6792 29.9176C27.5409 29.9176 27.4302 29.9359 27.4302 29.9588C27.4302 29.9861 24.9258 30 20 30C15.0742 30 12.5698 29.9861 12.5698 29.9588C12.5698 29.9359 12.4591 29.9176 12.3208 29.9176C12.1824 29.9176 12.0717 29.8993 12.0717 29.8765C12.0717 29.8538 12.0157 29.8353 11.9472 29.8353C11.8787 29.8353 11.8226 29.8167 11.8226 29.7941C11.8226 29.7714 11.7666 29.7529 11.6981 29.7529C11.6296 29.7529 11.5736 29.7344 11.5736 29.7117C11.5736 29.6891 11.5175 29.6705 11.4491 29.6705C11.3806 29.6705 11.3245 29.652 11.3245 29.6294C11.3245 29.6067 11.2872 29.5882 11.2415 29.5882C11.1958 29.5882 11.1585 29.5696 11.1585 29.547C11.1585 29.5243 11.1252 29.5058 11.0846 29.5058C11.044 29.5058 10.9839 29.4687 10.9509 29.4234C10.918 29.3781 10.862 29.3411 10.8264 29.3411C10.7908 29.3411 10.7348 29.304 10.7019 29.2587C10.669 29.2134 10.6179 29.1763 10.5884 29.1763C10.5229 29.1763 9.83019 28.4959 9.83019 28.4316C9.83019 28.4064 9.77415 28.3338 9.70566 28.2703C9.63717 28.2069 9.58113 28.1253 9.58113 28.0891C9.58113 28.0528 9.56245 28.0232 9.53962 28.0232C9.51679 28.0232 9.49811 27.9862 9.49811 27.9409C9.49811 27.8956 9.47943 27.8585 9.4566 27.8585C9.43377 27.8585 9.41509 27.8214 9.41509 27.7761C9.41509 27.7308 9.39642 27.6938 9.37358 27.6938C9.35075 27.6938 9.33208 27.6567 9.33208 27.6114C9.33208 27.5661 9.3134 27.529 9.29057 27.529C9.26774 27.529 9.24906 27.492 9.24906 27.4467C9.24906 27.4014 9.23038 27.3643 9.20755 27.3643C9.18472 27.3643 9.16604 27.2902 9.16604 27.1996C9.16604 27.109 9.14736 27.0349 9.12453 27.0349C9.1017 27.0349 9.08302 26.9607 9.08302 26.8701C9.08302 26.7795 9.06434 26.7054 9.04151 26.7054C9.01436 26.7054 9 25.9366 9 24.4815C9 23.0264 9.01436 22.2577 9.04151 22.2577C9.06434 22.2577 9.08302 22.1835 9.08302 22.0929C9.08302 22.0023 9.1017 21.9282 9.12453 21.9282C9.14736 21.9282 9.16604 21.8541 9.16604 21.7635C9.16604 21.6729 9.18472 21.5987 9.20755 21.5987C9.23038 21.5987 9.24906 21.5617 9.24906 21.5164C9.24906 21.4711 9.26774 21.434 9.29057 21.434C9.3134 21.434 9.33208 21.3969 9.33208 21.3516C9.33208 21.3063 9.35075 21.2693 9.37358 21.2693C9.39642 21.2693 9.41509 21.2322 9.41509 21.1869C9.41509 21.1416 9.43377 21.1046 9.4566 21.1046C9.47943 21.1046 9.49811 21.0675 9.49811 21.0222C9.49811 20.9769 9.51679 20.9398 9.53962 20.9398C9.56245 20.9398 9.58113 20.9102 9.58113 20.874C9.58113 20.8378 9.63717 20.7562 9.70566 20.6927C9.77415 20.6293 9.83019 20.5567 9.83019 20.5315C9.83019 20.4672 10.5229 19.7867 10.5884 19.7867C10.6179 19.7867 10.669 19.7496 10.7019 19.7043C10.7348 19.659 10.7908 19.622 10.8264 19.622C10.862 19.622 10.918 19.5849 10.9509 19.5396C10.9839 19.4943 11.044 19.4572 11.0846 19.4572C11.1252 19.4572 11.1585 19.4387 11.1585 19.4161C11.1585 19.3934 11.1958 19.3749 11.2415 19.3749C11.2872 19.3749 11.3245 19.3563 11.3245 19.3337C11.3245 19.311 11.3806 19.2925 11.4491 19.2925C11.5175 19.2925 11.5736 19.274 11.5736 19.2513C11.5736 19.2287 11.6296 19.2102 11.6981 19.2102C11.7666 19.2102 11.8226 19.1916 11.8226 19.169C11.8226 19.1463 11.8787 19.1278 11.9472 19.1278C12.0157 19.1278 12.0717 19.1093 12.0717 19.0866C12.0717 19.0637 12.1824 19.0454 12.3208 19.0454C12.4591 19.0454 12.5698 19.0271 12.5698 19.0042C12.5698 18.9769 15.0742 18.9631 20 18.9631C24.9258 18.9631 27.4302 18.9769 27.4302 19.0042ZM12.1547 20.9398V21.434H12.7596C13.2284 21.434 13.3778 21.4472 13.4237 21.4929C13.4741 21.5428 13.483 22.016 13.483 24.6227V27.6938H14.0642H14.6453V24.5639V21.434H15.2679H15.8906V20.981C15.8906 20.7064 15.9069 20.528 15.9321 20.528C15.9549 20.528 15.9736 20.5095 15.9736 20.4868C15.9736 20.46 15.3094 20.4456 14.0642 20.4456H12.1547V20.9398ZM20.4566 24.0697V27.6938H20.9962H21.5358V27.4879C21.5358 27.3746 21.547 27.2819 21.5607 27.2819C21.5744 27.2819 21.6379 27.3375 21.7019 27.4055C21.7659 27.4734 21.8481 27.529 21.8846 27.529C21.9211 27.529 21.9509 27.5476 21.9509 27.5702C21.9509 27.5929 21.9883 27.6114 22.034 27.6114C22.0796 27.6114 22.117 27.6299 22.117 27.6526C22.117 27.6752 22.1917 27.6938 22.283 27.6938C22.3743 27.6938 22.4491 27.7123 22.4491 27.735C22.4491 27.7576 22.5238 27.7761 22.6151 27.7761C22.7064 27.7761 22.7811 27.7576 22.7811 27.735C22.7811 27.7123 22.8517 27.6938 22.938 27.6938C23.0472 27.6938 23.113 27.6688 23.1547 27.6114C23.1876 27.5661 23.2478 27.529 23.2884 27.529C23.3315 27.529 23.3623 27.4986 23.3623 27.4558C23.3623 27.4155 23.3996 27.3558 23.4453 27.3231C23.494 27.2882 23.5283 27.2165 23.5283 27.1493C23.5283 27.0864 23.547 27.0349 23.5698 27.0349C23.5969 27.0349 23.6113 26.3485 23.6113 25.0581C23.6113 23.7677 23.5969 23.0813 23.5698 23.0813C23.547 23.0813 23.5283 23.0257 23.5283 22.9578C23.5283 22.8898 23.5096 22.8342 23.4868 22.8342C23.464 22.8342 23.4453 22.8058 23.4453 22.7711C23.4453 22.6891 23.1765 22.4224 23.0938 22.4224C23.0588 22.4224 23.0302 22.4039 23.0302 22.3812C23.0302 22.3586 22.9742 22.34 22.9057 22.34C22.8372 22.34 22.7811 22.3215 22.7811 22.2988C22.7811 22.2762 22.6877 22.2577 22.5736 22.2577C22.4594 22.2577 22.366 22.2762 22.366 22.2988C22.366 22.3215 22.31 22.34 22.2415 22.34C22.173 22.34 22.117 22.3586 22.117 22.3812C22.117 22.4039 22.0875 22.4224 22.0515 22.4224C22.0154 22.4224 21.9142 22.4965 21.8264 22.5871C21.5331 22.89 21.5358 22.8993 21.5358 21.5987V20.4456H20.9962H20.4566V24.0697ZM25.7698 22.2165C25.7698 22.2391 25.6764 22.2577 25.5623 22.2577C25.4481 22.2577 25.3547 22.2762 25.3547 22.2988C25.3547 22.3215 25.2987 22.34 25.2302 22.34C25.1617 22.34 25.1057 22.3586 25.1057 22.3812C25.1057 22.4039 25.0773 22.4224 25.0426 22.4224C25.0079 22.4224 24.8585 22.5425 24.7105 22.6893C24.5626 22.8361 24.4415 22.9844 24.4415 23.0188C24.4415 23.0532 24.4228 23.0813 24.4 23.0813C24.3772 23.0813 24.3585 23.1369 24.3585 23.2049C24.3585 23.2728 24.3398 23.3284 24.317 23.3284C24.29 23.3284 24.2755 23.9187 24.2755 25.0169C24.2755 26.1151 24.29 26.7054 24.317 26.7054C24.3398 26.7054 24.3585 26.761 24.3585 26.8289C24.3585 26.8969 24.3772 26.9525 24.4 26.9525C24.4228 26.9525 24.4415 26.9895 24.4415 27.0349C24.4415 27.0802 24.4602 27.1172 24.483 27.1172C24.5058 27.1172 24.5245 27.1455 24.5245 27.1801C24.5245 27.2618 24.8769 27.6114 24.9593 27.6114C24.9941 27.6114 25.0226 27.6299 25.0226 27.6526C25.0226 27.6752 25.06 27.6938 25.1057 27.6938C25.1513 27.6938 25.1887 27.7123 25.1887 27.735C25.1887 27.7579 25.2994 27.7761 25.4377 27.7761C25.5761 27.7761 25.6868 27.7944 25.6868 27.8173C25.6868 27.84 25.7615 27.8585 25.8528 27.8585C25.9442 27.8585 26.0189 27.84 26.0189 27.8173C26.0189 27.7944 26.1296 27.7761 26.2679 27.7761C26.4063 27.7761 26.517 27.7579 26.517 27.735C26.517 27.7123 26.5543 27.6938 26.6 27.6938C26.6457 27.6938 26.683 27.6752 26.683 27.6526C26.683 27.6299 26.7204 27.6114 26.766 27.6114C26.8117 27.6114 26.8491 27.5929 26.8491 27.5702C26.8491 27.5476 26.8779 27.529 26.9132 27.529C26.9962 27.529 27.1811 27.3456 27.1811 27.2632C27.1811 27.2282 27.1998 27.1996 27.2226 27.1996C27.2455 27.1996 27.2642 27.1625 27.2642 27.1172C27.2642 27.0719 27.2828 27.0349 27.3057 27.0349C27.3285 27.0349 27.3472 26.9793 27.3472 26.9113C27.3472 26.8434 27.3658 26.7878 27.3887 26.7878C27.4136 26.7878 27.4302 26.623 27.4302 26.3759V25.9641H26.8906H26.3509V26.3347C26.3509 26.5544 26.334 26.7054 26.3094 26.7054C26.2866 26.7054 26.2679 26.7425 26.2679 26.7878C26.2679 26.8427 26.2402 26.8701 26.1849 26.8701C26.1392 26.8701 26.1019 26.8887 26.1019 26.9113C26.1019 26.934 25.9983 26.9525 25.8717 26.9525C25.6826 26.9525 25.6233 26.9344 25.5396 26.8514C25.4836 26.7958 25.4377 26.7217 25.4377 26.6867C25.4377 26.6516 25.4191 26.623 25.3962 26.623C25.3701 26.623 25.3547 26.3485 25.3547 25.8817V25.1404H26.3925H27.4302V24.1521C27.4302 23.5206 27.4152 23.1637 27.3887 23.1637C27.3658 23.1637 27.3472 23.1266 27.3472 23.0813C27.3472 23.036 27.3285 22.999 27.3057 22.999C27.2828 22.999 27.2642 22.9619 27.2642 22.9166C27.2642 22.8713 27.2455 22.8342 27.2226 22.8342C27.1998 22.8342 27.1811 22.8056 27.1811 22.7706C27.1811 22.6928 26.9981 22.5048 26.9224 22.5048C26.8921 22.5048 26.8405 22.4677 26.8075 22.4224C26.7724 22.374 26.7001 22.34 26.6323 22.34C26.5689 22.34 26.517 22.3215 26.517 22.2988C26.517 22.2762 26.4236 22.2577 26.3094 22.2577C26.1953 22.2577 26.1019 22.2391 26.1019 22.2165C26.1019 22.1938 26.0272 22.1753 25.9359 22.1753C25.8445 22.1753 25.7698 22.1938 25.7698 22.2165ZM16.4717 24.7698C16.4717 26.3622 16.486 27.1996 16.5132 27.1996C16.536 27.1996 16.5547 27.2465 16.5547 27.3039C16.5547 27.4199 16.8016 27.6938 16.9062 27.6938C16.9412 27.6938 16.9698 27.7123 16.9698 27.735C16.9698 27.7579 17.0805 27.7761 17.2189 27.7761C17.3572 27.7761 17.4679 27.7579 17.4679 27.735C17.4679 27.7123 17.524 27.6938 17.5925 27.6938C17.6609 27.6938 17.717 27.6752 17.717 27.6526C17.717 27.6299 17.7543 27.6114 17.8 27.6114C17.8457 27.6114 17.883 27.5929 17.883 27.5702C17.883 27.5476 17.9129 27.529 17.9494 27.529C17.9859 27.529 18.0681 27.4734 18.1321 27.4055C18.196 27.3375 18.2783 27.2819 18.3148 27.2819C18.3534 27.2819 18.3811 27.2476 18.3811 27.1996C18.3811 27.1447 18.4088 27.1172 18.4642 27.1172C18.5393 27.1172 18.5472 27.1447 18.5472 27.4055V27.6938H19.0453H19.5434V25.0169V22.34H19.0453H18.5472V24.3799V26.4199L18.4033 26.5626C18.3241 26.6411 18.2307 26.7054 18.1957 26.7054C18.1607 26.7054 18.1321 26.7239 18.1321 26.7466C18.1321 26.7692 18.0947 26.7878 18.0491 26.7878C18.0034 26.7878 17.966 26.8063 17.966 26.8289C17.966 26.9093 17.7532 26.8686 17.6528 26.769L17.5509 26.668V24.504V22.34H17.0113H16.4717V24.7698ZM22.3882 23.2241L22.5321 23.3668V25.0361C22.5321 26.1215 22.5175 26.7054 22.4906 26.7054C22.4677 26.7054 22.4491 26.7345 22.4491 26.7701C22.4491 26.8942 22.3372 26.9525 22.0992 26.9525C21.972 26.9525 21.8679 26.934 21.8679 26.9113C21.8679 26.8887 21.8391 26.8701 21.8038 26.8701C21.7685 26.8701 21.6938 26.8246 21.6378 26.769L21.5358 26.668V24.9746C21.5358 23.1922 21.5388 23.1637 21.7197 23.1637C21.7556 23.1637 21.7849 23.1452 21.7849 23.1225C21.7849 23.0999 21.8883 23.0813 22.0146 23.0813C22.2213 23.0813 22.2587 23.0956 22.3882 23.2241ZM26.207 23.2241L26.3509 23.3668V23.8418V24.3168H25.8528H25.3547V23.8413C25.3547 23.3914 25.3602 23.3604 25.4566 23.2648C25.5127 23.2092 25.5874 23.1637 25.6227 23.1637C25.6579 23.1637 25.6868 23.1452 25.6868 23.1225C25.6868 23.0999 25.7715 23.0813 25.875 23.0813C26.0344 23.0813 26.0852 23.1032 26.207 23.2241Z" fill="white"/>
</svg>
